SplineFontDB: 3.0
FontName: Oswald-Light
FullName: Oswald Light
FamilyName: Oswald
Weight: Light
Copyright: Copyright (c) 2010-13 by Vernon Adams
Version: 3.0
ItalicAngle: 0
UnderlinePosition: -46
UnderlineWidth: 14
Ascent: 1638
Descent: 410
sfntRevision: 0x00030000
LayerCount: 2
Layer: 0 1 "Back"  1
Layer: 1 1 "Fore"  0
XUID: [1021 653 12281407 225425]
FSType: 0
OS2Version: 4
OS2_WeightWidthSlopeOnly: 0
OS2_UseTypoMetrics: 1
CreationTime: 1372384203
ModificationTime: 1372744878
PfmFamily: 17
TTFWeight: 300
TTFWidth: 5
LineGap: 0
VLineGap: 0
Panose: 2 0 3 3 0 0 0 0 0 0
OS2TypoAscent: 2233
OS2TypoAOffset: 0
OS2TypoDescent: -548
OS2TypoDOffset: 0
OS2TypoLinegap: 0
OS2WinAscent: 2233
OS2WinAOffset: 0
OS2WinDescent: 548
OS2WinDOffset: 0
HheadAscent: 2233
HheadAOffset: 0
HheadDescent: -548
HheadDOffset: 0
OS2SubXSize: 1331
OS2SubYSize: 1433
OS2SubXOff: 0
OS2SubYOff: 286
OS2SupXSize: 1331
OS2SupYSize: 1433
OS2SupXOff: 0
OS2SupYOff: 983
OS2StrikeYSize: 102
OS2StrikeYPos: 530
OS2Vendor: 'newt'
OS2CodePages: 20000097.00000000
OS2UnicodeRanges: a00002ef.4000204b.00000000.00000000
Lookup: 258 0 0 "'kern' Horizontal Kerning in Cyrillic lookup 0"  {"'kern' Horizontal Kerning in Cyrillic lookup 0 per glyph data 0"  "'kern' Horizontal Kerning in Cyrillic lookup 0 kerning class 1"  } ['kern' ('cyrl' <'dflt' > ) ]
Lookup: 260 0 0 "'mark' Mark Positioning lookup 1"  {"'mark' Mark Positioning lookup 1 subtable"  } ['mark' ('DFLT' <'dflt' > 'cyrl' <'dflt' > 'grek' <'dflt' > 'latn' <'dflt' > ) ]
MarkAttachClasses: 1
DEI: 91125
KernClass2: 40 56 "'kern' Horizontal Kerning in Cyrillic lookup 0 kerning class 1" 
 89 A Agrave Aacute Acircumflex Atilde Adieresis Aring Abreve Amacron Aogonek uni0200 uni0202
 16 D Dcaron uni1E0A
 94 E Egrave Eacute Ecircumflex Edieresis Ebreve Ecaron Edotaccent Emacron Eogonek uni0204 uni0206
 9 F uni1E1E
 52 G Gbreve Gcircumflex Gcommaaccent Gdotaccent uni01F4
 14 K Kcommaaccent
 28 L Lacute Lcaron Lcommaaccent
 9 P uni1E56

StartChar: .notdef
Encoding: 65536 -1 0
Width: 748
Flags: W
LayerCount: 2
UndoRedoHistory
Layer: 1
Undoes
EndUndoes
Redoes
EndRedoes
EndUndoRedoHistory
Fore
SplineSet
136 68 m 1,0,-1
 544 68 l 1,1,-1
 544 1297 l 1,2,-1
 136 1297 l 1,3,-1
 136 68 l 1,0,-1
68 0 m 1,4,-1
 68 1365 l 1,5,-1
 612 1365 l 1,6,-1
 612 0 l 1,7,-1
 68 0 l 1,4,-1
EndSplineSet
EndChar

StartChar: exclam
Encoding: 33 33 4
Width: 412
GlyphClass: 2
Flags: W
LayerCount: 2
UndoRedoHistory
Layer: 1
Undoes
EndUndoes
Redoes
EndRedoes
EndUndoRedoHistory
Fore
SplineSet
125 0 m 1,0,-1
 125 179 l 1,1,-1
 285 179 l 1,2,-1
 285 0 l 1,3,-1
 125 0 l 1,0,-1
179 356 m 1,4,-1
 127 1658 l 1,5,-1
 287 1658 l 1,6,-1
 232 356 l 1,7,-1
 179 356 l 1,4,-1
EndSplineSet
EndChar

StartChar: quotedbl
Encoding: 34 34 5
Width: 729
GlyphClass: 2
Flags: W
LayerCount: 2
UndoRedoHistory
Layer: 1
Undoes
EndUndoes
Redoes
EndRedoes
EndUndoRedoHistory
Fore
SplineSet
167 1174 m 1,0,-1
 167 1658 l 1,1,-1
 311 1658 l 1,2,-1
 249 1174 l 1,3,-1
 167 1174 l 1,0,-1
450 1174 m 1,4,-1
 450 1658 l 1,5,-1
 594 1658 l 1,6,-1
 532 1174 l 1,7,-1
 450 1174 l 1,4,-1
EndSplineSet
EndChar

StartChar: numbersign
Encoding: 35 35 6
Width: 953
GlyphClass: 2
Flags: W
LayerCount: 2
UndoRedoHistory
Layer: 1
Undoes
EndUndoes
Redoes
EndRedoes
EndUndoRedoHistory
Fore
SplineSet
108 0 m 1,0,-1
 199 597 l 1,1,-1
 84 597 l 1,2,-1
 84 708 l 1,3,-1
 216 708 l 1,4,-1
 262 998 l 1,5,-1
 110 998 l 1,6,-1
 110 1109 l 1,7,-1
 279 1109 l 1,8,-1
 364 1658 l 1,9,-1
 510 1658 l 1,10,-1
 425 1109 l 1,11,-1
 628 1109 l 1,12,-1
 713 1658 l 1,13,-1
 859 1658 l 1,14,-1
 774 1109 l 1,15,-1
 878 1109 l 1,16,-1
 878 998 l 1,17,-1
 758 998 l 1,18,-1
 711 708 l 1,19,-1
 853 708 l 1,20,-1
 853 597 l 1,21,-1
 695 597 l 1,22,-1
 603 0 l 1,23,-1
 456 0 l 1,24,-1
 548 597 l 1,25,-1
 346 597 l 1,26,-1
 254 0 l 1,27,-1
 108 0 l 1,0,-1
362 708 m 1,28,-1
 565 708 l 1,29,-1
 611 998 l 1,30,-1
 409 998 l 1,31,-1
 362 708 l 1,28,-1
EndSplineSet
EndChar

StartChar: dollar
Encoding: 36 36 7
Width: 954
GlyphClass: 2
Flags: W
LayerCount: 2
UndoRedoHistory
Layer: 1
Undoes
EndUndoes
Redoes
EndRedoes
EndUndoRedoHistory
Fore
SplineSet
487 -179 m 1,0,-1
 487 -20 l 1,1,2
 295 -16 295 -16 196.5 102 c 128,-1,3
 98 220 98 220 83 430 c 1,4,-1
 222 470 l 1,5,6
 229 404 229 404 239.5 353.5 c 128,-1,7
 250 303 250 303 270.5 254.5 c 128,-1,8
 291 206 291 206 320.5 175 c 128,-1,9
 350 144 350 144 395.5 125 c 128,-1,10
 441 106 441 106 500 106 c 0,11,12
 734 106 734 106 734 346 c 0,13,14
 734 399 734 399 720.5 445.5 c 128,-1,15
 707 492 707 492 677.5 536.5 c 128,-1,16
 648 581 648 581 615.5 617 c 128,-1,17
 583 653 583 653 531 704 c 2,18,-1
 237 986 l 2,19,20
 87 1130 87 1130 87 1320 c 0,21,22
 87 1483 87 1483 181 1575.5 c 128,-1,23
 275 1668 275 1668 438 1675 c 1,24,-1
 438 1848 l 1,25,-1
 503 1848 l 1,26,-1
 503 1675 l 1,27,28
 668 1666 668 1666 755.5 1566 c 128,-1,29
 843 1466 843 1466 858 1255 c 1,30,-1
 726 1221 l 1,31,32
 712 1389 712 1389 654 1473 c 0,33,34
 598 1553 598 1553 474 1553 c 0,35,36
 468 1553 468 1553 462 1553 c 0,37,38
 353 1550 353 1550 290.5 1496 c 128,-1,39
 228 1442 228 1442 228 1333 c 0,40,41
 228 1265 228 1265 254.5 1209.5 c 128,-1,42
 281 1154 281 1154 345 1092 c 2,43,-1
 637 815 l 2,44,45
 750 707 750 707 815 596.5 c 128,-1,46
 880 486 880 486 880 357 c 0,47,48
 880 190 880 190 790.5 93.5 c 128,-1,49
 701 -3 701 -3 550 -18 c 1,50,-1
 550 -179 l 1,51,-1
 487 -179 l 1,0,-1
EndSplineSet
EndChar

StartChar: percent
Encoding: 37 37 8
Width: 1499
GlyphClass: 2
Flags: W
LayerCount: 2
UndoRedoHistory
Layer: 1
Undoes
EndUndoes
Redoes
EndRedoes
EndUndoRedoHistory
Fore
SplineSet
333 942 m 0,0,1
 397 942 397 942 422.5 993.5 c 128,-1,2
 448 1045 448 1045 448 1139 c 2,3,-1
 448 1383 l 2,4,5
 448 1474 448 1474 423 1523.5 c 128,-1,6
 398 1573 398 1573 333 1573 c 128,-1,7
 268 1573 268 1573 243.5 1523 c 128,-1,8
 219 1473 219 1473 219 1381 c 2,9,-1
 219 1138 l 2,10,11
 219 1045 219 1045 244.5 993.5 c 128,-1,12
 270 942 270 942 333 942 c 0,0,1
333 827 m 128,-1,14
 82 827 82 827 82 1145 c 2,15,-1
 82 1375 l 2,16,17
 82 1527 82 1527 141 1608 c 128,-1,18
 200 1689 200 1689 333 1689 c 128,-1,19
 466 1689 466 1689 525 1610 c 128,-1,20
 584 1531 584 1531 584 1381 c 2,21,-1
 584 1142 l 2,22,13
 584 827 584 827 333 827 c 128,-1,14
1166 103 m 128,-1,24
 1230 103 1230 103 1255 155 c 128,-1,25
 1280 207 1280 207 1280 301 c 2,26,-1
 1280 544 l 2,27,28
 1280 636 1280 636 1255 685.5 c 128,-1,29
 1230 735 1230 735 1166 735 c 0,30,31
 1101 735 1101 735 1076.5 685 c 128,-1,32
 1052 635 1052 635 1052 543 c 2,33,-1
 1052 300 l 2,34,35
 1052 206 1052 206 1077 154.5 c 128,-1,23
 1102 103 1102 103 1166 103 c 128,-1,24
1166 -12 m 128,-1,37
 915 -12 915 -12 915 307 c 2,38,-1
 915 537 l 2,39,40
 915 689 915 689 974 770 c 128,-1,41
 1033 851 1033 851 1166 851 c 0,42,43
 1298 851 1298 851 1357.5 772 c 128,-1,44
 1417 693 1417 693 1417 543 c 2,45,-1
 1417 303 l 2,46,36
 1417 -12 1417 -12 1166 -12 c 128,-1,37
422 0 m 1,47,-1
 947 1673 l 1,48,-1
 1080 1673 l 1,49,-1
 556 0 l 1,50,-1
 422 0 l 1,47,-1
EndSplineSet
EndChar

StartChar: ampersand
Encoding: 38 38 9
Width: 1236
GlyphClass: 2
Flags: W
LayerCount: 2
UndoRedoHistory
Layer: 1
Undoes
EndUndoes
Redoes
EndRedoes
EndUndoRedoHistory
Fore
SplineSet
499 -21 m 0,0,1
 317 -21 317 -21 217 86 c 128,-1,2
 117 193 117 193 117 357 c 0,3,4
 117 484 117 484 180.5 600.5 c 128,-1,5
 244 717 244 717 382 851 c 1,6,7
 375 862 375 862 362 884 c 0,8,9
 268 1043 268 1043 228 1134.5 c 128,-1,10
 188 1226 188 1226 188 1326 c 0,11,12
 188 1490 188 1490 282.5 1583 c 128,-1,13
 377 1676 377 1676 539 1676 c 0,14,15
 694 1676 694 1676 786.5 1596.5 c 128,-1,16
 879 1517 879 1517 879 1380 c 0,17,18
 879 1251 879 1251 787.5 1119 c 128,-1,19
 696 987 696 987 533 839 c 1,20,-1
 852 335 l 1,21,22
 904 409 904 409 940 525.5 c 128,-1,23
 976 642 976 642 982 736 c 1,24,-1
 1126 736 l 1,25,26
 1126 623 1126 623 1073.5 480.5 c 128,-1,27
 1021 338 1021 338 941 240 c 1,28,29
 1024 134 1024 134 1130 134 c 1,30,-1
 1130 -14 l 1,31,32
 1110 -14 1110 -14 1091 -11 c 1,33,34
 972 -3 972 -3 852 142 c 1,35,36
 790 70 790 70 699.5 24.5 c 128,-1,37
 609 -21 609 -21 499 -21 c 0,0,1
500 105 m 0,38,39
 642 105 642 105 766 240 c 1,40,-1
 443 743 l 1,41,42
 350 641 350 641 309 547.5 c 128,-1,43
 268 454 268 454 268 357 c 0,44,45
 268 309 268 309 280 266 c 128,-1,46
 292 223 292 223 318 186 c 128,-1,47
 344 149 344 149 390.5 127 c 128,-1,48
 437 105 437 105 500 105 c 0,38,39
478 926 m 1,49,50
 731 1177 731 1177 731 1383 c 0,51,52
 731 1463 731 1463 679 1507.5 c 128,-1,53
 627 1552 627 1552 537 1552 c 0,54,55
 438 1552 438 1552 387.5 1488.5 c 128,-1,56
 337 1425 337 1425 337 1328 c 0,57,58
 337 1239 337 1239 370.5 1149.5 c 128,-1,59
 404 1060 404 1060 478 926 c 1,49,50
EndSplineSet
EndChar

StartChar: quotesingle
Encoding: 39 39 10
Width: 586
GlyphClass: 2
Flags: W
LayerCount: 2
UndoRedoHistory
Layer: 1
Undoes
EndUndoes
Redoes
EndRedoes
EndUndoRedoHistory
Fore
SplineSet
167 1174 m 1,0,-1
 167 1658 l 1,1,-1
 311 1658 l 1,2,-1
 249 1174 l 1,3,-1
 167 1174 l 1,0,-1
EndSplineSet
EndChar

StartChar: parenleft
Encoding: 40 40 11
Width: 569
GlyphClass: 2
Flags: W
LayerCount: 2
UndoRedoHistory
Layer: 1
Undoes
EndUndoes
Redoes
EndRedoes
EndUndoRedoHistory
Fore
SplineSet
507 -338 m 1,0,1
 444 -334 444 -334 394.5 -312.5 c 128,-1,2
 345 -291 345 -291 309.5 -245.5 c 128,-1,3
 274 -200 274 -200 248 -153.5 c 128,-1,4
 222 -107 222 -107 206.5 -26 c 128,-1,5
 191 55 191 55 181 118.5 c 128,-1,6
 171 182 171 182 167 289.5 c 128,-1,7
 163 397 163 397 162 469.5 c 128,-1,8
 161 542 161 542 161 666 c 0,9,10
 161 791 161 791 162 864 c 128,-1,11
 163 937 163 937 167 1045.5 c 128,-1,12
 171 1154 171 1154 181 1218 c 128,-1,13
 191 1282 191 1282 206.5 1363 c 128,-1,14
 222 1444 222 1444 248 1491 c 128,-1,15
 274 1538 274 1538 309.5 1583 c 128,-1,16
 345 1628 345 1628 394.5 1648.5 c 128,-1,17
 444 1669 444 1669 507 1671 c 1,18,-1
 507 1566 l 1,19,20
 458 1561 458 1561 422.5 1529.5 c 128,-1,21
 387 1498 387 1498 366 1427.5 c 128,-1,22
 345 1357 345 1357 332 1294.5 c 128,-1,23
 319 1232 319 1232 314 1110.5 c 128,-1,24
 309 989 309 989 308 913.5 c 128,-1,25
 307 838 307 838 307 686 c 0,26,27
 307 673 307 673 307 666 c 0,28,29
 307 657 307 657 307 639 c 0,30,31
 307 487 307 487 308 412 c 128,-1,32
 309 337 309 337 314 216 c 128,-1,33
 319 95 319 95 332 33.5 c 128,-1,34
 345 -28 345 -28 366 -97.5 c 128,-1,35
 387 -167 387 -167 422.5 -198 c 128,-1,36
 458 -229 458 -229 507 -234 c 1,37,-1
 507 -338 l 1,0,1
EndSplineSet
EndChar

StartChar: parenright
Encoding: 41 41 12
Width: 526
GlyphClass: 2
Flags: W
LayerCount: 2
UndoRedoHistory
Layer: 1
Undoes
EndUndoes
Redoes
EndRedoes
EndUndoRedoHistory
Fore
SplineSet
62 -338 m 1,0,-1
 62 -234 l 1,1,2
 111 -229 111 -229 146.5 -197.5 c 128,-1,3
 182 -166 182 -166 203.5 -95.5 c 128,-1,4
 225 -25 225 -25 238 38 c 128,-1,5
 251 101 251 101 256 223 c 128,-1,6
 261 345 261 345 262 420.5 c 128,-1,7
 263 496 263 496 263 648 c 0,8,9
 263 661 263 661 263 668 c 0,10,11
 263 671 263 671 263 675 c 128,-1,12
 263 679 263 679 263 681.5 c 128,-1,13
 263 684 263 684 263 688 c 0,14,15
 263 841 263 841 262 916.5 c 128,-1,16
 261 992 261 992 256 1113.5 c 128,-1,17
 251 1235 251 1235 238 1297 c 128,-1,18
 225 1359 225 1359 203.5 1429.5 c 128,-1,19
 182 1500 182 1500 146.5 1531 c 128,-1,20
 111 1562 111 1562 62 1567 c 1,21,-1
 62 1671 l 1,22,23
 125 1669 125 1669 175 1648.5 c 128,-1,24
 225 1628 225 1628 260.5 1583 c 128,-1,25
 296 1538 296 1538 322 1491.5 c 128,-1,26
 348 1445 348 1445 363.5 1364 c 128,-1,27
 379 1283 379 1283 389 1219 c 128,-1,28
 399 1155 399 1155 403 1046.5 c 128,-1,29
 407 938 407 938 408 865.5 c 128,-1,30
 409 793 409 793 409 668 c 0,31,32
 409 525 409 525 408 443.5 c 128,-1,33
 407 362 407 362 400 242 c 128,-1,34
 393 122 393 122 380 53 c 128,-1,35
 367 -16 367 -16 341.5 -98.5 c 128,-1,36
 316 -181 316 -181 280 -225 c 128,-1,37
 244 -269 244 -269 188.5 -301.5 c 128,-1,38
 133 -334 133 -334 62 -338 c 1,0,-1
EndSplineSet
EndChar

StartChar: asterisk
Encoding: 42 42 13
Width: 762
GlyphClass: 2
Flags: W
LayerCount: 2
UndoRedoHistory
Layer: 1
Undoes
EndUndoes
Redoes
EndRedoes
EndUndoRedoHistory
Fore
SplineSet
241 990 m 1,0,-1
 150 1047 l 1,1,-1
 328 1286 l 1,2,-1
 72 1388 l 1,3,-1
 110 1484 l 1,4,-1
 357 1361 l 1,5,-1
 340 1657 l 1,6,-1
 456 1657 l 1,7,-1
 437 1361 l 1,8,-1
 682 1484 l 1,9,-1
 719 1388 l 1,10,-1
 464 1286 l 1,11,-1
 643 1045 l 1,12,-1
 551 990 l 1,13,-1
 396 1250 l 1,14,-1
 241 990 l 1,0,-1
EndSplineSet
EndChar

StartChar: plus
Encoding: 43 43 14
Width: 785
GlyphClass: 2
Flags: W
LayerCount: 2
UndoRedoHistory
Layer: 1
Undoes
EndUndoes
Redoes
EndRedoes
EndUndoRedoHistory
Fore
SplineSet
332 471 m 1,0,-1
 332 795 l 1,1,-1
 48 795 l 1,2,-1
 48 908 l 1,3,-1
 332 908 l 1,4,-1
 332 1229 l 1,5,-1
 447 1229 l 1,6,-1
 447 908 l 1,7,-1
 737 908 l 1,8,-1
 737 795 l 1,9,-1
 447 795 l 1,10,-1
 447 471 l 1,11,-1
 332 471 l 1,0,-1
EndSplineSet
EndChar

StartChar: comma
Encoding: 44 44 15
Width: 370
GlyphClass: 2
Flags: W
LayerCount: 2
UndoRedoHistory
Layer: 1
Undoes
EndUndoes
Redoes
EndRedoes
EndUndoRedoHistory
Fore
SplineSet
132 -239 m 1,0,-1
 101 -173 l 1,1,2
 154 -143 154 -143 176.5 -103 c 128,-1,3
 199 -63 199 -63 199 0 c 1,4,-1
 109 0 l 1,5,-1
 109 223 l 1,6,-1
 277 223 l 1,7,-1
 277 16 l 2,8,9
 277 -84 277 -84 244 -141.5 c 128,-1,10
 211 -199 211 -199 132 -239 c 1,0,-1
EndSplineSet
EndChar

StartChar: hyphen
Encoding: 45 45 16
Width: 610
GlyphClass: 2
Flags: W
LayerCount: 2
UndoRedoHistory
Layer: 1
Undoes
EndUndoes
Redoes
EndRedoes
EndUndoRedoHistory
Fore
SplineSet
87 609 m 1,0,-1
 87 727 l 1,1,-1
 523 727 l 1,2,-1
 523 609 l 1,3,-1
 87 609 l 1,0,-1
EndSplineSet
EndChar

StartChar: period
Encoding: 46 46 17
Width: 372
GlyphClass: 2
Flags: W
LayerCount: 2
UndoRedoHistory
Layer: 1
Undoes
EndUndoes
Redoes
EndRedoes
EndUndoRedoHistory
Fore
SplineSet
122 0 m 1,0,-1
 122 225 l 1,1,-1
 281 225 l 1,2,-1
 281 0 l 1,3,-1
 122 0 l 1,0,-1
EndSplineSet
EndChar

StartChar: slash
Encoding: 47 47 18
Width: 705
GlyphClass: 2
Flags: W
LayerCount: 2
UndoRedoHistory
Layer: 1
Undoes
EndUndoes
Redoes
EndRedoes
EndUndoRedoHistory
Fore
SplineSet
50 0 m 1,0,-1
 522 1658 l 1,1,-1
 654 1658 l 1,2,-1
 182 0 l 1,3,-1
 50 0 l 1,0,-1
EndSplineSet
EndChar

StartChar: zero
Encoding: 48 48 19
Width: 1008
GlyphClass: 2
Flags: W
LayerCount: 2
UndoRedoHistory
Layer: 1
Undoes
EndUndoes
Redoes
EndRedoes
EndUndoRedoHistory
Fore
SplineSet
504 100 m 128,-1,1
 747 100 747 100 747 456 c 2,2,-1
 747 1201 l 2,3,4
 747 1281 747 1281 735.5 1342 c 128,-1,5
 724 1403 724 1403 697.5 1453.5 c 128,-1,6
 671 1504 671 1504 622 1530.5 c 128,-1,7
 573 1557 573 1557 504 1557 c 128,-1,8
 435 1557 435 1557 386.5 1530.5 c 128,-1,9
 338 1504 338 1504 311 1454 c 128,-1,10
 284 1404 284 1404 272.5 1342.5 c 128,-1,11
 261 1281 261 1281 261 1201 c 2,12,-1
 261 456 l 2,13,0
 261 100 261 100 504 100 c 128,-1,1
504 -21 m 0,14,15
 109 -21 109 -21 109 469 c 2,16,-1
 109 1189 l 2,17,18
 109 1676 109 1676 504 1676 c 0,19,20
 900 1676 900 1676 900 1189 c 2,21,-1
 900 469 l 2,22,23
 900 -21 900 -21 504 -21 c 0,14,15
EndSplineSet
EndChar

StartChar: one
Encoding: 49 49 20
Width: 875
GlyphClass: 2
Flags: W
LayerCount: 2
UndoRedoHistory
Layer: 1
Undoes
EndUndoes
Redoes
EndRedoes
EndUndoRedoHistory
Fore
SplineSet
438 0 m 1,0,-1
 438 1459 l 1,1,2
 406 1412 406 1412 180 1350 c 1,3,-1
 180 1471 l 1,4,5
 252 1490 252 1490 334.5 1539.5 c 128,-1,6
 417 1589 417 1589 467 1658 c 1,7,-1
 588 1658 l 1,8,-1
 588 0 l 1,9,-1
 438 0 l 1,0,-1
EndSplineSet
EndChar

StartChar: two
Encoding: 50 50 21
Width: 993
GlyphClass: 2
Flags: W
LayerCount: 2
UndoRedoHistory
Layer: 1
Undoes
EndUndoes
Redoes
EndRedoes
EndUndoRedoHistory
Fore
SplineSet
101 0 m 1,0,-1
 101 110 l 1,1,-1
 547 795 l 2,2,3
 554 807 554 807 579 844 c 128,-1,4
 604 881 604 881 612 893.5 c 128,-1,5
 620 906 620 906 640 939.5 c 128,-1,6
 660 973 660 973 668 989.5 c 128,-1,7
 676 1006 676 1006 690.5 1036.5 c 128,-1,8
 705 1067 705 1067 711 1089.5 c 128,-1,9
 717 1112 717 1112 725 1142.5 c 128,-1,10
 733 1173 733 1173 735.5 1203 c 128,-1,11
 738 1233 738 1233 738 1265 c 0,12,13
 738 1400 738 1400 682 1475.5 c 128,-1,14
 626 1551 626 1551 517 1551 c 0,15,16
 442 1551 442 1551 390.5 1525 c 128,-1,17
 339 1499 339 1499 312 1449.5 c 128,-1,18
 285 1400 285 1400 273.5 1341.5 c 128,-1,19
 262 1283 262 1283 262 1205 c 2,20,-1
 262 1167 l 1,21,-1
 113 1167 l 1,22,-1
 113 1209 l 2,23,24
 113 1442 113 1442 208.5 1559 c 128,-1,25
 304 1676 304 1676 510 1676 c 0,26,27
 695 1676 695 1676 791.5 1566 c 128,-1,28
 888 1456 888 1456 888 1255 c 0,29,30
 888 1196 888 1196 876 1138 c 128,-1,31
 864 1080 864 1080 849 1037 c 128,-1,32
 834 994 834 994 802.5 936.5 c 128,-1,33
 771 879 771 879 751 847.5 c 128,-1,34
 731 816 731 816 690 755 c 2,35,-1
 276 127 l 1,36,-1
 852 127 l 1,37,-1
 852 0 l 1,38,-1
 101 0 l 1,0,-1
EndSplineSet
EndChar

StartChar: three
Encoding: 51 51 22
Width: 980
GlyphClass: 2
Flags: W
LayerCount: 2
UndoRedoHistory
Layer: 1
Undoes
EndUndoes
Redoes
EndRedoes
EndUndoRedoHistory
Fore
SplineSet
488 -21 m 0,0,1
 301 -21 301 -21 209.5 85.5 c 128,-1,2
 118 192 118 192 118 383 c 2,3,-1
 118 423 l 1,4,-1
 264 423 l 1,5,-1
 264 390 l 1,6,7
 266 249 266 249 317.5 176 c 128,-1,8
 369 103 369 103 488 103 c 0,9,10
 608 103 608 103 668.5 185 c 128,-1,11
 729 267 729 267 729 451 c 0,12,13
 729 795 729 795 482 803 c 0,14,15
 480 803 480 803 461 803.5 c 128,-1,16
 442 804 442 804 440 804 c 1,17,-1
 440 945 l 1,18,-1
 480 945 l 1,19,20
 614 947 614 947 671.5 1021 c 128,-1,21
 729 1095 729 1095 729 1262 c 0,22,23
 729 1401 729 1401 677.5 1477.5 c 128,-1,24
 626 1554 626 1554 503 1554 c 0,25,26
 378 1554 378 1554 322 1484.5 c 128,-1,27
 266 1415 266 1415 264 1266 c 1,28,-1
 264 1238 l 1,29,-1
 118 1238 l 1,30,-1
 118 1276 l 2,31,32
 118 1467 118 1467 211 1571.5 c 128,-1,33
 304 1676 304 1676 503 1676 c 0,34,35
 691 1676 691 1676 786.5 1564 c 128,-1,36
 882 1452 882 1452 882 1261 c 0,37,38
 882 1093 882 1093 817.5 995.5 c 128,-1,39
 753 898 753 898 645 873 c 1,40,41
 747 845 747 845 814.5 741 c 128,-1,42
 882 637 882 637 882 453 c 0,43,44
 882 231 882 231 786.5 105 c 128,-1,45
 691 -21 691 -21 488 -21 c 0,0,1
EndSplineSet
EndChar

StartChar: four
Encoding: 52 52 23
Width: 1008
GlyphClass: 2
Flags: W
LayerCount: 2
UndoRedoHistory
Layer: 1
Undoes
EndUndoes
Redoes
EndRedoes
EndUndoRedoHistory
Fore
SplineSet
602 0 m 1,0,-1
 602 482 l 1,1,-1
 103 482 l 1,2,-1
 103 639 l 1,3,-1
 571 1659 l 1,4,-1
 753 1659 l 1,5,-1
 753 623 l 1,6,-1
 941 623 l 1,7,-1
 941 482 l 1,8,-1
 753 482 l 1,9,-1
 753 0 l 1,10,-1
 602 0 l 1,0,-1
257 623 m 1,11,-1
 602 623 l 1,12,-1
 602 1456 l 1,13,-1
 257 623 l 1,11,-1
EndSplineSet
EndChar

StartChar: five
Encoding: 53 53 24
Width: 991
GlyphClass: 2
Flags: W
LayerCount: 2
UndoRedoHistory
Layer: 1
Undoes
EndUndoes
Redoes
EndRedoes
EndUndoRedoHistory
Fore
SplineSet
509 -19 m 0,0,1
 314 -19 314 -19 226.5 93 c 128,-1,2
 139 205 139 205 139 428 c 1,3,-1
 289 428 l 1,4,5
 289 267 289 267 340 184 c 128,-1,6
 391 101 391 101 514 101 c 0,7,8
 648 101 648 101 696.5 202 c 128,-1,9
 745 303 745 303 745 524 c 0,10,11
 745 752 745 752 694 845 c 128,-1,12
 643 938 643 938 517 938 c 0,13,14
 384 938 384 938 302 799 c 1,15,-1
 176 799 l 1,16,-1
 176 1658 l 1,17,-1
 822 1658 l 1,18,-1
 819 1518 l 1,19,-1
 309 1518 l 1,20,-1
 301 943 l 1,21,22
 389 1053 389 1053 555 1053 c 0,23,24
 733 1053 733 1053 813 922.5 c 128,-1,25
 893 792 893 792 893 542 c 0,26,27
 893 263 893 263 803 122 c 128,-1,28
 713 -19 713 -19 509 -19 c 0,0,1
EndSplineSet
EndChar

StartChar: six
Encoding: 54 54 25
Width: 1006
GlyphClass: 2
Flags: W
LayerCount: 2
UndoRedoHistory
Layer: 1
Undoes
EndUndoes
Redoes
EndRedoes
EndUndoRedoHistory
Fore
SplineSet
518 -21 m 0,0,1
 135 -21 135 -21 135 499 c 2,2,-1
 135 1161 l 2,3,4
 135 1676 135 1676 518 1676 c 0,5,6
 704 1676 704 1676 796 1580 c 128,-1,7
 888 1484 888 1484 890 1291 c 0,8,9
 890 1290 890 1290 890.5 1275 c 128,-1,10
 891 1260 891 1260 891 1259 c 1,11,-1
 743 1259 l 1,12,13
 743 1417 743 1417 692.5 1484.5 c 128,-1,14
 642 1552 642 1552 522 1552 c 0,15,16
 285 1552 285 1552 285 1195 c 2,17,-1
 285 882 l 1,18,19
 328 922 328 922 399.5 951 c 128,-1,20
 471 980 471 980 553 980 c 0,21,22
 752 980 752 980 831.5 865 c 128,-1,23
 911 750 911 750 911 485 c 0,24,25
 911 -21 911 -21 518 -21 c 0,0,1
518 105 m 0,26,27
 642 105 642 105 700 188 c 128,-1,28
 758 271 758 271 758 456 c 0,29,30
 758 531 758 531 755 581.5 c 128,-1,31
 752 632 752 632 743.5 682 c 128,-1,32
 735 732 735 732 719 762.5 c 128,-1,33
 703 793 703 793 676.5 817.5 c 128,-1,34
 650 842 650 842 611 852.5 c 128,-1,35
 572 863 572 863 518 863 c 0,36,37
 452 863 452 863 386.5 833 c 128,-1,38
 321 803 321 803 285 768 c 1,39,-1
 285 481 l 2,40,41
 285 283 285 283 341 194 c 128,-1,42
 397 105 397 105 518 105 c 0,26,27
EndSplineSet
EndChar

StartChar: seven
Encoding: 55 55 26
Width: 887
GlyphClass: 2
Flags: W
LayerCount: 2
UndoRedoHistory
Layer: 1
Undoes
EndUndoes
Redoes
EndRedoes
EndUndoRedoHistory
Fore
SplineSet
297 0 m 1,0,-1
 620 1538 l 1,1,-1
 118 1538 l 1,2,-1
 118 1658 l 1,3,-1
 772 1658 l 1,4,-1
 772 1585 l 1,5,-1
 443 0 l 1,6,-1
 297 0 l 1,0,-1
EndSplineSet
EndChar

StartChar: eight
Encoding: 56 56 27
Width: 993
GlyphClass: 2
Flags: W
LayerCount: 2
UndoRedoHistory
Layer: 1
Undoes
EndUndoes
Redoes
EndRedoes
EndUndoRedoHistory
Fore
SplineSet
497 -21 m 128,-1,1
 107 -21 107 -21 107 445 c 0,2,3
 107 528 107 528 122 595 c 128,-1,4
 137 662 137 662 158 703.5 c 128,-1,5
 179 745 179 745 214 780 c 128,-1,6
 249 815 249 815 276.5 833 c 128,-1,7
 304 851 304 851 345 871 c 1,8,9
 124 962 124 962 124 1260 c 0,10,11
 124 1453 124 1453 213.5 1564.5 c 128,-1,12
 303 1676 303 1676 497 1676 c 0,13,14
 690 1676 690 1676 780 1563 c 128,-1,15
 870 1450 870 1450 870 1256 c 0,16,17
 870 962 870 962 648 871 c 1,18,19
 689 850 689 850 716.5 832.5 c 128,-1,20
 744 815 744 815 779.5 779.5 c 128,-1,21
 815 744 815 744 836 702.5 c 128,-1,22
 857 661 857 661 872 594.5 c 128,-1,23
 887 528 887 528 887 445 c 0,24,0
 887 -21 887 -21 497 -21 c 128,-1,1
497 100 m 128,-1,26
 620 100 620 100 680 184.5 c 128,-1,27
 740 269 740 269 740 445 c 0,28,29
 740 780 740 780 497 800 c 1,30,31
 253 780 253 780 253 445 c 0,32,33
 253 268 253 268 313.5 184 c 128,-1,25
 374 100 374 100 497 100 c 128,-1,26
497 938 m 1,34,35
 722 948 722 948 722 1261 c 0,36,37
 722 1555 722 1555 497 1555 c 128,-1,38
 272 1555 272 1555 272 1261 c 0,39,40
 272 948 272 948 497 938 c 1,34,35
EndSplineSet
EndChar

StartChar: nine
Encoding: 57 57 28
Width: 1006
GlyphClass: 2
Flags: W
LayerCount: 2
UndoRedoHistory
Layer: 1
Undoes
EndUndoes
Redoes
EndRedoes
EndUndoRedoHistory
Fore
SplineSet
511 -21 m 0,0,1
 137 -21 137 -21 132 367 c 1,2,-1
 132 397 l 1,3,-1
 280 397 l 1,4,5
 280 237 280 237 331.5 170.5 c 128,-1,6
 383 104 383 104 513 104 c 0,7,8
 624 104 624 104 680.5 186 c 128,-1,9
 737 268 737 268 737 462 c 2,10,-1
 737 774 l 1,11,12
 702 734 702 734 633.5 705.5 c 128,-1,13
 565 677 565 677 470 677 c 0,14,15
 270 677 270 677 191 792 c 128,-1,16
 112 907 112 907 112 1171 c 0,17,18
 112 1676 112 1676 507 1676 c 0,19,20
 888 1676 888 1676 888 1157 c 2,21,-1
 888 495 l 2,22,23
 888 -21 888 -21 511 -21 c 0,0,1
505 793 m 0,24,25
 650 793 650 793 737 889 c 1,26,-1
 737 1175 l 2,27,28
 737 1374 737 1374 682.5 1462.5 c 128,-1,29
 628 1551 628 1551 507 1551 c 0,30,31
 384 1551 384 1551 324.5 1465 c 128,-1,32
 265 1379 265 1379 265 1200 c 0,33,34
 265 1125 265 1125 268 1074.5 c 128,-1,35
 271 1024 271 1024 279.5 974 c 128,-1,36
 288 924 288 924 304 893.5 c 128,-1,37
 320 863 320 863 346.5 838.5 c 128,-1,38
 373 814 373 814 412 803.5 c 128,-1,39
 451 793 451 793 505 793 c 0,24,25
EndSplineSet
EndChar

StartChar: colon
Encoding: 58 58 29
Width: 396
GlyphClass: 2
Flags: W
LayerCount: 2
UndoRedoHistory
Layer: 1
Undoes
EndUndoes
Redoes
EndRedoes
EndUndoRedoHistory
Fore
SplineSet
142 171 m 1,0,-1
 142 390 l 1,1,-1
 301 390 l 1,2,-1
 301 171 l 1,3,-1
 142 171 l 1,0,-1
142 867 m 1,4,-1
 142 1086 l 1,5,-1
 301 1086 l 1,6,-1
 301 867 l 1,7,-1
 142 867 l 1,4,-1
EndSplineSet
EndChar

StartChar: semicolon
Encoding: 59 59 30
Width: 426
GlyphClass: 2
Flags: W
LayerCount: 2
UndoRedoHistory
Layer: 1
Undoes
EndUndoes
Redoes
EndRedoes
EndUndoRedoHistory
Fore
SplineSet
162 -57 m 1,0,-1
 131 9 l 1,1,2
 188 33 188 33 208.5 66 c 128,-1,3
 229 99 229 99 229 162 c 1,4,-1
 141 162 l 1,5,-1
 141 373 l 1,6,-1
 307 373 l 1,7,-1
 307 178 l 2,8,9
 307 74 307 74 275 20 c 128,-1,10
 243 -34 243 -34 162 -57 c 1,0,-1
141 903 m 1,11,-1
 141 1127 l 1,12,-1
 299 1127 l 1,13,-1
 299 903 l 1,14,-1
 141 903 l 1,11,-1
EndSplineSet
EndChar

StartChar: less
Encoding: 60 60 31
Width: 744
GlyphClass: 2
Flags: W
LayerCount: 2
UndoRedoHistory
Layer: 1
Undoes
EndUndoes
Redoes
EndRedoes
EndUndoRedoHistory
Fore
SplineSet
627 126 m 1,0,-1
 59 544 l 1,1,-1
 59 692 l 1,2,-1
 627 1122 l 1,3,-1
 627 966 l 1,4,-1
 175 618 l 1,5,-1
 627 280 l 1,6,-1
 627 126 l 1,0,-1
EndSplineSet
EndChar

StartChar: equal
Encoding: 61 61 32
Width: 820
GlyphClass: 2
Flags: W
LayerCount: 2
UndoRedoHistory
Layer: 1
Undoes
EndUndoes
Redoes
EndRedoes
EndUndoRedoHistory
Fore
SplineSet
104 584 m 1,0,-1
 104 703 l 1,1,-1
 716 703 l 1,2,-1
 716 584 l 1,3,-1
 104 584 l 1,0,-1
104 927 m 1,4,-1
 104 1047 l 1,5,-1
 716 1047 l 1,6,-1
 716 927 l 1,7,-1
 104 927 l 1,4,-1
EndSplineSet
EndChar

StartChar: greater
Encoding: 62 62 33
Width: 744
GlyphClass: 2
Flags: W
LayerCount: 2
UndoRedoHistory
Layer: 1
Undoes
EndUndoes
Redoes
EndRedoes
EndUndoRedoHistory
Fore
SplineSet
118 126 m 1,0,-1
 118 281 l 1,1,-1
 570 630 l 1,2,-1
 118 967 l 1,3,-1
 118 1122 l 1,4,-1
 686 703 l 1,5,-1
 686 555 l 1,6,-1
 118 126 l 1,0,-1
EndSplineSet
EndChar

StartChar: question
Encoding: 63 63 34
Width: 971
GlyphClass: 2
Flags: W
LayerCount: 2
UndoRedoHistory
Layer: 1
Undoes
EndUndoes
Redoes
EndRedoes
EndUndoRedoHistory
Fore
SplineSet
355 412 m 1,0,-1
 355 665 l 1,1,2
 545 802 545 802 637 942 c 128,-1,3
 729 1082 729 1082 729 1250 c 0,4,5
 729 1392 729 1392 658 1470 c 128,-1,6
 587 1548 587 1548 481 1548 c 0,7,8
 364 1548 364 1548 304 1482 c 0,9,10
 261 1435 261 1435 261 1364 c 0,11,12
 261 1335 261 1335 268 1303 c 1,13,-1
 282 1230 l 1,14,-1
 145 1201 l 1,15,-1
 129 1274 l 2,16,17
 117 1328 117 1328 117 1376 c 0,18,19
 117 1494 117 1494 191 1571 c 0,20,21
 295 1679 295 1679 482 1679 c 0,22,23
 658 1679 658 1679 766 1567.5 c 128,-1,24
 874 1456 874 1456 874 1247 c 0,25,26
 874 1148 874 1148 848 1063 c 128,-1,27
 822 978 822 978 768 902 c 128,-1,28
 714 826 714 826 649 763 c 128,-1,29
 584 700 584 700 488 624 c 1,30,-1
 488 412 l 1,31,-1
 355 412 l 1,0,-1
349 1 m 1,32,-1
 349 178 l 1,33,-1
 498 178 l 1,34,-1
 498 1 l 1,35,-1
 349 1 l 1,32,-1
EndSplineSet
EndChar

StartChar: at
Encoding: 64 64 35
Width: 1726
GlyphClass: 2
Flags: W
LayerCount: 2
UndoRedoHistory
Layer: 1
Undoes
EndUndoes
Redoes
EndRedoes
EndUndoRedoHistory
Fore
SplineSet
928 -230 m 0,0,1
 791 -230 791 -230 674 -202.5 c 128,-1,2
 557 -175 557 -175 453.5 -111 c 128,-1,3
 350 -47 350 -47 277 52 c 128,-1,4
 204 151 204 151 162 301 c 128,-1,5
 120 451 120 451 120 642 c 0,6,7
 120 846 120 846 162 1013.5 c 128,-1,8
 204 1181 204 1181 278.5 1299 c 128,-1,9
 353 1417 353 1417 457.5 1498 c 128,-1,10
 562 1579 562 1579 685 1617.5 c 128,-1,11
 808 1656 808 1656 949 1657 c 0,12,13
 952 1657 952 1657 955 1657 c 0,14,15
 1132 1656 1132 1656 1266 1600 c 0,16,17
 1402 1542 1402 1542 1485.5 1433.5 c 0,18,19
 1569 1326 1569 1326 1608 1174 c 0,20,21
 1642 1043 1642 1043 1642 880 c 0,22,23
 1642 855 1642 855 1641 830 c 0,24,25
 1637 708 1637 708 1609 607.5 c 128,-1,26
 1581 507 1581 507 1538.5 440.5 c 128,-1,27
 1496 374 1496 374 1441 328.5 c 128,-1,28
 1386 283 1386 283 1328.5 263 c 128,-1,29
 1271 243 1271 243 1213 243 c 0,30,31
 1138 243 1138 243 1084 294 c 0,32,33
 1034 341 1034 341 1034 421 c 0,34,35
 1034 427 1034 427 1034 433 c 1,36,37
 1005 350 1005 350 948.5 295 c 128,-1,38
 892 240 892 240 809 237 c 1,39,40
 800 237 800 237 792 237 c 0,41,42
 672 237 672 237 600 328 c 0,43,44
 522 426 522 426 522 596 c 0,45,46
 522 768 522 768 587.5 917 c 128,-1,47
 653 1066 653 1066 762 1152.5 c 128,-1,48
 871 1239 871 1239 995 1239 c 0,49,50
 1072 1239 1072 1239 1138 1187 c 1,51,-1
 1157 1226 l 1,52,-1
 1268 1226 l 1,53,-1
 1165 515 l 1,54,55
 1159 452 1159 452 1159 419 c 0,56,57
 1159 382 1159 382 1176 361 c 0,58,59
 1194 338 1194 338 1234 338 c 0,60,61
 1272 338 1272 338 1309.5 354.5 c 128,-1,62
 1347 371 1347 371 1384.5 408 c 128,-1,63
 1422 445 1422 445 1451.5 499.5 c 128,-1,64
 1481 554 1481 554 1501 636.5 c 128,-1,65
 1521 719 1521 719 1524 819 c 1,66,67
 1525 852 1525 852 1525 884 c 0,68,69
 1524 1202 1524 1202 1388 1364 c 0,70,71
 1239 1540 1239 1540 949 1540 c 0,72,73
 946 1540 946 1540 942 1540 c 0,74,75
 794 1538 794 1538 669 1477.5 c 128,-1,76
 544 1417 544 1417 452.5 1304.5 c 128,-1,77
 361 1192 361 1192 310 1023 c 128,-1,78
 259 854 259 854 259 646 c 0,79,80
 259 469 259 469 298 333 c 128,-1,81
 337 197 337 197 400 114 c 128,-1,82
 463 31 463 31 554 -21.5 c 128,-1,83
 645 -74 645 -74 738 -93.5 c 128,-1,84
 831 -113 831 -113 940 -113 c 0,85,86
 1122 -113 1122 -113 1316 -60 c 1,87,-1
 1348 -170 l 1,88,89
 1108 -230 1108 -230 928 -230 c 0,0,1
832 353 m 1,90,91
 898 357 898 357 952.5 416 c 128,-1,92
 1007 475 1007 475 1038 581 c 1,93,-1
 1112 1098 l 1,94,95
 1068 1125 1068 1125 1016 1125 c 0,96,97
 951 1125 951 1125 888 1086 c 128,-1,98
 825 1047 825 1047 775.5 979.5 c 128,-1,99
 726 912 726 912 695.5 811 c 128,-1,100
 665 710 665 710 665 594 c 0,101,102
 665 466 665 466 712 405 c 0,103,104
 753 352 753 352 814 352 c 0,105,106
 823 352 823 352 832 353 c 1,90,91
EndSplineSet
EndChar

StartChar: A
Encoding: 65 65 36
Width: 977
GlyphClass: 2
Flags: W
AnchorPoint: "Anchor-0" 831 0 basechar 0
LayerCount: 2
UndoRedoHistory
Layer: 1
Undoes
EndUndoes
Redoes
EndRedoes
EndUndoRedoHistory
Fore
SplineSet
56 0 m 1,0,-1
 406 1658 l 1,1,-1
 570 1658 l 1,2,-1
 922 0 l 1,3,-1
 769 0 l 1,4,-1
 687 443 l 1,5,-1
 291 443 l 1,6,-1
 207 0 l 1,7,-1
 56 0 l 1,0,-1
313 557 m 1,8,-1
 666 557 l 1,9,-1
 489 1451 l 1,10,-1
 313 557 l 1,8,-1
EndSplineSet
EndChar

StartChar: B
Encoding: 66 66 37
Width: 1027
GlyphClass: 2
Flags: W
LayerCount: 2
UndoRedoHistory
Layer: 1
Undoes
EndUndoes
Redoes
EndRedoes
EndUndoRedoHistory
Fore
SplineSet
144 0 m 1,0,-1
 144 1658 l 1,1,-1
 500 1658 l 2,2,3
 717 1658 717 1658 812 1551 c 128,-1,4
 907 1444 907 1444 907 1245 c 0,5,6
 907 1159 907 1159 889 1089.5 c 128,-1,7
 871 1020 871 1020 822 965 c 128,-1,8
 773 910 773 910 696 894 c 1,9,10
 766 875 766 875 816.5 833 c 128,-1,11
 867 791 867 791 894.5 733.5 c 128,-1,12
 922 676 922 676 934 614 c 128,-1,13
 946 552 946 552 946 480 c 0,14,15
 946 396 946 396 935.5 328 c 128,-1,16
 925 260 925 260 898 197.5 c 128,-1,17
 871 135 871 135 827.5 92.5 c 128,-1,18
 784 50 784 50 715 25 c 128,-1,19
 646 0 646 0 555 0 c 2,20,-1
 144 0 l 1,0,-1
301 117 m 1,21,-1
 526 117 l 2,22,23
 681 117 681 117 738 201 c 128,-1,24
 795 285 795 285 795 479 c 0,25,26
 795 823 795 823 528 823 c 2,27,-1
 301 823 l 1,28,-1
 301 117 l 1,21,-1
301 944 m 1,29,-1
 527 944 l 2,30,31
 660 944 660 944 713 1021 c 128,-1,32
 766 1098 766 1098 766 1245 c 0,33,34
 766 1402 766 1402 698.5 1470 c 128,-1,35
 631 1538 631 1538 450 1538 c 2,36,-1
 301 1538 l 1,37,-1
 301 944 l 1,29,-1
EndSplineSet
EndChar

StartChar: C
Encoding: 67 67 38
Width: 1021
GlyphClass: 2
Flags: W
AnchorPoint: "Anchor-1" 480 0 basechar 0
LayerCount: 2
UndoRedoHistory
Layer: 1
Undoes
EndUndoes
Redoes
EndRedoes
EndUndoRedoHistory
Fore
SplineSet
531 -21 m 0,0,1
 433 -21 433 -21 358.5 6 c 128,-1,2
 284 33 284 33 237.5 78 c 128,-1,3
 191 123 191 123 162 191 c 128,-1,4
 133 259 133 259 122 333 c 128,-1,5
 111 407 111 407 111 499 c 2,6,-1
 111 1158 l 2,7,8
 111 1254 111 1254 122.5 1329.5 c 128,-1,9
 134 1405 134 1405 163.5 1471.5 c 128,-1,10
 193 1538 193 1538 240 1582 c 128,-1,11
 287 1626 287 1626 360.5 1651 c 128,-1,12
 434 1676 434 1676 531 1676 c 0,13,14
 640 1676 640 1676 717 1643.5 c 128,-1,15
 794 1611 794 1611 839 1548 c 128,-1,16
 884 1485 884 1485 904 1401 c 128,-1,17
 924 1317 924 1317 924 1205 c 2,18,-1
 924 1103 l 1,19,-1
 776 1103 l 1,20,-1
 776 1200 l 2,21,22
 776 1288 776 1288 767 1347 c 128,-1,23
 758 1406 758 1406 732.5 1455.5 c 128,-1,24
 707 1505 707 1505 657.5 1528.5 c 128,-1,25
 608 1552 608 1552 532 1552 c 0,26,27
 450 1552 450 1552 396.5 1526 c 128,-1,28
 343 1500 343 1500 316 1447 c 128,-1,29
 289 1394 289 1394 279 1331.5 c 128,-1,30
 269 1269 269 1269 269 1178 c 2,31,-1
 269 474 l 2,32,33
 269 281 269 281 326.5 193 c 128,-1,34
 384 105 384 105 532 105 c 0,35,36
 593 105 593 105 637 122.5 c 128,-1,37
 681 140 681 140 707.5 169 c 128,-1,38
 734 198 734 198 749.5 245.5 c 128,-1,39
 765 293 765 293 770.5 343.5 c 128,-1,40
 776 394 776 394 776 464 c 2,41,-1
 776 572 l 1,42,-1
 924 572 l 1,43,-1
 924 475 l 2,44,45
 924 384 924 384 913 311.5 c 128,-1,46
 902 239 902 239 874.5 175 c 128,-1,47
 847 111 847 111 803 69 c 128,-1,48
 759 27 759 27 690.5 3 c 128,-1,49
 622 -21 622 -21 531 -21 c 0,0,1
EndSplineSet
EndChar

StartChar: D
Encoding: 68 68 39
Width: 1067
GlyphClass: 2
Flags: W
LayerCount: 2
UndoRedoHistory
Layer: 1
Undoes
EndUndoes
Redoes
EndRedoes
EndUndoRedoHistory
Fore
SplineSet
301 117 m 1,0,-1
 510 117 l 2,1,2
 587 117 587 117 640.5 138.5 c 128,-1,3
 694 160 694 160 724.5 193.5 c 128,-1,4
 755 227 755 227 772 285 c 128,-1,5
 789 343 789 343 793.5 398.5 c 128,-1,6
 798 454 798 454 798 536 c 2,7,-1
 798 1155 l 2,8,9
 798 1235 798 1235 791.5 1291 c 128,-1,10
 785 1347 785 1347 766.5 1396.5 c 128,-1,11
 748 1446 748 1446 715.5 1475.5 c 128,-1,12
 683 1505 683 1505 630.5 1521.5 c 128,-1,13
 578 1538 578 1538 505 1538 c 2,14,-1
 301 1538 l 1,15,-1
 301 117 l 1,0,-1
144 0 m 1,16,-1
 144 1658 l 1,17,-1
 507 1658 l 2,18,19
 608 1658 608 1658 685.5 1635 c 128,-1,20
 763 1612 763 1612 814 1571 c 128,-1,21
 865 1530 865 1530 897 1468 c 128,-1,22
 929 1406 929 1406 942.5 1334 c 128,-1,23
 956 1262 956 1262 956 1171 c 2,24,-1
 956 512 l 2,25,26
 956 391 956 391 934 300 c 128,-1,27
 912 209 912 209 862 140 c 128,-1,28
 812 71 812 71 726.5 35.5 c 128,-1,29
 641 0 641 0 519 0 c 2,30,-1
 144 0 l 1,16,-1
EndSplineSet
EndChar

StartChar: E
Encoding: 69 69 40
Width: 816
GlyphClass: 2
Flags: W
AnchorPoint: "Anchor-0" 511 0 basechar 0
LayerCount: 2
UndoRedoHistory
Layer: 1
Undoes
EndUndoes
Redoes
EndRedoes
EndUndoRedoHistory
Fore
SplineSet
144 0 m 1,0,-1
 144 1658 l 1,1,-1
 743 1658 l 1,2,-1
 743 1538 l 1,3,-1
 301 1538 l 1,4,-1
 301 917 l 1,5,-1
 663 917 l 1,6,-1
 663 801 l 1,7,-1
 301 801 l 1,8,-1
 301 117 l 1,9,-1
 748 117 l 1,10,-1
 748 0 l 1,11,-1
 144 0 l 1,0,-1
EndSplineSet
EndChar

StartChar: F
Encoding: 70 70 41
Width: 790
GlyphClass: 2
Flags: W
LayerCount: 2
UndoRedoHistory
Layer: 1
Undoes
EndUndoes
Redoes
EndRedoes
EndUndoRedoHistory
Fore
SplineSet
144 0 m 1,0,-1
 144 1658 l 1,1,-1
 742 1658 l 1,2,-1
 742 1541 l 1,3,-1
 301 1541 l 1,4,-1
 301 918 l 1,5,-1
 668 918 l 1,6,-1
 668 802 l 1,7,-1
 301 802 l 1,8,-1
 301 0 l 1,9,-1
 144 0 l 1,0,-1
EndSplineSet
EndChar

StartChar: G
Encoding: 71 71 42
Width: 1064
GlyphClass: 2
Flags: W
LayerCount: 2
UndoRedoHistory
Layer: 1
Undoes
EndUndoes
Redoes
EndRedoes
EndUndoRedoHistory
Fore
SplineSet
520 -22 m 0,0,1
 405 -22 405 -22 324 15 c 128,-1,2
 243 52 243 52 197 123.5 c 128,-1,3
 151 195 151 195 131 288 c 128,-1,4
 111 381 111 381 111 505 c 2,5,-1
 111 1153 l 2,6,7
 111 1279 111 1279 130.5 1370.5 c 128,-1,8
 150 1462 150 1462 196 1533 c 128,-1,9
 242 1604 242 1604 325.5 1640 c 128,-1,10
 409 1676 409 1676 530 1676 c 0,11,12
 745 1676 745 1676 838 1556.5 c 128,-1,13
 931 1437 931 1437 931 1199 c 2,14,-1
 931 1140 l 1,15,-1
 784 1140 l 1,16,-1
 784 1199 l 2,17,18
 784 1385 784 1385 731 1468.5 c 128,-1,19
 678 1552 678 1552 532 1552 c 0,20,21
 465 1552 465 1552 417 1532.5 c 128,-1,22
 369 1513 369 1513 340.5 1481.5 c 128,-1,23
 312 1450 312 1450 295.5 1398.5 c 128,-1,24
 279 1347 279 1347 273.5 1294 c 128,-1,25
 268 1241 268 1241 268 1168 c 2,26,-1
 268 487 l 2,27,28
 268 391 268 391 279.5 324.5 c 128,-1,29
 291 258 291 258 320 206.5 c 128,-1,30
 349 155 349 155 402.5 130 c 128,-1,31
 456 105 456 105 535 105 c 0,32,33
 681 105 681 105 737.5 200 c 128,-1,34
 794 295 794 295 794 491 c 2,35,-1
 794 687 l 1,36,-1
 550 687 l 1,37,-1
 550 802 l 1,38,-1
 938 802 l 1,39,-1
 938 0 l 1,40,-1
 838 0 l 1,41,-1
 819 188 l 1,42,43
 750 -22 750 -22 520 -22 c 0,0,1
EndSplineSet
EndChar

StartChar: H
Encoding: 72 72 43
Width: 1124
GlyphClass: 2
Flags: W
LayerCount: 2
UndoRedoHistory
Layer: 1
Undoes
EndUndoes
Redoes
EndRedoes
EndUndoRedoHistory
Fore
SplineSet
144 0 m 1,0,-1
 144 1658 l 1,1,-1
 301 1658 l 1,2,-1
 301 923 l 1,3,-1
 823 923 l 1,4,-1
 823 1658 l 1,5,-1
 980 1658 l 1,6,-1
 980 0 l 1,7,-1
 823 0 l 1,8,-1
 823 808 l 1,9,-1
 301 808 l 1,10,-1
 301 0 l 1,11,-1
 144 0 l 1,0,-1
EndSplineSet
EndChar

StartChar: I
Encoding: 73 73 44
Width: 454
GlyphClass: 2
Flags: W
AnchorPoint: "Anchor-0" 220 0 basechar 0
LayerCount: 2
UndoRedoHistory
Layer: 1
Undoes
EndUndoes
Redoes
EndRedoes
EndUndoRedoHistory
Fore
SplineSet
151 0 m 1,0,-1
 151 1658 l 1,1,-1
 305 1658 l 1,2,-1
 305 0 l 1,3,-1
 151 0 l 1,0,-1
EndSplineSet
EndChar

StartChar: J
Encoding: 74 74 45
Width: 571
GlyphClass: 2
Flags: W
AnchorPoint: "Anchor-2" 338 1658 basechar 0
LayerCount: 2
UndoRedoHistory
Layer: 1
Undoes
EndUndoes
Redoes
EndRedoes
EndUndoRedoHistory
Fore
SplineSet
16 -73 m 1,0,-1
 16 45 l 1,1,2
 75 45 75 45 113.5 49 c 128,-1,3
 152 53 152 53 182 66.5 c 128,-1,4
 212 80 212 80 228 98 c 128,-1,5
 244 116 244 116 254 151.5 c 128,-1,6
 264 187 264 187 266.5 227.5 c 128,-1,7
 269 268 269 268 269 334 c 2,8,-1
 269 1658 l 1,9,-1
 426 1658 l 1,10,-1
 426 324 l 2,11,12
 426 237 426 237 418 178 c 128,-1,13
 410 119 410 119 389.5 68 c 128,-1,14
 369 17 369 17 332 -12 c 128,-1,15
 295 -41 295 -41 236 -57 c 128,-1,16
 177 -73 177 -73 93 -73 c 2,17,-1
 16 -73 l 1,0,-1
EndSplineSet
EndChar

StartChar: K
Encoding: 75 75 46
Width: 969
GlyphClass: 2
Flags: W
LayerCount: 2
UndoRedoHistory
Layer: 1
Undoes
EndUndoes
Redoes
EndRedoes
EndUndoRedoHistory
Fore
SplineSet
144 0 m 1,0,-1
 144 1658 l 1,1,-1
 301 1658 l 1,2,-1
 301 784 l 1,3,-1
 744 1658 l 1,4,-1
 894 1658 l 1,5,-1
 551 946 l 1,6,-1
 967 0 l 1,7,-1
 812 0 l 1,8,-1
 435 864 l 1,9,-1
 301 616 l 1,10,-1
 301 0 l 1,11,-1
 144 0 l 1,0,-1
EndSplineSet
EndChar

StartChar: L
Encoding: 76 76 47
Width: 783
GlyphClass: 2
Flags: W
LayerCount: 2
UndoRedoHistory
Layer: 1
Undoes
EndUndoes
Redoes
EndRedoes
EndUndoRedoHistory
Fore
SplineSet
144 0 m 1,0,-1
 144 1658 l 1,1,-1
 301 1658 l 1,2,-1
 301 117 l 1,3,-1
 773 117 l 1,4,-1
 773 0 l 1,5,-1
 144 0 l 1,0,-1
EndSplineSet
EndChar

StartChar: M
Encoding: 77 77 48
Width: 1316
GlyphClass: 2
Flags: W
LayerCount: 2
UndoRedoHistory
Layer: 1
Undoes
EndUndoes
Redoes
EndRedoes
EndUndoRedoHistory
Fore
SplineSet
130 0 m 1,0,-1
 173 1658 l 1,1,-1
 326 1658 l 1,2,-1
 656 219 l 1,3,-1
 988 1658 l 1,4,-1
 1145 1658 l 1,5,-1
 1186 0 l 1,6,-1
 1056 0 l 1,7,-1
 1024 1322 l 1,8,-1
 707 0 l 1,9,-1
 607 0 l 1,10,-1
 294 1319 l 1,11,-1
 262 0 l 1,12,-1
 130 0 l 1,0,-1
EndSplineSet
EndChar

StartChar: N
Encoding: 78 78 49
Width: 1065
GlyphClass: 2
Flags: W
LayerCount: 2
UndoRedoHistory
Layer: 1
Undoes
EndUndoes
Redoes
EndRedoes
EndUndoRedoHistory
Fore
SplineSet
144 0 m 1,0,-1
 144 1658 l 1,1,-1
 259 1658 l 1,2,-1
 787 371 l 1,3,-1
 787 1658 l 1,4,-1
 921 1658 l 1,5,-1
 921 0 l 1,6,-1
 811 0 l 1,7,-1
 279 1302 l 1,8,-1
 279 0 l 1,9,-1
 144 0 l 1,0,-1
EndSplineSet
EndChar

StartChar: O
Encoding: 79 79 50
Width: 1074
GlyphClass: 2
Flags: W
AnchorPoint: "Anchor-0" 581 0 basechar 0
LayerCount: 2
UndoRedoHistory
Layer: 1
Undoes
EndUndoes
Redoes
EndRedoes
EndUndoRedoHistory
Fore
SplineSet
537 105 m 128,-1,1
 617 105 617 105 671 129.5 c 128,-1,2
 725 154 725 154 753.5 203 c 128,-1,3
 782 252 782 252 793.5 312 c 128,-1,4
 805 372 805 372 805 456 c 2,5,-1
 805 1206 l 2,6,7
 805 1290 805 1290 793.5 1349.5 c 128,-1,8
 782 1409 782 1409 753.5 1457 c 128,-1,9
 725 1505 725 1505 671 1528.5 c 128,-1,10
 617 1552 617 1552 537 1552 c 128,-1,11
 457 1552 457 1552 403 1528.5 c 128,-1,12
 349 1505 349 1505 320.5 1457 c 128,-1,13
 292 1409 292 1409 280.5 1349.5 c 128,-1,14
 269 1290 269 1290 269 1206 c 2,15,-1
 269 456 l 2,16,17
 269 372 269 372 280.5 312 c 128,-1,18
 292 252 292 252 320.5 203 c 128,-1,19
 349 154 349 154 403 129.5 c 128,-1,0
 457 105 457 105 537 105 c 128,-1,1
537 -21 m 0,20,21
 417 -21 417 -21 332.5 15.5 c 128,-1,22
 248 52 248 52 200.5 122.5 c 128,-1,23
 153 193 153 193 132 282.5 c 128,-1,24
 111 372 111 372 111 490 c 2,25,-1
 111 1178 l 2,26,27
 111 1295 111 1295 132.5 1383 c 128,-1,28
 154 1471 154 1471 202.5 1538.5 c 128,-1,29
 251 1606 251 1606 335 1641 c 128,-1,30
 419 1676 419 1676 537 1676 c 128,-1,31
 655 1676 655 1676 739 1641 c 128,-1,32
 823 1606 823 1606 871.5 1538 c 128,-1,33
 920 1470 920 1470 941.5 1382 c 128,-1,34
 963 1294 963 1294 963 1178 c 2,35,-1
 963 488 l 2,36,37
 963 395 963 395 950.5 320 c 128,-1,38
 938 245 938 245 907.5 180 c 128,-1,39
 877 115 877 115 829 71.5 c 128,-1,40
 781 28 781 28 707 3.5 c 128,-1,41
 633 -21 633 -21 537 -21 c 0,20,21
EndSplineSet
EndChar

StartChar: P
Encoding: 80 80 51
Width: 990
GlyphClass: 2
Flags: W
LayerCount: 2
UndoRedoHistory
Layer: 1
Undoes
EndUndoes
Redoes
EndRedoes
EndUndoRedoHistory
Fore
SplineSet
144 0 m 1,0,-1
 144 1658 l 1,1,-1
 542 1658 l 2,2,3
 651 1658 651 1658 729 1627 c 128,-1,4
 807 1596 807 1596 852 1536.5 c 128,-1,5
 897 1477 897 1477 917 1399 c 128,-1,6
 937 1321 937 1321 937 1219 c 0,7,8
 937 1127 937 1127 915.5 1050.5 c 128,-1,9
 894 974 894 974 848.5 913.5 c 128,-1,10
 803 853 803 853 725.5 819 c 128,-1,11
 648 785 648 785 544 785 c 2,12,-1
 301 785 l 1,13,-1
 301 0 l 1,14,-1
 144 0 l 1,0,-1
301 901 m 1,15,-1
 500 901 l 2,16,17
 653 901 653 901 718.5 971.5 c 128,-1,18
 784 1042 784 1042 784 1218 c 0,19,20
 784 1409 784 1409 726 1475.5 c 128,-1,21
 668 1542 668 1542 502 1542 c 2,22,-1
 301 1542 l 1,23,-1
 301 901 l 1,15,-1
EndSplineSet
EndChar

StartChar: Q
Encoding: 81 81 52
Width: 1085
GlyphClass: 2
Flags: W
LayerCount: 2
UndoRedoHistory
Layer: 1
Undoes
EndUndoes
Redoes
EndRedoes
EndUndoRedoHistory
Fore
SplineSet
884 -325 m 1,0,1
 770 -270 770 -270 594 -18 c 1,2,3
 568 -21 568 -21 542 -21 c 0,4,5
 422 -21 422 -21 336.5 15.5 c 128,-1,6
 251 52 251 52 202.5 122.5 c 128,-1,7
 154 193 154 193 132.5 282.5 c 128,-1,8
 111 372 111 372 111 490 c 2,9,-1
 111 1178 l 2,10,11
 111 1294 111 1294 133.5 1383 c 128,-1,12
 156 1472 156 1472 205.5 1539 c 128,-1,13
 255 1606 255 1606 339.5 1641 c 128,-1,14
 424 1676 424 1676 542 1676 c 128,-1,15
 660 1676 660 1676 744.5 1641 c 128,-1,16
 829 1606 829 1606 878.5 1538.5 c 128,-1,17
 928 1471 928 1471 950.5 1382.5 c 128,-1,18
 973 1294 973 1294 973 1178 c 2,19,-1
 973 488 l 2,20,21
 973 395 973 395 959.5 320 c 128,-1,22
 946 245 946 245 916.5 181.5 c 128,-1,23
 887 118 887 118 835.5 73.5 c 128,-1,24
 784 29 784 29 713 6 c 1,25,26
 757 -51 757 -51 812 -111 c 128,-1,27
 867 -171 867 -171 904 -195 c 1,28,-1
 884 -325 l 1,0,1
542 105 m 128,-1,30
 622 105 622 105 676.5 129.5 c 128,-1,31
 731 154 731 154 761 202.5 c 128,-1,32
 791 251 791 251 803 311.5 c 128,-1,33
 815 372 815 372 815 456 c 2,34,-1
 815 1206 l 2,35,36
 815 1290 815 1290 803 1349.5 c 128,-1,37
 791 1409 791 1409 761 1457 c 128,-1,38
 731 1505 731 1505 676.5 1528.5 c 128,-1,39
 622 1552 622 1552 542 1552 c 128,-1,40
 462 1552 462 1552 407.5 1528.5 c 128,-1,41
 353 1505 353 1505 323 1457 c 128,-1,42
 293 1409 293 1409 281 1349.5 c 128,-1,43
 269 1290 269 1290 269 1206 c 2,44,-1
 269 456 l 2,45,46
 269 372 269 372 281 311.5 c 128,-1,47
 293 251 293 251 323 202.5 c 128,-1,48
 353 154 353 154 407.5 129.5 c 128,-1,29
 462 105 462 105 542 105 c 128,-1,30
EndSplineSet
EndChar

StartChar: R
Encoding: 82 82 53
Width: 1049
GlyphClass: 2
Flags: W
LayerCount: 2
UndoRedoHistory
Layer: 1
Undoes
EndUndoes
Redoes
EndRedoes
EndUndoRedoHistory
Fore
SplineSet
144 0 m 1,0,-1
 144 1658 l 1,1,-1
 521 1658 l 2,2,3
 742 1658 742 1658 837 1551.5 c 128,-1,4
 932 1445 932 1445 932 1239 c 0,5,6
 932 896 932 896 701 848 c 1,7,-1
 958 0 l 1,8,-1
 804 0 l 1,9,-1
 561 815 l 1,10,-1
 301 815 l 1,11,-1
 301 0 l 1,12,-1
 144 0 l 1,0,-1
301 930 m 1,13,-1
 512 930 l 2,14,15
 662 930 662 930 721 1003.5 c 128,-1,16
 780 1077 780 1077 780 1239 c 0,17,18
 780 1399 780 1399 724 1470 c 128,-1,19
 668 1541 668 1541 517 1541 c 2,20,-1
 301 1541 l 1,21,-1
 301 930 l 1,13,-1
EndSplineSet
EndChar

StartChar: S
Encoding: 83 83 54
Width: 942
GlyphClass: 2
Flags: W
AnchorPoint: "Anchor-1" 470 0 basechar 0
LayerCount: 2
UndoRedoHistory
Layer: 1
Undoes
EndUndoes
Redoes
EndRedoes
EndUndoRedoHistory
Fore
SplineSet
499 -20 m 0,0,1
 302 -20 302 -20 200.5 98.5 c 128,-1,2
 99 217 99 217 83 430 c 1,3,-1
 222 470 l 1,4,5
 229 404 229 404 239.5 353.5 c 128,-1,6
 250 303 250 303 270.5 254.5 c 128,-1,7
 291 206 291 206 320.5 175 c 128,-1,8
 350 144 350 144 395.5 125 c 128,-1,9
 441 106 441 106 500 106 c 0,10,11
 734 106 734 106 734 346 c 0,12,13
 734 399 734 399 720.5 445.5 c 128,-1,14
 707 492 707 492 677.5 536.5 c 128,-1,15
 648 581 648 581 615.5 617 c 128,-1,16
 583 653 583 653 531 704 c 2,17,-1
 237 986 l 2,18,19
 87 1130 87 1130 87 1320 c 0,20,21
 87 1489 87 1489 187.5 1582 c 128,-1,22
 288 1675 288 1675 460 1676 c 0,23,24
 464 1676 464 1676 467 1676 c 0,25,26
 648 1676 648 1676 744 1578 c 0,27,28
 842 1478 842 1478 858 1255 c 1,29,-1
 726 1221 l 1,30,31
 712 1389 712 1389 654 1473 c 0,32,33
 598 1553 598 1553 474 1553 c 0,34,35
 468 1553 468 1553 462 1553 c 0,36,37
 353 1550 353 1550 290.5 1496 c 128,-1,38
 228 1442 228 1442 228 1333 c 0,39,40
 228 1265 228 1265 254.5 1209.5 c 128,-1,41
 281 1154 281 1154 345 1092 c 2,42,-1
 637 815 l 2,43,44
 750 707 750 707 815 596.5 c 128,-1,45
 880 486 880 486 880 357 c 0,46,47
 880 176 880 176 775.5 78 c 128,-1,48
 671 -20 671 -20 499 -20 c 0,0,1
EndSplineSet
EndChar

StartChar: T
Encoding: 84 84 55
Width: 795
GlyphClass: 2
Flags: W
AnchorPoint: "Anchor-1" 380 0 basechar 0
LayerCount: 2
UndoRedoHistory
Layer: 1
Undoes
EndUndoes
Redoes
EndRedoes
EndUndoRedoHistory
Fore
SplineSet
323 0 m 1,0,-1
 323 1538 l 1,1,-1
 -10 1538 l 1,2,-1
 -10 1658 l 1,3,-1
 805 1658 l 1,4,-1
 805 1538 l 1,5,-1
 480 1538 l 1,6,-1
 480 0 l 1,7,-1
 323 0 l 1,0,-1
EndSplineSet
EndChar

StartChar: U
Encoding: 85 85 56
Width: 1100
GlyphClass: 2
Flags: W
AnchorPoint: "Anchor-0" 581 0 basechar 0
LayerCount: 2
UndoRedoHistory
Layer: 1
Undoes
EndUndoes
Redoes
EndRedoes
EndUndoRedoHistory
Fore
SplineSet
551 -21 m 0,0,1
 452 -21 452 -21 377 2 c 128,-1,2
 302 25 302 25 255 65.5 c 128,-1,3
 208 106 208 106 179 167 c 128,-1,4
 150 228 150 228 138.5 296.5 c 128,-1,5
 127 365 127 365 127 453 c 2,6,-1
 127 1658 l 1,7,-1
 278 1658 l 1,8,-1
 278 448 l 2,9,10
 278 386 278 386 285 337 c 128,-1,11
 292 288 292 288 310 243.5 c 128,-1,12
 328 199 328 199 358 169.5 c 128,-1,13
 388 140 388 140 437 122.5 c 128,-1,14
 486 105 486 105 551 105 c 0,15,16
 629 105 629 105 683.5 130.5 c 128,-1,17
 738 156 738 156 767.5 204.5 c 128,-1,18
 797 253 797 253 810 312 c 128,-1,19
 823 371 823 371 823 448 c 2,20,-1
 823 1658 l 1,21,-1
 973 1658 l 1,22,-1
 973 453 l 2,23,24
 973 366 973 366 961 297 c 128,-1,25
 949 228 949 228 919 167 c 128,-1,26
 889 106 889 106 841.5 65.5 c 128,-1,27
 794 25 794 25 720.5 2 c 128,-1,28
 647 -21 647 -21 551 -21 c 0,0,1
EndSplineSet
EndChar

StartChar: V
Encoding: 86 86 57
Width: 1003
GlyphClass: 2
Flags: W
LayerCount: 2
UndoRedoHistory
Layer: 1
Undoes
EndUndoes
Redoes
EndRedoes
EndUndoRedoHistory
Fore
SplineSet
438 0 m 1,0,-1
 50 1658 l 1,1,-1
 199 1658 l 1,2,-1
 512 286 l 1,3,-1
 807 1658 l 1,4,-1
 954 1658 l 1,5,-1
 580 0 l 1,6,-1
 438 0 l 1,0,-1
EndSplineSet
EndChar

StartChar: W
Encoding: 87 87 58
Width: 1464
GlyphClass: 2
Flags: W
LayerCount: 2
UndoRedoHistory
Layer: 1
Undoes
EndUndoes
Redoes
EndRedoes
EndUndoRedoHistory
Fore
SplineSet
353 0 m 1,0,-1
 71 1657 l 1,1,-1
 205 1658 l 1,2,-1
 423 312 l 1,3,-1
 674 1633 l 1,4,-1
 803 1633 l 1,5,-1
 1058 310 l 1,6,-1
 1261 1658 l 1,7,-1
 1393 1658 l 1,8,-1
 1125 0 l 1,9,-1
 1003 0 l 1,10,-1
 740 1369 l 1,11,-1
 479 0 l 1,12,-1
 353 0 l 1,0,-1
EndSplineSet
EndChar

StartChar: X
Encoding: 88 88 59
Width: 949
GlyphClass: 2
Flags: W
LayerCount: 2
UndoRedoHistory
Layer: 1
Undoes
EndUndoes
Redoes
EndRedoes
EndUndoRedoHistory
Fore
SplineSet
29 0 m 1,0,-1
 387 864 l 1,1,-1
 33 1659 l 1,2,-1
 177 1659 l 1,3,-1
 475 997 l 1,4,-1
 760 1659 l 1,5,-1
 910 1659 l 1,6,-1
 542 845 l 1,7,-1
 920 0 l 1,8,-1
 772 0 l 1,9,-1
 458 700 l 1,10,-1
 179 0 l 1,11,-1
 29 0 l 1,0,-1
EndSplineSet
EndChar

StartChar: Y
Encoding: 89 89 60
AltUni2: 0004ae.ffffffff.0
Width: 961
GlyphClass: 2
Flags: W
LayerCount: 2
UndoRedoHistory
Layer: 1
Undoes
EndUndoes
Redoes
EndRedoes
EndUndoRedoHistory
Fore
SplineSet
409 0 m 1,0,-1
 409 551 l 1,1,-1
 35 1658 l 1,2,-1
 188 1658 l 1,3,-1
 486 737 l 1,4,-1
 773 1658 l 1,5,-1
 926 1658 l 1,6,-1
 561 551 l 1,7,-1
 561 0 l 1,8,-1
 409 0 l 1,0,-1
EndSplineSet
EndChar

StartChar: Z
Encoding: 90 90 61
Width: 834
GlyphClass: 2
Flags: W
LayerCount: 2
UndoRedoHistory
Layer: 1
Undoes
EndUndoes
Redoes
EndRedoes
EndUndoRedoHistory
Fore
SplineSet
69 0 m 1,0,-1
 69 118 l 1,1,-1
 625 1541 l 1,2,-1
 114 1541 l 1,3,-1
 114 1658 l 1,4,-1
 792 1658 l 1,5,-1
 792 1577 l 1,6,-1
 223 117 l 1,7,-1
 794 117 l 1,8,-1
 794 0 l 1,9,-1
 69 0 l 1,0,-1
EndSplineSet
EndChar

StartChar: bracketleft
Encoding: 91 91 62
Width: 619
GlyphClass: 2
Flags: W
LayerCount: 2
UndoRedoHistory
Layer: 1
Undoes
EndUndoes
Redoes
EndRedoes
EndUndoRedoHistory
Fore
SplineSet
144 -327 m 1,0,-1
 144 1658 l 1,1,-1
 501 1658 l 1,2,-1
 501 1575 l 1,3,-1
 295 1575 l 1,4,-1
 295 -243 l 1,5,-1
 501 -243 l 1,6,-1
 501 -327 l 1,7,-1
 144 -327 l 1,0,-1
EndSplineSet
EndChar

StartChar: backslash
Encoding: 92 92 63
Width: 705
GlyphClass: 2
Flags: W
LayerCount: 2
UndoRedoHistory
Layer: 1
Undoes
EndUndoes
Redoes
EndRedoes
EndUndoRedoHistory
Fore
SplineSet
522 0 m 1,0,-1
 50 1658 l 1,1,-1
 182 1658 l 1,2,-1
 654 0 l 1,3,-1
 522 0 l 1,0,-1
EndSplineSet
EndChar

StartChar: bracketright
Encoding: 93 93 64
Width: 584
GlyphClass: 2
Flags: W
LayerCount: 2
UndoRedoHistory
Layer: 1
Undoes
EndUndoes
Redoes
EndRedoes
EndUndoRedoHistory
Fore
SplineSet
83 -326 m 1,0,-1
 83 -243 l 1,1,-1
 289 -243 l 1,2,-1
 289 1574 l 1,3,-1
 83 1574 l 1,4,-1
 83 1658 l 1,5,-1
 440 1658 l 1,6,-1
 440 -326 l 1,7,-1
 83 -326 l 1,0,-1
EndSplineSet
EndChar

StartChar: asciicircum
Encoding: 94 94 65
Width: 808
GlyphClass: 2
Flags: W
LayerCount: 2
UndoRedoHistory
Layer: 1
Undoes
EndUndoes
Redoes
EndRedoes
EndUndoRedoHistory
Fore
SplineSet
59 1047 m 1,0,-1
 326 1658 l 1,1,-1
 483 1658 l 1,2,-1
 749 1047 l 1,3,-1
 614 1047 l 1,4,-1
 404 1554 l 1,5,-1
 195 1047 l 1,6,-1
 59 1047 l 1,0,-1
EndSplineSet
EndChar

StartChar: underscore
Encoding: 95 95 66
Width: 681
GlyphClass: 2
Flags: W
LayerCount: 2
UndoRedoHistory
Layer: 1
Undoes
EndUndoes
Redoes
EndRedoes
EndUndoRedoHistory
Fore
SplineSet
0 -218 m 1,0,-1
 0 -100 l 1,1,-1
 681 -100 l 1,2,-1
 681 -218 l 1,3,-1
 0 -218 l 1,0,-1
EndSplineSet
EndChar

StartChar: grave
Encoding: 96 96 67
Width: 482
GlyphClass: 2
Flags: W
LayerCount: 2
UndoRedoHistory
Layer: 1
Undoes
EndUndoes
Redoes
EndRedoes
EndUndoRedoHistory
Fore
SplineSet
296 1258 m 1,0,-1
 108 1658 l 1,1,-1
 259 1658 l 1,2,-1
 373 1258 l 1,3,-1
 296 1258 l 1,0,-1
EndSplineSet
EndChar

StartChar: a
Encoding: 97 97 68
Width: 813
GlyphClass: 2
Flags: W
AnchorPoint: "Anchor-0" 632 0 basechar 0
LayerCount: 2
UndoRedoHistory
Layer: 1
Undoes
EndUndoes
Redoes
EndRedoes
EndUndoRedoHistory
Fore
SplineSet
319 -19 m 0,0,1
 215 -19 215 -19 148 57.5 c 128,-1,2
 81 134 81 134 81 247 c 0,3,4
 81 306 81 306 91 352.5 c 128,-1,5
 101 399 101 399 128.5 440 c 128,-1,6
 156 481 156 481 188.5 512.5 c 128,-1,7
 221 544 221 544 281 579.5 c 128,-1,8
 341 615 341 615 401 645 c 128,-1,9
 461 675 461 675 558 718 c 1,10,-1
 558 803 l 2,11,12
 558 966 558 966 527 1027.5 c 128,-1,13
 496 1089 496 1089 411 1089 c 0,14,15
 247 1089 247 1089 247 886 c 2,16,-1
 247 843 l 1,17,-1
 99 848 l 1,18,19
 99 877 99 877 100 884 c 0,20,21
 107 1051 107 1051 187 1126.5 c 128,-1,22
 267 1202 267 1202 419 1202 c 0,23,24
 576 1202 576 1202 642 1109 c 128,-1,25
 708 1016 708 1016 708 811 c 2,26,-1
 708 235 l 2,27,28
 708 92 708 92 719 0 c 1,29,-1
 586 0 l 1,30,-1
 564 164 l 1,31,32
 537 86 537 86 472.5 33.5 c 128,-1,33
 408 -19 408 -19 319 -19 c 0,0,1
368 110 m 0,34,35
 428 110 428 110 478.5 151.5 c 128,-1,36
 529 193 529 193 558 250 c 1,37,-1
 558 619 l 1,38,39
 552 616 552 616 539 609 c 0,40,41
 490 583 490 583 464 569 c 128,-1,42
 438 555 438 555 401.5 534 c 128,-1,43
 365 513 365 513 347 499 c 128,-1,44
 329 485 329 485 305.5 465 c 128,-1,45
 282 445 282 445 271.5 427.5 c 128,-1,46
 261 410 261 410 250 387 c 128,-1,47
 239 364 239 364 235 338.5 c 128,-1,48
 231 313 231 313 231 282 c 0,49,50
 231 195 231 195 270 152.5 c 128,-1,51
 309 110 309 110 368 110 c 0,34,35
EndSplineSet
EndChar

StartChar: b
Encoding: 98 98 69
Width: 852
GlyphClass: 2
Flags: W
LayerCount: 2
UndoRedoHistory
Layer: 1
Undoes
EndUndoes
Redoes
EndRedoes
EndUndoRedoHistory
Fore
SplineSet
477 -19 m 0,0,1
 360 -19 360 -19 266 94 c 1,2,-1
 266 0 l 1,3,-1
 116 0 l 1,4,-1
 116 1658 l 1,5,-1
 266 1658 l 1,6,-1
 266 1086 l 1,7,8
 360 1202 360 1202 492 1202 c 0,9,10
 558 1202 558 1202 607.5 1175 c 128,-1,11
 657 1148 657 1148 685.5 1105 c 128,-1,12
 714 1062 714 1062 731.5 998 c 128,-1,13
 749 934 749 934 754.5 871.5 c 128,-1,14
 760 809 760 809 760 730 c 2,15,-1
 760 480 l 2,16,17
 760 386 760 386 752 312 c 128,-1,18
 744 238 744 238 724 174.5 c 128,-1,19
 704 111 704 111 672 69.5 c 128,-1,20
 640 28 640 28 591 4.5 c 128,-1,21
 542 -19 542 -19 477 -19 c 0,0,1
452 100 m 0,22,23
 547 100 547 100 578.5 188.5 c 128,-1,24
 610 277 610 277 610 478 c 2,25,-1
 610 730 l 2,26,27
 610 920 610 920 578.5 1002 c 128,-1,28
 547 1084 547 1084 450 1084 c 0,29,30
 359 1084 359 1084 266 993 c 1,31,-1
 266 186 l 1,32,33
 348 100 348 100 452 100 c 0,22,23
EndSplineSet
EndChar

StartChar: c
Encoding: 99 99 70
Width: 796
GlyphClass: 2
Flags: W
AnchorPoint: "Anchor-1" 380 0 basechar 0
LayerCount: 2
UndoRedoHistory
Layer: 1
Undoes
EndUndoes
Redoes
EndRedoes
EndUndoRedoHistory
Fore
SplineSet
409 -19 m 0,0,1
 328 -19 328 -19 270 5 c 128,-1,2
 212 29 212 29 178 67.5 c 128,-1,3
 144 106 144 106 124.5 169 c 128,-1,4
 105 232 105 232 98.5 296.5 c 128,-1,5
 92 361 92 361 92 449 c 2,6,-1
 92 725 l 2,7,8
 92 854 92 854 106 939.5 c 128,-1,9
 120 1025 120 1025 155.5 1086 c 128,-1,10
 191 1147 191 1147 252.5 1174.5 c 128,-1,11
 314 1202 314 1202 408 1202 c 0,12,13
 482 1202 482 1202 536 1184 c 128,-1,14
 590 1166 590 1166 623.5 1134.5 c 128,-1,15
 657 1103 657 1103 676.5 1054 c 128,-1,16
 696 1005 696 1005 703.5 950.5 c 128,-1,17
 711 896 711 896 711 823 c 2,18,-1
 711 767 l 1,19,-1
 572 767 l 1,20,-1
 572 823 l 2,21,22
 572 975 572 975 536 1032.5 c 128,-1,23
 500 1090 500 1090 410 1090 c 0,24,25
 308 1090 308 1090 275 1017.5 c 128,-1,26
 242 945 242 945 242 750 c 2,27,-1
 242 418 l 2,28,29
 242 236 242 236 277.5 165 c 128,-1,30
 313 94 313 94 411 94 c 0,31,32
 453 94 453 94 482 106 c 128,-1,33
 511 118 511 118 528.5 139 c 128,-1,34
 546 160 546 160 556 197 c 128,-1,35
 566 234 566 234 569 275.5 c 128,-1,36
 572 317 572 317 572 380 c 2,37,-1
 572 445 l 1,38,-1
 711 445 l 1,39,-1
 711 387 l 2,40,41
 711 309 711 309 704.5 252 c 128,-1,42
 698 195 698 195 678.5 141.5 c 128,-1,43
 659 88 659 88 626.5 54.5 c 128,-1,44
 594 21 594 21 539 1 c 128,-1,45
 484 -19 484 -19 409 -19 c 0,0,1
EndSplineSet
EndChar

StartChar: d
Encoding: 100 100 71
Width: 845
GlyphClass: 2
Flags: W
LayerCount: 2
UndoRedoHistory
Layer: 1
Undoes
EndUndoes
Redoes
EndRedoes
EndUndoRedoHistory
Fore
SplineSet
378 -19 m 1,0,1
 225 -19 225 -19 158.5 96 c 128,-1,2
 92 211 92 211 92 478 c 2,3,-1
 92 697 l 2,4,5
 92 795 92 795 99 869 c 128,-1,6
 106 943 106 943 125 1008 c 128,-1,7
 144 1073 144 1073 175 1114 c 128,-1,8
 206 1155 206 1155 255 1178.5 c 128,-1,9
 304 1202 304 1202 371 1202 c 0,10,11
 488 1201 488 1201 580 1099 c 1,12,-1
 580 1658 l 1,13,-1
 730 1658 l 1,14,-1
 730 0 l 1,15,-1
 580 0 l 1,16,-1
 580 84 l 1,17,18
 490 -18 490 -18 378 -19 c 1,0,1
408 100 m 0,19,20
 495 100 495 100 580 178 c 1,21,-1
 580 1000 l 1,22,23
 490 1084 490 1084 404 1084 c 0,24,25
 309 1084 309 1084 275.5 1004.5 c 128,-1,26
 242 925 242 925 242 745 c 2,27,-1
 242 466 l 2,28,29
 242 272 242 272 276 186 c 128,-1,30
 310 100 310 100 408 100 c 0,19,20
EndSplineSet
EndChar

StartChar: e
Encoding: 101 101 72
Width: 809
GlyphClass: 2
Flags: W
AnchorPoint: "Anchor-0" 471 0 basechar 0
LayerCount: 2
UndoRedoHistory
Layer: 1
Undoes
EndUndoes
Redoes
EndRedoes
EndUndoRedoHistory
Fore
SplineSet
412 -19 m 0,0,1
 242 -19 242 -19 167 86 c 128,-1,2
 92 191 92 191 92 445 c 2,3,-1
 92 744 l 2,4,5
 92 917 92 917 127.5 1018.5 c 128,-1,6
 163 1120 163 1120 231.5 1161 c 128,-1,7
 300 1202 300 1202 413 1202 c 0,8,9
 488 1202 488 1202 541 1182.5 c 128,-1,10
 594 1163 594 1163 629 1127 c 128,-1,11
 664 1091 664 1091 684.5 1029.5 c 128,-1,12
 705 968 705 968 713 893.5 c 128,-1,13
 721 819 721 819 721 714 c 2,14,-1
 720 607 l 1,15,-1
 242 607 l 1,16,-1
 242 430 l 2,17,18
 242 246 242 246 277.5 170 c 128,-1,19
 313 94 313 94 411 94 c 0,20,21
 489 94 489 94 531 143.5 c 128,-1,22
 573 193 573 193 573 323 c 2,23,-1
 573 405 l 1,24,-1
 720 405 l 1,25,-1
 720 339 l 2,26,27
 720 167 720 167 648 74 c 128,-1,28
 576 -19 576 -19 412 -19 c 0,0,1
242 693 m 1,29,-1
 573 693 l 1,30,-1
 573 791 l 2,31,32
 573 853 573 853 570 894 c 128,-1,33
 567 935 567 935 557.5 975.5 c 128,-1,34
 548 1016 548 1016 531 1039 c 128,-1,35
 514 1062 514 1062 484 1076 c 128,-1,36
 454 1090 454 1090 412 1090 c 0,37,38
 317 1090 317 1090 279.5 1024 c 128,-1,39
 242 958 242 958 242 773 c 2,40,-1
 242 693 l 1,29,-1
EndSplineSet
EndChar

StartChar: f
Encoding: 102 102 73
Width: 549
GlyphClass: 2
Flags: W
LayerCount: 2
UndoRedoHistory
Layer: 1
Undoes
EndUndoes
Redoes
EndRedoes
EndUndoRedoHistory
Fore
SplineSet
190 0 m 1,0,-1
 190 1075 l 1,1,-1
 36 1075 l 1,2,-1
 36 1184 l 1,3,-1
 190 1184 l 1,4,-1
 190 1307 l 2,5,6
 190 1356 190 1356 192.5 1391 c 128,-1,7
 195 1426 195 1426 202.5 1463 c 128,-1,8
 210 1500 210 1500 224.5 1524 c 128,-1,9
 239 1548 239 1548 262.5 1568.5 c 128,-1,10
 286 1589 286 1589 322 1598.5 c 128,-1,11
 358 1608 358 1608 406 1608 c 0,12,13
 460 1608 460 1608 527 1595 c 1,14,-1
 527 1482 l 1,15,16
 456 1493 456 1493 443 1493 c 0,17,18
 379 1493 379 1493 359 1454.5 c 128,-1,19
 339 1416 339 1416 339 1323 c 2,20,-1
 339 1184 l 1,21,-1
 531 1184 l 1,22,-1
 531 1075 l 1,23,-1
 339 1075 l 1,24,-1
 339 0 l 1,25,-1
 190 0 l 1,0,-1
EndSplineSet
EndChar

StartChar: g
Encoding: 103 103 74
Width: 883
GlyphClass: 2
Flags: W
LayerCount: 2
UndoRedoHistory
Layer: 1
Undoes
EndUndoes
Redoes
EndRedoes
EndUndoRedoHistory
Fore
SplineSet
439 -389 m 0,0,1
 345 -389 345 -389 273.5 -379 c 128,-1,2
 202 -369 202 -369 147 -346 c 128,-1,3
 92 -323 92 -323 63 -283.5 c 128,-1,4
 34 -244 34 -244 34 -189 c 0,5,6
 34 -103 34 -103 91 -31.5 c 128,-1,7
 148 40 148 40 230 83 c 1,8,9
 176 98 176 98 137 126.5 c 128,-1,10
 98 155 98 155 98 188 c 0,11,12
 98 282 98 282 239 427 c 1,13,14
 91 535 91 535 91 789 c 0,15,16
 91 875 91 875 111 948.5 c 128,-1,17
 131 1022 131 1022 170.5 1079.5 c 128,-1,18
 210 1137 210 1137 274 1169.5 c 128,-1,19
 338 1202 338 1202 421 1202 c 0,20,21
 600 1202 600 1202 676 1055 c 1,22,23
 695 1088 695 1088 740 1126.5 c 128,-1,24
 785 1165 785 1165 836 1187 c 2,25,-1
 867 1200 l 1,26,-1
 907 1095 l 1,27,28
 858 1083 858 1083 797.5 1052 c 128,-1,29
 737 1021 737 1021 712 992 c 1,30,31
 727 956 727 956 738.5 892 c 128,-1,32
 750 828 750 828 750 785 c 0,33,34
 750 594 750 594 671.5 482.5 c 128,-1,35
 593 371 593 371 423 371 c 0,36,37
 396 371 396 371 357 377.5 c 128,-1,38
 318 384 318 384 303 390 c 1,39,40
 300 385 300 385 280.5 356 c 128,-1,41
 261 327 261 327 251.5 311.5 c 128,-1,42
 242 296 242 296 232 273.5 c 128,-1,43
 222 251 222 251 222 236 c 0,44,45
 222 207 222 207 321 191 c 1,46,47
 342 185 342 185 421 173.5 c 128,-1,48
 500 162 500 162 511 159 c 1,49,50
 657 133 657 133 732 68 c 128,-1,51
 807 3 807 3 807 -114 c 0,52,53
 807 -255 807 -255 708 -322 c 128,-1,54
 609 -389 609 -389 439 -389 c 0,0,1
437 -269 m 0,55,56
 553 -269 553 -269 620.5 -231.5 c 128,-1,57
 688 -194 688 -194 688 -118 c 0,58,59
 688 -53 688 -53 642 -17 c 128,-1,60
 596 19 596 19 465 43 c 1,61,-1
 313 63 l 1,62,63
 163 -30 163 -30 163 -140 c 0,64,65
 163 -208 163 -208 227 -238.5 c 128,-1,66
 291 -269 291 -269 437 -269 c 0,55,56
423 479 m 0,67,68
 473 479 473 479 510 498 c 128,-1,69
 547 517 547 517 567 546 c 128,-1,70
 587 575 587 575 599 618.5 c 128,-1,71
 611 662 611 662 614.5 700.5 c 128,-1,72
 618 739 618 739 618 789 c 0,73,74
 618 1095 618 1095 424 1095 c 0,75,76
 377 1095 377 1095 340.5 1075.5 c 128,-1,77
 304 1056 304 1056 282.5 1026 c 128,-1,78
 261 996 261 996 247.5 954 c 128,-1,79
 234 912 234 912 229.5 872.5 c 128,-1,80
 225 833 225 833 225 789 c 0,81,82
 225 479 225 479 423 479 c 0,67,68
EndSplineSet
EndChar

StartChar: h
Encoding: 104 104 75
Width: 844
GlyphClass: 2
Flags: W
LayerCount: 2
UndoRedoHistory
Layer: 1
Undoes
EndUndoes
Redoes
EndRedoes
EndUndoRedoHistory
Fore
SplineSet
117 0 m 1,0,-1
 117 1658 l 1,1,-1
 267 1658 l 1,2,-1
 267 1059 l 1,3,4
 400 1202 400 1202 554 1202 c 0,5,6
 643 1202 643 1202 690 1136.5 c 128,-1,7
 737 1071 737 1071 737 950 c 2,8,-1
 737 0 l 1,9,-1
 586 0 l 1,10,-1
 586 918 l 2,11,12
 586 1008 586 1008 559 1046 c 128,-1,13
 532 1084 532 1084 474 1084 c 0,14,15
 377 1084 377 1084 267 974 c 1,16,-1
 267 0 l 1,17,-1
 117 0 l 1,0,-1
EndSplineSet
EndChar

StartChar: i
Encoding: 105 105 76
Width: 418
GlyphClass: 2
Flags: W
AnchorPoint: "Anchor-0" 196 0 basechar 0
LayerCount: 2
UndoRedoHistory
Layer: 1
Undoes
EndUndoes
Redoes
EndRedoes
EndUndoRedoHistory
Fore
SplineSet
131 0 m 1,0,-1
 131 1184 l 1,1,-1
 281 1184 l 1,2,-1
 281 0 l 1,3,-1
 131 0 l 1,0,-1
131 1347 m 1,4,-1
 131 1551 l 1,5,-1
 282 1551 l 1,6,-1
 282 1347 l 1,7,-1
 131 1347 l 1,4,-1
EndSplineSet
EndChar

StartChar: j
Encoding: 106 106 77
Width: 436
GlyphClass: 2
Flags: W
LayerCount: 2
UndoRedoHistory
Layer: 1
Undoes
EndUndoes
Redoes
EndRedoes
EndUndoRedoHistory
Fore
SplineSet
-34 -303 m 1,0,-1
 -34 -189 l 1,1,2
 -24 -192 -24 -192 17 -192 c 0,3,4
 53 -192 53 -192 79.5 -183 c 128,-1,5
 106 -174 106 -174 120.5 -159.5 c 128,-1,6
 135 -145 135 -145 143.5 -122.5 c 128,-1,7
 152 -100 152 -100 154.5 -78.5 c 128,-1,8
 157 -57 157 -57 157 -28 c 2,9,-1
 157 1184 l 1,10,-1
 307 1184 l 1,11,-1
 307 -41 l 2,12,13
 307 -178 307 -178 239 -244 c 128,-1,14
 171 -310 171 -310 46 -310 c 0,15,16
 -17 -310 -17 -310 -34 -303 c 1,0,-1
157 1347 m 1,17,-1
 157 1551 l 1,18,-1
 308 1551 l 1,19,-1
 308 1347 l 1,20,-1
 157 1347 l 1,17,-1
EndSplineSet
EndChar

StartChar: k
Encoding: 107 107 78
Width: 820
GlyphClass: 2
Flags: W
LayerCount: 2
UndoRedoHistory
Layer: 1
Undoes
EndUndoes
Redoes
EndRedoes
EndUndoRedoHistory
Fore
SplineSet
116 2 m 1,0,-1
 116 1660 l 1,1,-1
 266 1660 l 1,2,-1
 266 606 l 1,3,-1
 661 1184 l 1,4,-1
 821 1184 l 1,5,-1
 522 727 l 1,6,-1
 806 0 l 1,7,-1
 656 0 l 1,8,-1
 407 644 l 1,9,-1
 266 448 l 1,10,-1
 266 2 l 1,11,-1
 116 2 l 1,0,-1
EndSplineSet
EndChar

StartChar: l
Encoding: 108 108 79
Width: 414
GlyphClass: 2
Flags: W
LayerCount: 2
UndoRedoHistory
Layer: 1
Undoes
EndUndoes
Redoes
EndRedoes
EndUndoRedoHistory
Fore
SplineSet
135 0 m 1,0,-1
 135 1658 l 1,1,-1
 286 1658 l 1,2,-1
 286 0 l 1,3,-1
 135 0 l 1,0,-1
EndSplineSet
EndChar

StartChar: m
Encoding: 109 109 80
Width: 1319
GlyphClass: 2
Flags: W
LayerCount: 2
UndoRedoHistory
Layer: 1
Undoes
EndUndoes
Redoes
EndRedoes
EndUndoRedoHistory
Fore
SplineSet
114 0 m 1,0,-1
 114 1184 l 1,1,-1
 255 1184 l 1,2,-1
 255 1064 l 1,3,4
 374 1205 374 1205 534 1205 c 0,5,6
 682 1205 682 1205 720 1049 c 1,7,8
 844 1205 844 1205 1012 1205 c 0,9,10
 1100 1205 1100 1205 1156.5 1141.5 c 128,-1,11
 1213 1078 1213 1078 1213 934 c 2,12,-1
 1213 0 l 1,13,-1
 1071 0 l 1,14,-1
 1071 930 l 2,15,16
 1071 1027 1071 1027 1041 1065 c 128,-1,17
 1011 1103 1011 1103 955 1103 c 0,18,19
 842 1101 842 1101 732 980 c 1,20,21
 734 950 734 950 734 934 c 2,22,-1
 734 0 l 1,23,-1
 594 0 l 1,24,-1
 594 930 l 2,25,26
 594 1027 594 1027 563 1065 c 128,-1,27
 532 1103 532 1103 476 1103 c 0,28,29
 363 1101 363 1101 255 980 c 1,30,-1
 255 0 l 1,31,-1
 114 0 l 1,0,-1
EndSplineSet
EndChar

StartChar: n
Encoding: 110 110 81
Width: 838
GlyphClass: 2
Flags: W
LayerCount: 2
UndoRedoHistory
Layer: 1
Undoes
EndUndoes
Redoes
EndRedoes
EndUndoRedoHistory
Fore
SplineSet
114 0 m 1,0,-1
 114 1184 l 1,1,-1
 264 1184 l 1,2,-1
 264 1061 l 1,3,4
 395 1202 395 1202 549 1202 c 0,5,6
 637 1202 637 1202 684 1136.5 c 128,-1,7
 731 1071 731 1071 731 950 c 2,8,-1
 731 0 l 1,9,-1
 581 0 l 1,10,-1
 581 918 l 2,11,12
 581 1008 581 1008 553.5 1046 c 128,-1,13
 526 1084 526 1084 468 1084 c 0,14,15
 371 1084 371 1084 264 975 c 1,16,-1
 264 0 l 1,17,-1
 114 0 l 1,0,-1
EndSplineSet
EndChar

StartChar: o
Encoding: 111 111 82
Width: 816
GlyphClass: 2
Flags: W
AnchorPoint: "Anchor-0" 421 0 basechar 0
LayerCount: 2
UndoRedoHistory
Layer: 1
Undoes
EndUndoes
Redoes
EndRedoes
EndUndoRedoHistory
Fore
SplineSet
408 94 m 0,0,1
 453 94 453 94 484 110.5 c 128,-1,2
 515 127 515 127 532.5 152 c 128,-1,3
 550 177 550 177 559 223 c 128,-1,4
 568 269 568 269 570.5 311 c 128,-1,5
 573 353 573 353 573 420 c 2,6,-1
 573 764 l 2,7,8
 573 831 573 831 570.5 873 c 128,-1,9
 568 915 568 915 559 961 c 128,-1,10
 550 1007 550 1007 532.5 1032 c 128,-1,11
 515 1057 515 1057 484 1073.5 c 128,-1,12
 453 1090 453 1090 408 1090 c 0,13,14
 370 1090 370 1090 342 1080 c 128,-1,15
 314 1070 314 1070 296 1047.5 c 128,-1,16
 278 1025 278 1025 267 999.5 c 128,-1,17
 256 974 256 974 250.5 933 c 128,-1,18
 245 892 245 892 243.5 855.5 c 128,-1,19
 242 819 242 819 242 764 c 2,20,-1
 242 420 l 2,21,22
 242 365 242 365 243.5 328.5 c 128,-1,23
 245 292 245 292 250.5 251 c 128,-1,24
 256 210 256 210 267 184.5 c 128,-1,25
 278 159 278 159 296 136.5 c 128,-1,26
 314 114 314 114 342 104 c 128,-1,27
 370 94 370 94 408 94 c 0,0,1
408 -19 m 128,-1,29
 317 -19 317 -19 255 10 c 128,-1,30
 193 39 193 39 157.5 98 c 128,-1,31
 122 157 122 157 107 236.5 c 128,-1,32
 92 316 92 316 92 428 c 2,33,-1
 92 756 l 2,34,35
 92 982 92 982 162 1092 c 128,-1,36
 232 1202 232 1202 408 1202 c 0,37,38
 585 1202 585 1202 654.5 1092.5 c 128,-1,39
 724 983 724 983 724 756 c 2,40,-1
 724 428 l 2,41,42
 724 316 724 316 709 236.5 c 128,-1,43
 694 157 694 157 658.5 98 c 128,-1,44
 623 39 623 39 561 10 c 128,-1,28
 499 -19 499 -19 408 -19 c 128,-1,29
EndSplineSet
EndChar

StartChar: p
Encoding: 112 112 83
Width: 855
GlyphClass: 2
Flags: W
LayerCount: 2
UndoRedoHistory
Layer: 1
Undoes
EndUndoes
Redoes
EndRedoes
EndUndoRedoHistory
Fore
SplineSet
115 -390 m 1,0,-1
 115 1184 l 1,1,-1
 265 1184 l 1,2,-1
 265 1085 l 1,3,4
 360 1202 360 1202 492 1202 c 0,5,6
 558 1202 558 1202 607.5 1175 c 128,-1,7
 657 1148 657 1148 685.5 1105 c 128,-1,8
 714 1062 714 1062 731.5 998 c 128,-1,9
 749 934 749 934 754.5 871.5 c 128,-1,10
 760 809 760 809 760 730 c 2,11,-1
 760 480 l 2,12,13
 760 386 760 386 752 312 c 128,-1,14
 744 238 744 238 724 174.5 c 128,-1,15
 704 111 704 111 671.5 69.5 c 128,-1,16
 639 28 639 28 590 4.5 c 128,-1,17
 541 -19 541 -19 476 -19 c 0,18,19
 361 -19 361 -19 265 94 c 1,20,-1
 265 -390 l 1,21,-1
 115 -390 l 1,0,-1
452 100 m 0,22,23
 492 100 492 100 520 116.5 c 128,-1,24
 548 133 548 133 565.5 161.5 c 128,-1,25
 583 190 583 190 593 239 c 128,-1,26
 603 288 603 288 606.5 343.5 c 128,-1,27
 610 399 610 399 610 478 c 2,28,-1
 610 730 l 2,29,30
 610 920 610 920 578 1002 c 128,-1,31
 546 1084 546 1084 449 1084 c 0,32,33
 358 1084 358 1084 265 993 c 1,34,-1
 265 186 l 1,35,36
 347 100 347 100 452 100 c 0,22,23
EndSplineSet
EndChar

StartChar: q
Encoding: 113 113 84
Width: 848
GlyphClass: 2
Flags: W
LayerCount: 2
UndoRedoHistory
Layer: 1
Undoes
EndUndoes
Redoes
EndRedoes
EndUndoRedoHistory
Fore
SplineSet
584 -390 m 1,0,-1
 584 85 l 1,1,2
 495 -18 495 -18 382 -19 c 1,3,4
 229 -19 229 -19 162.5 96 c 128,-1,5
 96 211 96 211 96 478 c 2,6,-1
 96 697 l 2,7,8
 96 795 96 795 103 869 c 128,-1,9
 110 943 110 943 129 1008 c 128,-1,10
 148 1073 148 1073 179 1114 c 128,-1,11
 210 1155 210 1155 259 1178.5 c 128,-1,12
 308 1202 308 1202 375 1202 c 0,13,14
 495 1201 495 1201 584 1098 c 1,15,-1
 584 1184 l 1,16,-1
 734 1184 l 1,17,-1
 734 -390 l 1,18,-1
 584 -390 l 1,0,-1
412 100 m 0,19,20
 501 100 501 100 584 179 c 1,21,-1
 584 1000 l 1,22,23
 493 1084 493 1084 408 1084 c 0,24,25
 313 1084 313 1084 279.5 1004.5 c 128,-1,26
 246 925 246 925 246 745 c 2,27,-1
 246 466 l 2,28,29
 246 272 246 272 280 186 c 128,-1,30
 314 100 314 100 412 100 c 0,19,20
EndSplineSet
EndChar

StartChar: r
Encoding: 114 114 85
Width: 610
GlyphClass: 2
Flags: W
LayerCount: 2
UndoRedoHistory
Layer: 1
Undoes
EndUndoes
Redoes
EndRedoes
EndUndoRedoHistory
Fore
SplineSet
126 0 m 1,0,-1
 126 1184 l 1,1,-1
 276 1184 l 1,2,-1
 276 1021 l 1,3,4
 330 1111 330 1111 402.5 1154 c 128,-1,5
 475 1197 475 1197 549 1197 c 0,6,7
 567 1197 567 1197 575 1196 c 1,8,-1
 575 1034 l 1,9,10
 543 1047 543 1047 503 1047 c 0,11,12
 359 1047 359 1047 276 909 c 1,13,-1
 276 0 l 1,14,-1
 126 0 l 1,0,-1
EndSplineSet
EndChar

StartChar: s
Encoding: 115 115 86
Width: 743
GlyphClass: 2
Flags: W
AnchorPoint: "Anchor-1" 370 0 basechar 0
LayerCount: 2
UndoRedoHistory
Layer: 1
Undoes
EndUndoes
Redoes
EndRedoes
EndUndoRedoHistory
Fore
SplineSet
385 -19 m 0,0,1
 244 -19 244 -19 159.5 72 c 128,-1,2
 75 163 75 163 63 318 c 1,3,-1
 189 356 l 1,4,5
 201 221 201 221 251 157.5 c 128,-1,6
 301 94 301 94 391 94 c 0,7,8
 469 94 469 94 514 140 c 0,9,10
 557 184 557 184 557 258 c 0,11,12
 557 261 557 261 557 265 c 0,13,14
 554 383 554 383 413 501 c 1,15,-1
 252 638 l 1,16,17
 167 709 167 709 128 777 c 0,18,19
 90 843 90 843 90 931 c 0,20,21
 90 1061 90 1061 168 1132 c 0,22,23
 244 1202 244 1202 373 1202 c 0,24,25
 504 1202 504 1202 574.5 1118 c 128,-1,26
 645 1034 645 1034 653 891 c 1,27,-1
 547 856 l 1,28,29
 540 975 540 975 498.5 1032.5 c 128,-1,30
 457 1090 457 1090 379 1090 c 0,31,32
 309 1090 309 1090 267 1051 c 0,33,34
 226 1013 226 1013 226 949 c 0,35,36
 226 891 226 891 247 849.5 c 128,-1,37
 268 808 268 808 324 760 c 1,38,-1
 491 610 l 1,39,40
 536 571 536 571 564.5 541.5 c 128,-1,41
 593 512 593 512 625 468.5 c 128,-1,42
 657 425 657 425 672.5 374.5 c 128,-1,43
 688 324 688 324 689 266 c 1,44,45
 689 130 689 130 607 55.5 c 128,-1,46
 525 -19 525 -19 385 -19 c 0,0,1
EndSplineSet
EndChar

StartChar: t
Encoding: 116 116 87
Width: 573
GlyphClass: 2
Flags: W
AnchorPoint: "Anchor-1" 340 0 basechar 0
LayerCount: 2
UndoRedoHistory
Layer: 1
Undoes
EndUndoes
Redoes
EndRedoes
EndUndoRedoHistory
Fore
SplineSet
395 -15 m 0,0,1
 274 -15 274 -15 228 51.5 c 128,-1,2
 182 118 182 118 181 246 c 1,3,-1
 181 1084 l 1,4,-1
 38 1084 l 1,5,-1
 38 1184 l 1,6,-1
 181 1184 l 1,7,-1
 181 1550 l 1,8,-1
 331 1550 l 1,9,-1
 331 1184 l 1,10,-1
 528 1184 l 1,11,-1
 528 1084 l 1,12,-1
 331 1084 l 1,13,-1
 331 260 l 2,14,15
 331 170 331 170 352 136.5 c 128,-1,16
 373 103 373 103 437 103 c 0,17,18
 478 103 478 103 521 111 c 1,19,-1
 521 -2 l 1,20,21
 454 -15 454 -15 395 -15 c 0,0,1
EndSplineSet
EndChar

StartChar: u
Encoding: 117 117 88
Width: 843
GlyphClass: 2
Flags: W
AnchorPoint: "Anchor-0" 640 0 basechar 0
LayerCount: 2
UndoRedoHistory
Layer: 1
Undoes
EndUndoes
Redoes
EndRedoes
EndUndoRedoHistory
Fore
SplineSet
288 -18 m 0,0,1
 199 -18 199 -18 152 48 c 128,-1,2
 105 114 105 114 105 235 c 2,3,-1
 105 1184 l 1,4,-1
 256 1184 l 1,5,-1
 256 266 l 2,6,7
 256 176 256 176 283 138 c 128,-1,8
 310 100 310 100 368 100 c 0,9,10
 469 100 469 100 578 216 c 1,11,-1
 578 1184 l 1,12,-1
 728 1184 l 1,13,-1
 728 0 l 1,14,-1
 578 0 l 1,15,-1
 578 131 l 1,16,17
 446 -18 446 -18 288 -18 c 0,0,1
EndSplineSet
EndChar

StartChar: v
Encoding: 118 118 89
Width: 753
GlyphClass: 2
Flags: W
LayerCount: 2
UndoRedoHistory
Layer: 1
Undoes
EndUndoes
Redoes
EndRedoes
EndUndoRedoHistory
Fore
SplineSet
294 0 m 1,0,-1
 36 1184 l 1,1,-1
 188 1184 l 1,2,-1
 381 173 l 1,3,-1
 571 1184 l 1,4,-1
 717 1184 l 1,5,-1
 471 0 l 1,6,-1
 294 0 l 1,0,-1
EndSplineSet
EndChar

StartChar: w
Encoding: 119 119 90
Width: 1177
GlyphClass: 2
Flags: W
LayerCount: 2
UndoRedoHistory
Layer: 1
Undoes
EndUndoes
Redoes
EndRedoes
EndUndoRedoHistory
Fore
SplineSet
257 0 m 1,0,-1
 64 1184 l 1,1,-1
 192 1184 l 1,2,-1
 340 195 l 1,3,-1
 526 1184 l 1,4,-1
 655 1184 l 1,5,-1
 843 199 l 1,6,-1
 986 1184 l 1,7,-1
 1113 1184 l 1,8,-1
 922 0 l 1,9,-1
 781 0 l 1,10,-1
 593 963 l 1,11,-1
 408 0 l 1,12,-1
 257 0 l 1,0,-1
EndSplineSet
EndChar

StartChar: x
Encoding: 120 120 91
Width: 778
GlyphClass: 2
Flags: W
LayerCount: 2
UndoRedoHistory
Layer: 1
Undoes
EndUndoes
Redoes
EndRedoes
EndUndoRedoHistory
Fore
SplineSet
33 0 m 1,0,-1
 313 619 l 1,1,-1
 46 1184 l 1,2,-1
 195 1184 l 1,3,-1
 398 750 l 1,4,-1
 592 1184 l 1,5,-1
 743 1184 l 1,6,-1
 466 602 l 1,7,-1
 748 0 l 1,8,-1
 605 0 l 1,9,-1
 384 466 l 1,10,-1
 178 0 l 1,11,-1
 33 0 l 1,0,-1
EndSplineSet
EndChar

StartChar: y
Encoding: 121 121 92
Width: 780
GlyphClass: 2
Flags: W
LayerCount: 2
UndoRedoHistory
Layer: 1
Undoes
EndUndoes
Redoes
EndRedoes
EndUndoRedoHistory
Fore
SplineSet
82 -295 m 1,0,-1
 82 -178 l 1,1,2
 190 -178 190 -178 244 -161 c 128,-1,3
 298 -144 298 -144 312 -113 c 0,4,5
 321 -93 321 -93 322 -61 c 0,6,7
 322 -44 322 -44 319 -23 c 0,8,9
 314 14 314 14 284 141 c 0,10,11
 260 240 260 240 153 700 c 128,-1,12
 46 1160 46 1160 40 1184 c 1,13,-1
 190 1184 l 1,14,-1
 396 177 l 1,15,-1
 594 1184 l 1,16,-1
 745 1184 l 1,17,-1
 458 -85 l 2,18,19
 432 -198 432 -198 352.5 -246.5 c 128,-1,20
 273 -295 273 -295 121 -295 c 2,21,-1
 82 -295 l 1,0,-1
EndSplineSet
EndChar

StartChar: z
Encoding: 122 122 93
Width: 683
GlyphClass: 2
Flags: W
LayerCount: 2
UndoRedoHistory
Layer: 1
Undoes
EndUndoes
Redoes
EndRedoes
EndUndoRedoHistory
Fore
SplineSet
66 0 m 1,0,-1
 66 105 l 1,1,-1
 469 1070 l 1,2,-1
 108 1070 l 1,3,-1
 108 1184 l 1,4,-1
 627 1184 l 1,5,-1
 627 1095 l 1,6,-1
 226 114 l 1,7,-1
 619 114 l 1,8,-1
 619 0 l 1,9,-1
 66 0 l 1,0,-1
EndSplineSet
EndChar

StartChar: braceleft
Encoding: 123 123 94
Width: 528
GlyphClass: 2
Flags: W
LayerCount: 2
UndoRedoHistory
Layer: 1
Undoes
EndUndoes
Redoes
EndRedoes
EndUndoRedoHistory
Fore
SplineSet
488 -338 m 1,0,1
 433 -338 433 -338 395.5 -336 c 128,-1,2
 358 -334 358 -334 325.5 -324 c 128,-1,3
 293 -314 293 -314 273.5 -304 c 128,-1,4
 254 -294 254 -294 238.5 -267.5 c 128,-1,5
 223 -241 223 -241 215.5 -216.5 c 128,-1,6
 208 -192 208 -192 203.5 -142.5 c 128,-1,7
 199 -93 199 -93 198 -47.5 c 128,-1,8
 197 -2 197 -2 197 76 c 2,9,-1
 197 340 l 2,10,11
 197 428 197 428 192.5 478 c 128,-1,12
 188 528 188 528 174.5 560.5 c 128,-1,13
 161 593 161 593 139 604 c 128,-1,14
 117 615 117 615 78 615 c 1,15,-1
 78 731 l 1,16,17
 117 731 117 731 139 742 c 128,-1,18
 161 753 161 753 174.5 785.5 c 128,-1,19
 188 818 188 818 192.5 868 c 128,-1,20
 197 918 197 918 197 1006 c 2,21,-1
 197 1261 l 2,22,23
 197 1339 197 1339 198 1384 c 128,-1,24
 199 1429 199 1429 203.5 1478.5 c 128,-1,25
 208 1528 208 1528 215.5 1552.5 c 128,-1,26
 223 1577 223 1577 238.5 1603.5 c 128,-1,27
 254 1630 254 1630 273.5 1640 c 128,-1,28
 293 1650 293 1650 325.5 1660 c 128,-1,29
 358 1670 358 1670 395.5 1672 c 128,-1,30
 433 1674 433 1674 488 1674 c 1,31,-1
 488 1562 l 1,32,33
 387 1562 387 1562 369 1519 c 128,-1,34
 351 1476 351 1476 351 1261 c 2,35,-1
 351 974 l 2,36,37
 351 872 351 872 337.5 809.5 c 128,-1,38
 324 747 324 747 298.5 716 c 128,-1,39
 273 685 273 685 230 673 c 1,40,41
 273 661 273 661 298.5 630 c 128,-1,42
 324 599 324 599 337.5 536.5 c 128,-1,43
 351 474 351 474 351 372 c 2,44,-1
 351 76 l 2,45,46
 351 -140 351 -140 369 -182.5 c 128,-1,47
 387 -225 387 -225 488 -225 c 1,48,-1
 488 -338 l 1,0,1
EndSplineSet
EndChar

StartChar: bar
Encoding: 124 124 95
Width: 445
GlyphClass: 2
Flags: W
LayerCount: 2
UndoRedoHistory
Layer: 1
Undoes
EndUndoes
Redoes
EndRedoes
EndUndoRedoHistory
Fore
SplineSet
152 -295 m 1,0,-1
 153 1659 l 1,1,-1
 293 1658 l 1,2,-1
 292 -295 l 1,3,-1
 152 -295 l 1,0,-1
EndSplineSet
EndChar

StartChar: braceright
Encoding: 125 125 96
Width: 552
GlyphClass: 2
Flags: W
LayerCount: 2
UndoRedoHistory
Layer: 1
Undoes
EndUndoes
Redoes
EndRedoes
EndUndoRedoHistory
Fore
SplineSet
64 -338 m 1,0,-1
 64 -225 l 1,1,2
 165 -225 165 -225 183 -182.5 c 128,-1,3
 201 -140 201 -140 201 76 c 2,4,-1
 201 372 l 2,5,6
 201 474 201 474 214.5 536.5 c 128,-1,7
 228 599 228 599 253.5 630 c 128,-1,8
 279 661 279 661 322 673 c 1,9,10
 279 685 279 685 253.5 716 c 128,-1,11
 228 747 228 747 214.5 809.5 c 128,-1,12
 201 872 201 872 201 974 c 2,13,-1
 201 1261 l 2,14,15
 201 1476 201 1476 183 1519 c 128,-1,16
 165 1562 165 1562 64 1562 c 1,17,-1
 64 1674 l 1,18,19
 108 1674 108 1674 139.5 1672.5 c 128,-1,20
 171 1671 171 1671 200.5 1665.5 c 128,-1,21
 230 1660 230 1660 249 1654 c 128,-1,22
 268 1648 268 1648 285.5 1633 c 128,-1,23
 303 1618 303 1618 313 1604.5 c 128,-1,24
 323 1591 323 1591 331.5 1563.5 c 128,-1,25
 340 1536 340 1536 344 1511.5 c 128,-1,26
 348 1487 348 1487 350.5 1443.5 c 128,-1,27
 353 1400 353 1400 353.5 1361.5 c 128,-1,28
 354 1323 354 1323 354 1261 c 2,29,-1
 354 1006 l 2,30,31
 354 918 354 918 358.5 868 c 128,-1,32
 363 818 363 818 376.5 785.5 c 128,-1,33
 390 753 390 753 412 742 c 128,-1,34
 434 731 434 731 473 731 c 1,35,-1
 473 615 l 1,36,37
 434 615 434 615 412 604 c 128,-1,38
 390 593 390 593 376.5 560.5 c 128,-1,39
 363 528 363 528 358.5 478 c 128,-1,40
 354 428 354 428 354 340 c 2,41,-1
 354 76 l 2,42,43
 354 14 354 14 353.5 -25 c 128,-1,44
 353 -64 353 -64 350.5 -107.5 c 128,-1,45
 348 -151 348 -151 344 -175.5 c 128,-1,46
 340 -200 340 -200 331.5 -227.5 c 128,-1,47
 323 -255 323 -255 313 -268.5 c 128,-1,48
 303 -282 303 -282 285.5 -297 c 128,-1,49
 268 -312 268 -312 249 -318 c 128,-1,50
 230 -324 230 -324 200.5 -329.5 c 128,-1,51
 171 -335 171 -335 139.5 -336.5 c 128,-1,52
 108 -338 108 -338 64 -338 c 1,0,-1
EndSplineSet
EndChar

StartChar: asciitilde
Encoding: 126 126 97
Width: 833
GlyphClass: 2
Flags: W
LayerCount: 2
UndoRedoHistory
Layer: 1
Undoes
EndUndoes
Redoes
EndRedoes
EndUndoRedoHistory
Fore
SplineSet
557 767 m 0,0,1
 511 767 511 767 410 824 c 128,-1,2
 309 881 309 881 274 881 c 0,3,4
 224 881 224 881 133 799 c 1,5,-1
 79 869 l 1,6,7
 129 924 129 924 185 961 c 128,-1,8
 241 998 241 998 284 998 c 0,9,10
 328 998 328 998 428.5 942 c 128,-1,11
 529 886 529 886 563 886 c 0,12,13
 582 886 582 886 604.5 896.5 c 128,-1,14
 627 907 627 907 645 920 c 128,-1,15
 663 933 663 933 700 962 c 1,16,-1
 754 893 l 1,17,18
 634 767 634 767 557 767 c 0,0,1
EndSplineSet
EndChar

StartChar: exclamdown
Encoding: 161 161 99
Width: 412
GlyphClass: 2
Flags: W
LayerCount: 2
UndoRedoHistory
Layer: 1
Undoes
EndUndoes
Redoes
EndRedoes
EndUndoRedoHistory
Fore
SplineSet
125 -396 m 1,0,-1
 180 906 l 1,1,-1
 233 906 l 1,2,-1
 286 -396 l 1,3,-1
 125 -396 l 1,0,-1
127 1083 m 1,4,-1
 127 1262 l 1,5,-1
 287 1262 l 1,6,-1
 287 1083 l 1,7,-1
 127 1083 l 1,4,-1
EndSplineSet
EndChar

StartChar: cent
Encoding: 162 162 100
Width: 783
GlyphClass: 2
Flags: W
LayerCount: 2
UndoRedoHistory
Layer: 1
Undoes
EndUndoes
Redoes
EndRedoes
EndUndoRedoHistory
Fore
SplineSet
355 -204 m 1,0,-1
 355 -16 l 1,1,2
 288 -9 288 -9 240 18.5 c 128,-1,3
 192 46 192 46 163.5 85.5 c 128,-1,4
 135 125 135 125 119 185.5 c 128,-1,5
 103 246 103 246 97.5 306.5 c 128,-1,6
 92 367 92 367 92 449 c 2,7,-1
 92 725 l 2,8,9
 92 967 92 967 150 1077 c 128,-1,10
 208 1187 208 1187 363 1200 c 1,11,-1
 363 1385 l 1,12,-1
 425 1385 l 1,13,-1
 425 1201 l 1,14,15
 494 1199 494 1199 545 1179.5 c 128,-1,16
 596 1160 596 1160 627.5 1129 c 128,-1,17
 659 1098 659 1098 678 1049.5 c 128,-1,18
 697 1001 697 1001 704 947.5 c 128,-1,19
 711 894 711 894 711 823 c 2,20,-1
 711 767 l 1,21,-1
 572 767 l 1,22,-1
 572 823 l 2,23,24
 572 975 572 975 536 1032.5 c 128,-1,25
 500 1090 500 1090 410 1090 c 0,26,27
 308 1090 308 1090 275 1017.5 c 128,-1,28
 242 945 242 945 242 750 c 2,29,-1
 242 418 l 2,30,31
 242 236 242 236 277.5 165 c 128,-1,32
 313 94 313 94 411 94 c 0,33,34
 453 94 453 94 482 106 c 128,-1,35
 511 118 511 118 528.5 139 c 128,-1,36
 546 160 546 160 556 197 c 128,-1,37
 566 234 566 234 569 275.5 c 128,-1,38
 572 317 572 317 572 380 c 2,39,-1
 572 445 l 1,40,-1
 711 445 l 1,41,-1
 711 387 l 2,42,43
 711 311 711 311 704.5 254 c 128,-1,44
 698 197 698 197 679 144 c 128,-1,45
 660 91 660 91 628 57.5 c 128,-1,46
 596 24 596 24 543 3.5 c 128,-1,47
 490 -17 490 -17 417 -18 c 1,48,-1
 417 -204 l 1,49,-1
 355 -204 l 1,0,-1
EndSplineSet
EndChar

StartChar: sterling
Encoding: 163 163 101
Width: 769
GlyphClass: 2
Flags: W
LayerCount: 2
UndoRedoHistory
Layer: 1
Undoes
EndUndoes
Redoes
EndRedoes
EndUndoRedoHistory
Fore
SplineSet
22 0 m 1,0,-1
 22 76 l 1,1,-1
 146 111 l 1,2,-1
 146 774 l 1,3,-1
 22 774 l 1,4,-1
 22 886 l 1,5,-1
 146 886 l 1,6,-1
 146 1120 l 2,7,8
 146 1196 146 1196 148.5 1252.5 c 128,-1,9
 151 1309 151 1309 159 1370 c 128,-1,10
 167 1431 167 1431 181 1474 c 128,-1,11
 195 1517 195 1517 219 1557.5 c 128,-1,12
 243 1598 243 1598 276 1622.5 c 128,-1,13
 309 1647 309 1647 356.5 1661.5 c 128,-1,14
 404 1676 404 1676 464 1676 c 0,15,16
 541 1676 541 1676 593.5 1651 c 128,-1,17
 646 1626 646 1626 674.5 1578 c 128,-1,18
 703 1530 703 1530 715 1472.5 c 128,-1,19
 727 1415 727 1415 728 1337 c 1,20,-1
 728 1286 l 1,21,-1
 615 1286 l 1,22,23
 615 1427 615 1427 585 1492 c 128,-1,24
 555 1557 555 1557 463 1557 c 0,25,26
 425 1557 425 1557 396.5 1545.5 c 128,-1,27
 368 1534 368 1534 350.5 1509 c 128,-1,28
 333 1484 333 1484 321.5 1456.5 c 128,-1,29
 310 1429 310 1429 305 1383.5 c 128,-1,30
 300 1338 300 1338 298 1300 c 128,-1,31
 296 1262 296 1262 296 1203 c 2,32,-1
 296 886 l 1,33,-1
 568 886 l 1,34,-1
 568 774 l 1,35,-1
 296 774 l 1,36,-1
 296 111 l 1,37,-1
 725 111 l 1,38,-1
 725 0 l 1,39,-1
 22 0 l 1,0,-1
EndSplineSet
EndChar

StartChar: currency
Encoding: 164 164 102
Width: 1078
GlyphClass: 2
Flags: W
LayerCount: 2
UndoRedoHistory
Layer: 1
Undoes
EndUndoes
Redoes
EndRedoes
EndUndoRedoHistory
Fore
SplineSet
86 381 m 1,0,-1
 56 411 l 1,1,-1
 219 573 l 1,2,3
 108 697 108 697 108 866 c 128,-1,4
 108 1035 108 1035 219 1159 c 1,5,-1
 56 1321 l 1,6,-1
 86 1351 l 1,7,-1
 248 1189 l 1,8,9
 370 1304 370 1304 538 1304 c 0,10,11
 539 1304 539 1304 540.5 1304 c 129,-1,12
 542 1304 542 1304 544 1304 c 0,13,14
 712 1304 712 1304 834 1189 c 1,15,-1
 996 1351 l 1,16,-1
 1026 1321 l 1,17,-1
 864 1159 l 1,18,19
 974 1034 974 1034 974 866 c 0,20,21
 974 697 974 697 863 573 c 1,22,-1
 1026 411 l 1,23,-1
 996 381 l 1,24,-1
 834 543 l 1,25,26
 712 428 712 428 544 428 c 0,27,28
 543 428 543 428 541.5 428 c 129,-1,29
 540 428 540 428 538 428 c 0,30,31
 370 428 370 428 248 543 c 1,32,-1
 86 381 l 1,0,-1
541 498 m 0,33,34
 692 498 692 498 795 605.5 c 128,-1,35
 898 713 898 713 898 866 c 128,-1,36
 898 1019 898 1019 795 1127 c 128,-1,37
 692 1235 692 1235 541 1235 c 128,-1,38
 390 1235 390 1235 287 1127 c 128,-1,39
 184 1019 184 1019 184 866 c 128,-1,40
 184 713 184 713 287.5 605.5 c 128,-1,41
 391 498 391 498 541 498 c 0,33,34
EndSplineSet
EndChar

StartChar: yen
Encoding: 165 165 103
Width: 889
GlyphClass: 2
Flags: W
LayerCount: 2
UndoRedoHistory
Layer: 1
Undoes
EndUndoes
Redoes
EndRedoes
EndUndoRedoHistory
Fore
SplineSet
384 0 m 1,0,-1
 384 225 l 1,1,-1
 180 225 l 1,2,-1
 180 325 l 1,3,-1
 384 325 l 1,4,-1
 384 510 l 1,5,-1
 180 510 l 1,6,-1
 180 608 l 1,7,-1
 364 608 l 1,8,-1
 10 1658 l 1,9,-1
 163 1658 l 1,10,-1
 461 737 l 1,11,-1
 748 1658 l 1,12,-1
 901 1658 l 1,13,-1
 555 608 l 1,14,-1
 737 608 l 1,15,-1
 737 510 l 1,16,-1
 536 510 l 1,17,-1
 536 325 l 1,18,-1
 737 325 l 1,19,-1
 737 225 l 1,20,-1
 536 225 l 1,21,-1
 536 0 l 1,22,-1
 384 0 l 1,0,-1
EndSplineSet
EndChar

StartChar: brokenbar
Encoding: 166 166 104
Width: 414
GlyphClass: 2
Flags: W
LayerCount: 2
UndoRedoHistory
Layer: 1
Undoes
EndUndoes
Redoes
EndRedoes
EndUndoRedoHistory
Fore
SplineSet
144 -348 m 1,0,-1
 144 502 l 1,1,-1
 270 502 l 1,2,-1
 270 -348 l 1,3,-1
 144 -348 l 1,0,-1
144 808 m 1,4,-1
 144 1658 l 1,5,-1
 270 1658 l 1,6,-1
 270 808 l 1,7,-1
 144 808 l 1,4,-1
EndSplineSet
EndChar

StartChar: section
Encoding: 167 167 105
Width: 820
GlyphClass: 2
Flags: W
LayerCount: 2
UndoRedoHistory
Layer: 1
Undoes
EndUndoes
Redoes
EndRedoes
EndUndoRedoHistory
Fore
SplineSet
415 -18 m 0,0,1
 283 -18 283 -18 202.5 71 c 128,-1,2
 122 160 122 160 89 298 c 1,3,-1
 203 336 l 1,4,5
 229 238 229 238 283 170.5 c 128,-1,6
 337 103 337 103 417 103 c 0,7,8
 492 103 492 103 538.5 144 c 128,-1,9
 585 185 585 185 587 256 c 1,10,11
 587 261 587 261 587 266 c 0,12,13
 586 314 586 314 562 360 c 0,14,15
 534 412 534 412 442 501 c 1,16,-1
 213 689 l 1,17,18
 79 794 79 794 79 925 c 0,19,20
 79 1016 79 1016 129.5 1078.5 c 128,-1,21
 180 1141 180 1141 260 1170 c 1,22,23
 110 1294 110 1294 110 1416 c 0,24,25
 110 1532 110 1532 192 1603.5 c 128,-1,26
 274 1675 274 1675 412 1675 c 0,27,28
 637 1675 637 1675 722 1379 c 1,29,-1
 605 1341 l 1,30,31
 591 1382 591 1382 577.5 1412 c 128,-1,32
 564 1442 564 1442 540.5 1478 c 128,-1,33
 517 1514 517 1514 483.5 1533.5 c 128,-1,34
 450 1553 450 1553 409 1553 c 0,35,36
 342 1553 342 1553 300 1513.5 c 128,-1,37
 258 1474 258 1474 258 1403 c 0,38,39
 258 1323 258 1323 372 1224 c 1,40,-1
 602 1049 l 1,41,42
 754 928 754 928 754 766 c 0,43,44
 754 757 754 757 754 748 c 0,45,46
 747 595 747 595 594 514 c 1,47,48
 635 472 635 472 657.5 444.5 c 128,-1,49
 680 417 680 417 702.5 368.5 c 128,-1,50
 725 320 725 320 725 266 c 0,51,52
 725 134 725 134 641 58 c 0,53,54
 556 -18 556 -18 415 -18 c 0,0,1
498 597 m 1,55,56
 545 617 545 617 581.5 656.5 c 128,-1,57
 618 696 618 696 622 748 c 1,58,59
 623 758 623 758 623 767 c 0,60,61
 623 866 623 866 512 958 c 2,62,-1
 353 1090 l 1,63,64
 297 1070 297 1070 261.5 1027.5 c 128,-1,65
 226 985 226 985 226 926 c 0,66,67
 226 855 226 855 294 792 c 1,68,-1
 498 597 l 1,55,56
EndSplineSet
EndChar

StartChar: dieresis
Encoding: 168 168 106
Width: 784
GlyphClass: 2
Flags: W
LayerCount: 2
UndoRedoHistory
Layer: 1
Undoes
EndUndoes
Redoes
EndRedoes
EndUndoRedoHistory
Fore
SplineSet
140 1477 m 1,0,-1
 140 1658 l 1,1,-1
 294 1658 l 1,2,-1
 294 1477 l 1,3,-1
 140 1477 l 1,0,-1
476 1477 m 1,4,-1
 476 1658 l 1,5,-1
 630 1658 l 1,6,-1
 630 1477 l 1,7,-1
 476 1477 l 1,4,-1
EndSplineSet
EndChar

StartChar: copyright
Encoding: 169 169 107
Width: 1765
GlyphClass: 2
Flags: W
LayerCount: 2
UndoRedoHistory
Layer: 1
Undoes
EndUndoes
Redoes
EndRedoes
EndUndoRedoHistory
Fore
SplineSet
867 249 m 0,0,1
 778 249 778 249 714 273.5 c 128,-1,2
 650 298 650 298 612 338 c 128,-1,3
 574 378 574 378 552.5 444 c 128,-1,4
 531 510 531 510 524 578 c 128,-1,5
 517 646 517 646 517 741 c 2,6,-1
 517 974 l 2,7,8
 517 1113 517 1113 532.5 1203.5 c 128,-1,9
 548 1294 548 1294 587.5 1358 c 128,-1,10
 627 1422 627 1422 694.5 1449.5 c 128,-1,11
 762 1477 762 1477 867 1477 c 0,12,13
 949 1477 949 1477 1008.5 1459 c 128,-1,14
 1068 1441 1068 1441 1104.5 1410 c 128,-1,15
 1141 1379 1141 1379 1162 1328 c 128,-1,16
 1183 1277 1183 1277 1190.5 1220.5 c 128,-1,17
 1198 1164 1198 1164 1198 1086 c 2,18,-1
 1198 1030 l 1,19,-1
 1052 1030 l 1,20,-1
 1052 1085 l 2,21,22
 1052 1197 1052 1197 1032.5 1256.5 c 128,-1,23
 1013 1316 1013 1316 975.5 1337.5 c 128,-1,24
 938 1359 938 1359 869 1359 c 0,25,26
 754 1359 754 1359 715.5 1283.5 c 128,-1,27
 677 1208 677 1208 677 1000 c 2,28,-1
 677 709 l 2,29,30
 677 515 677 515 718 441 c 128,-1,31
 759 367 759 367 870 367 c 0,32,33
 929 367 929 367 964.5 382 c 128,-1,34
 1000 397 1000 397 1019.5 434.5 c 128,-1,35
 1039 472 1039 472 1045.5 522.5 c 128,-1,36
 1052 573 1052 573 1052 658 c 2,37,-1
 1052 717 l 1,38,-1
 1198 717 l 1,39,-1
 1198 665 l 2,40,41
 1198 581 1198 581 1191 522.5 c 128,-1,42
 1184 464 1184 464 1163.5 409 c 128,-1,43
 1143 354 1143 354 1107 321 c 128,-1,44
 1071 288 1071 288 1011 268.5 c 128,-1,45
 951 249 951 249 867 249 c 0,0,1
886 50 m 128,-1,47
 1036 50 1036 50 1160 94.5 c 128,-1,48
 1284 139 1284 139 1369 214.5 c 128,-1,49
 1454 290 1454 290 1513 392.5 c 128,-1,50
 1572 495 1572 495 1599 608.5 c 128,-1,51
 1626 722 1626 722 1626 845 c 128,-1,52
 1626 968 1626 968 1599 1081 c 128,-1,53
 1572 1194 1572 1194 1513 1296 c 128,-1,54
 1454 1398 1454 1398 1369 1473 c 128,-1,55
 1284 1548 1284 1548 1160 1592 c 128,-1,56
 1036 1636 1036 1636 886 1636 c 128,-1,57
 736 1636 736 1636 612 1592 c 128,-1,58
 488 1548 488 1548 402.5 1473 c 128,-1,59
 317 1398 317 1398 258.5 1296 c 128,-1,60
 200 1194 200 1194 173 1081 c 128,-1,61
 146 968 146 968 146 845 c 128,-1,62
 146 722 146 722 173 608.5 c 128,-1,63
 200 495 200 495 258.5 392.5 c 128,-1,64
 317 290 317 290 402.5 214.5 c 128,-1,65
 488 139 488 139 612 94.5 c 128,-1,46
 736 50 736 50 886 50 c 128,-1,47
883 -22 m 0,66,67
 761 -22 761 -22 653.5 4 c 128,-1,68
 546 30 546 30 463.5 76.5 c 128,-1,69
 381 123 381 123 313.5 187.5 c 128,-1,70
 246 252 246 252 199.5 328 c 128,-1,71
 153 404 153 404 121 490 c 128,-1,72
 89 576 89 576 74.5 664 c 128,-1,73
 60 752 60 752 60 843 c 0,74,75
 60 972 60 972 89 1093.5 c 128,-1,76
 118 1215 118 1215 182 1327.5 c 128,-1,77
 246 1440 246 1440 340 1524 c 128,-1,78
 434 1608 434 1608 573.5 1658 c 128,-1,79
 713 1708 713 1708 883 1708 c 0,80,81
 1025 1708 1025 1708 1146.5 1673 c 128,-1,82
 1268 1638 1268 1638 1356.5 1576 c 128,-1,83
 1445 1514 1445 1514 1513 1432 c 128,-1,84
 1581 1350 1581 1350 1622.5 1252.5 c 128,-1,85
 1664 1155 1664 1155 1684.5 1052.5 c 128,-1,86
 1705 950 1705 950 1705 843 c 0,87,88
 1705 752 1705 752 1690.5 663.5 c 128,-1,89
 1676 575 1676 575 1644.5 489 c 128,-1,90
 1613 403 1613 403 1566.5 327.5 c 128,-1,91
 1520 252 1520 252 1452.5 187.5 c 128,-1,92
 1385 123 1385 123 1302.5 76.5 c 128,-1,93
 1220 30 1220 30 1113 4 c 128,-1,94
 1006 -22 1006 -22 883 -22 c 0,66,67
EndSplineSet
EndChar

StartChar: ordfeminine
Encoding: 170 170 108
Width: 842
GlyphClass: 2
Flags: W
LayerCount: 2
UndoRedoHistory
Layer: 1
Undoes
EndUndoes
Redoes
EndRedoes
EndUndoRedoHistory
Fore
SplineSet
358 696 m 0,0,1
 265 696 265 696 207.5 754.5 c 128,-1,2
 150 813 150 813 150 907 c 0,3,4
 150 938 150 938 155 964.5 c 128,-1,5
 160 991 160 991 168 1013 c 128,-1,6
 176 1035 176 1035 193.5 1056 c 128,-1,7
 211 1077 211 1077 227 1093 c 128,-1,8
 243 1109 243 1109 273.5 1127.5 c 128,-1,9
 304 1146 304 1146 329 1159.5 c 128,-1,10
 354 1173 354 1173 397.5 1192 c 128,-1,11
 441 1211 441 1211 475.5 1225 c 128,-1,12
 510 1239 510 1239 567 1261 c 1,13,-1
 567 1350 l 2,14,15
 567 1472 567 1472 540.5 1524 c 128,-1,16
 514 1576 514 1576 447 1576 c 0,17,18
 381 1576 381 1576 342.5 1531.5 c 128,-1,19
 304 1487 304 1487 304 1393 c 1,20,-1
 180 1395 l 1,21,22
 183 1533 183 1533 252 1607 c 128,-1,23
 321 1681 321 1681 448 1681 c 0,24,25
 591 1681 591 1681 645 1596 c 128,-1,26
 699 1511 699 1511 699 1322 c 2,27,-1
 699 710 l 1,28,-1
 582 710 l 1,29,-1
 576 833 l 1,30,31
 548 772 548 772 489 734 c 128,-1,32
 430 696 430 696 358 696 c 0,0,1
398 806 m 0,33,34
 453 806 453 806 496.5 839 c 128,-1,35
 540 872 540 872 567 925 c 1,36,-1
 567 1194 l 1,37,38
 511 1168 511 1168 487 1156 c 128,-1,39
 463 1144 463 1144 424 1123.5 c 128,-1,40
 385 1103 385 1103 369.5 1091 c 128,-1,41
 354 1079 354 1079 332 1059.5 c 128,-1,42
 310 1040 310 1040 302.5 1022.5 c 128,-1,43
 295 1005 295 1005 288.5 982 c 128,-1,44
 282 959 282 959 282 931 c 0,45,46
 282 868 282 868 315.5 837 c 128,-1,47
 349 806 349 806 398 806 c 0,33,34
EndSplineSet
EndChar

StartChar: guillemotleft
Encoding: 171 171 109
Width: 873
GlyphClass: 2
Flags: W
LayerCount: 2
UndoRedoHistory
Layer: 1
Undoes
EndUndoes
Redoes
EndRedoes
EndUndoRedoHistory
Fore
SplineSet
417 176 m 1,0,-1
 76 618 l 1,1,-1
 76 685 l 1,2,-1
 417 1126 l 1,3,-1
 417 935 l 1,4,-1
 201 654 l 1,5,-1
 417 367 l 1,6,-1
 417 176 l 1,0,-1
752 176 m 1,7,-1
 410 618 l 1,8,-1
 410 685 l 1,9,-1
 752 1126 l 1,10,-1
 752 935 l 1,11,-1
 535 652 l 1,12,-1
 752 367 l 1,13,-1
 752 176 l 1,7,-1
EndSplineSet
EndChar

StartChar: logicalnot
Encoding: 172 172 110
Width: 745
GlyphClass: 2
Flags: W
LayerCount: 2
UndoRedoHistory
Layer: 1
Undoes
EndUndoes
Redoes
EndRedoes
EndUndoRedoHistory
Fore
SplineSet
595 561 m 1,0,-1
 595 790 l 1,1,-1
 84 790 l 1,2,-1
 84 909 l 1,3,-1
 686 909 l 1,4,-1
 686 561 l 1,5,-1
 595 561 l 1,0,-1
EndSplineSet
EndChar

StartChar: uni00AD
Encoding: 173 173 111
Width: 684
GlyphClass: 2
Flags: W
LayerCount: 2
UndoRedoHistory
Layer: 1
Undoes
EndUndoes
Redoes
EndRedoes
EndUndoRedoHistory
Fore
SplineSet
118 758 m 1,0,-1
 118 874 l 1,1,-1
 575 874 l 1,2,-1
 575 758 l 1,3,-1
 118 758 l 1,0,-1
EndSplineSet
EndChar

StartChar: registered
Encoding: 174 174 112
Width: 1795
GlyphClass: 2
Flags: W
LayerCount: 2
UndoRedoHistory
Layer: 1
Undoes
EndUndoes
Redoes
EndRedoes
EndUndoRedoHistory
Fore
SplineSet
612 252 m 1,0,-1
 612 1437 l 1,1,-1
 948 1437 l 2,2,3
 1253 1437 1253 1437 1253 1122 c 0,4,5
 1253 1011 1253 1011 1206 935.5 c 128,-1,6
 1159 860 1159 860 1061 836 c 1,7,-1
 1267 252 l 1,8,-1
 1129 252 l 1,9,-1
 938 812 l 1,10,-1
 745 812 l 1,11,-1
 745 252 l 1,12,-1
 612 252 l 1,0,-1
745 893 m 1,13,-1
 913 893 l 2,14,15
 1033 893 1033 893 1075 948 c 128,-1,16
 1117 1003 1117 1003 1117 1125 c 0,17,18
 1117 1235 1117 1235 1076.5 1289 c 128,-1,19
 1036 1343 1036 1343 936 1343 c 2,20,-1
 745 1343 l 1,21,-1
 745 893 l 1,13,-1
898 55 m 0,22,23
 1044 55 1044 55 1166 98.5 c 128,-1,24
 1288 142 1288 142 1371 216.5 c 128,-1,25
 1454 291 1454 291 1512 391.5 c 128,-1,26
 1570 492 1570 492 1596.5 604 c 128,-1,27
 1623 716 1623 716 1623 836 c 0,28,29
 1623 957 1623 957 1596.5 1069 c 128,-1,30
 1570 1181 1570 1181 1512 1281 c 128,-1,31
 1454 1381 1454 1381 1371 1455 c 128,-1,32
 1288 1529 1288 1529 1166 1572 c 128,-1,33
 1044 1615 1044 1615 898 1615 c 0,34,35
 750 1615 750 1615 628 1572 c 128,-1,36
 506 1529 506 1529 422.5 1455 c 128,-1,37
 339 1381 339 1381 281.5 1281 c 128,-1,38
 224 1181 224 1181 197.5 1069 c 128,-1,39
 171 957 171 957 171 836 c 128,-1,40
 171 715 171 715 197.5 603.5 c 128,-1,41
 224 492 224 492 281.5 391.5 c 128,-1,42
 339 291 339 291 422.5 216.5 c 128,-1,43
 506 142 506 142 628 98.5 c 128,-1,44
 750 55 750 55 898 55 c 0,22,23
898 -25 m 128,-1,46
 729 -25 729 -25 590 25 c 128,-1,47
 451 75 451 75 357.5 158.5 c 128,-1,48
 264 242 264 242 200 354 c 128,-1,49
 136 466 136 466 107.5 587 c 128,-1,50
 79 708 79 708 79 836 c 128,-1,51
 79 964 79 964 107.5 1085 c 128,-1,52
 136 1206 136 1206 200 1318 c 128,-1,53
 264 1430 264 1430 357.5 1513 c 128,-1,54
 451 1596 451 1596 590 1646 c 128,-1,55
 729 1696 729 1696 898 1696 c 128,-1,56
 1067 1696 1067 1696 1205.5 1646 c 128,-1,57
 1344 1596 1344 1596 1437.5 1513 c 128,-1,58
 1531 1430 1531 1430 1595 1318 c 128,-1,59
 1659 1206 1659 1206 1687.5 1085 c 128,-1,60
 1716 964 1716 964 1716 836 c 128,-1,61
 1716 708 1716 708 1687.5 587 c 128,-1,62
 1659 466 1659 466 1595 354 c 128,-1,63
 1531 242 1531 242 1438 158.5 c 128,-1,64
 1345 75 1345 75 1206 25 c 128,-1,45
 1067 -25 1067 -25 898 -25 c 128,-1,46
EndSplineSet
EndChar

StartChar: macron
Encoding: 175 175 113
Width: 704
GlyphClass: 2
Flags: W
LayerCount: 2
UndoRedoHistory
Layer: 1
Undoes
EndUndoes
Redoes
EndRedoes
EndUndoRedoHistory
Fore
SplineSet
178 1562 m 1,0,-1
 178 1658 l 1,1,-1
 545 1658 l 1,2,-1
 545 1562 l 1,3,-1
 178 1562 l 1,0,-1
EndSplineSet
EndChar

StartChar: degree
Encoding: 176 176 114
Width: 846
GlyphClass: 2
Flags: W
LayerCount: 2
UndoRedoHistory
Layer: 1
Undoes
EndUndoes
Redoes
EndRedoes
EndUndoRedoHistory
Fore
SplineSet
423 1176 m 128,-1,1
 503 1176 503 1176 555 1227.5 c 128,-1,2
 607 1279 607 1279 607 1375 c 0,3,4
 607 1472 607 1472 555 1523.5 c 128,-1,5
 503 1575 503 1575 422 1575 c 0,6,7
 342 1575 342 1575 291 1523.5 c 128,-1,8
 240 1472 240 1472 240 1375 c 0,9,10
 240 1279 240 1279 291.5 1227.5 c 128,-1,0
 343 1176 343 1176 423 1176 c 128,-1,1
423 1074 m 0,11,12
 292 1074 292 1074 207 1152 c 128,-1,13
 122 1230 122 1230 122 1376 c 128,-1,14
 122 1522 122 1522 207 1599 c 128,-1,15
 292 1676 292 1676 423 1676 c 0,16,17
 553 1676 553 1676 638.5 1598.5 c 128,-1,18
 724 1521 724 1521 724 1376 c 0,19,20
 724 1230 724 1230 638.5 1152 c 128,-1,21
 553 1074 553 1074 423 1074 c 0,11,12
EndSplineSet
EndChar

StartChar: plusminus
Encoding: 177 177 115
Width: 695
GlyphClass: 2
Flags: W
LayerCount: 2
UndoRedoHistory
Layer: 1
Undoes
EndUndoes
Redoes
EndRedoes
EndUndoRedoHistory
Fore
SplineSet
291 369 m 1,0,-1
 291 553 l 1,1,-1
 106 553 l 1,2,-1
 106 677 l 1,3,-1
 291 677 l 1,4,-1
 291 861 l 1,5,-1
 417 861 l 1,6,-1
 417 677 l 1,7,-1
 602 677 l 1,8,-1
 602 553 l 1,9,-1
 417 553 l 1,10,-1
 417 369 l 1,11,-1
 291 369 l 1,0,-1
106 0 m 1,12,-1
 106 124 l 1,13,-1
 602 124 l 1,14,-1
 602 0 l 1,15,-1
 106 0 l 1,12,-1
EndSplineSet
EndChar

StartChar: uni00B2
Encoding: 178 178 116
Width: 848
GlyphClass: 2
Flags: W
LayerCount: 2
UndoRedoHistory
Layer: 1
Undoes
EndUndoes
Redoes
EndRedoes
EndUndoRedoHistory
Fore
SplineSet
169 687 m 1,0,-1
 169 777 l 1,1,-1
 457 1221 l 2,2,3
 466 1235 466 1235 488 1268 c 128,-1,4
 510 1301 510 1301 518.5 1314.5 c 128,-1,5
 527 1328 527 1328 542 1356 c 128,-1,6
 557 1384 557 1384 563 1404.5 c 128,-1,7
 569 1425 569 1425 574 1454 c 128,-1,8
 579 1483 579 1483 579 1515 c 0,9,10
 579 1699 579 1699 446 1699 c 0,11,12
 405 1699 405 1699 373 1672.5 c 128,-1,13
 341 1646 341 1646 324.5 1606 c 128,-1,14
 308 1566 308 1566 300 1528 c 128,-1,15
 292 1490 292 1490 292 1459 c 1,16,-1
 177 1459 l 1,17,-1
 177 1488 l 2,18,19
 177 1642 177 1642 240.5 1720.5 c 128,-1,20
 304 1799 304 1799 441 1799 c 0,21,22
 567 1799 567 1799 634 1726.5 c 128,-1,23
 701 1654 701 1654 701 1519 c 0,24,25
 701 1455 701 1455 682.5 1394.5 c 128,-1,26
 664 1334 664 1334 641.5 1295 c 128,-1,27
 619 1256 619 1256 574 1188 c 2,28,-1
 309 790 l 1,29,-1
 669 790 l 1,30,-1
 669 687 l 1,31,-1
 169 687 l 1,0,-1
EndSplineSet
EndChar

StartChar: uni00B3
Encoding: 179 179 117
Width: 850
GlyphClass: 2
Flags: W
LayerCount: 2
UndoRedoHistory
Layer: 1
Undoes
EndUndoes
Redoes
EndRedoes
EndUndoRedoHistory
Fore
SplineSet
439 675 m 0,0,1
 299 675 299 675 235.5 750 c 128,-1,2
 172 825 172 825 172 967 c 2,3,-1
 172 1012 l 1,4,-1
 305 1012 l 1,5,-1
 305 962 l 2,6,7
 305 788 305 788 439 788 c 0,8,9
 509 788 509 788 548.5 836 c 128,-1,10
 588 884 588 884 588 979 c 0,11,12
 588 1076 588 1076 550 1136 c 128,-1,13
 512 1196 512 1196 445 1196 c 2,14,-1
 362 1196 l 1,15,-1
 362 1301 l 1,16,-1
 442 1301 l 2,17,18
 512 1301 512 1301 548 1358.5 c 128,-1,19
 584 1416 584 1416 584 1522 c 0,20,21
 584 1605 584 1605 549 1648 c 128,-1,22
 514 1691 514 1691 448 1691 c 0,23,24
 308 1691 308 1691 308 1531 c 2,25,-1
 308 1471 l 1,26,-1
 175 1471 l 1,27,-1
 175 1527 l 2,28,29
 175 1653 175 1653 243 1726 c 128,-1,30
 311 1799 311 1799 445 1799 c 0,31,32
 576 1799 576 1799 642.5 1724.5 c 128,-1,33
 709 1650 709 1650 709 1515 c 0,34,35
 709 1409 709 1409 666.5 1340 c 128,-1,36
 624 1271 624 1271 567 1257 c 1,37,38
 713 1201 713 1201 713 992 c 0,39,40
 713 846 713 846 643.5 760.5 c 128,-1,41
 574 675 574 675 439 675 c 0,0,1
EndSplineSet
EndChar

StartChar: acute
Encoding: 180 180 118
Width: 477
GlyphClass: 2
Flags: W
LayerCount: 2
UndoRedoHistory
Layer: 1
Undoes
EndUndoes
Redoes
EndRedoes
EndUndoRedoHistory
Fore
SplineSet
97 1258 m 1,0,-1
 225 1658 l 1,1,-1
 376 1658 l 1,2,-1
 175 1258 l 1,3,-1
 97 1258 l 1,0,-1
EndSplineSet
EndChar

StartChar: mu
Encoding: 181 181 119
Width: 861
GlyphClass: 2
Flags: W
LayerCount: 2
UndoRedoHistory
Layer: 1
Undoes
EndUndoes
Redoes
EndRedoes
EndUndoRedoHistory
Fore
SplineSet
106 -355 m 1,0,-1
 105 1184 l 1,1,-1
 256 1184 l 1,2,-1
 256 266 l 2,3,4
 256 176 256 176 283 138 c 128,-1,5
 310 100 310 100 368 100 c 0,6,7
 469 100 469 100 578 216 c 1,8,-1
 578 1184 l 1,9,-1
 728 1184 l 1,10,-1
 728 0 l 1,11,-1
 578 0 l 1,12,-1
 578 131 l 1,13,14
 471 4 471 4 334 -12 c 1,15,16
 330 -12 330 -12 326 -12 c 0,17,18
 283 -12 283 -12 257 8 c 1,19,-1
 258 -355 l 1,20,-1
 106 -355 l 1,0,-1
EndSplineSet
EndChar

StartChar: paragraph
Encoding: 182 182 120
Width: 993
GlyphClass: 2
Flags: W
LayerCount: 2
UndoRedoHistory
Layer: 1
Undoes
EndUndoes
Redoes
EndRedoes
EndUndoRedoHistory
Fore
SplineSet
410 -194 m 1,0,-1
 410 1085 l 1,1,2
 408 1085 408 1085 406 1085 c 0,3,4
 248 1085 248 1085 154 1158 c 0,5,6
 60 1232 60 1232 59 1369 c 0,7,8
 59 1507 59 1507 150 1582.5 c 128,-1,9
 241 1658 241 1658 421 1658 c 2,10,-1
 848 1658 l 1,11,-1
 848 -194 l 1,12,-1
 738 -194 l 1,13,-1
 738 1574 l 1,14,-1
 520 1574 l 1,15,-1
 520 -194 l 1,16,-1
 410 -194 l 1,0,-1
EndSplineSet
EndChar

StartChar: periodcentered
Encoding: 183 183 121
Width: 385
GlyphClass: 2
Flags: W
LayerCount: 2
UndoRedoHistory
Layer: 1
Undoes
EndUndoes
Redoes
EndRedoes
EndUndoRedoHistory
Fore
SplineSet
132 683 m 1,0,-1
 132 863 l 1,1,-1
 284 863 l 1,2,-1
 284 683 l 1,3,-1
 132 683 l 1,0,-1
EndSplineSet
EndChar

StartChar: cedilla
Encoding: 184 184 122
Width: 462
GlyphClass: 4
Flags: W
AnchorPoint: "Anchor-1" 120 0 mark 0
LayerCount: 2
UndoRedoHistory
Layer: 1
Undoes
EndUndoes
Redoes
EndRedoes
EndUndoRedoHistory
Fore
SplineSet
56 -409 m 1,0,-1
 56 -332 l 1,1,2
 97 -337 97 -337 129 -337 c 0,3,4
 252 -337 252 -337 257 -265 c 0,5,6
 257 -261 257 -261 257 -256 c 0,7,8
 256 -212 256 -212 220 -186 c 0,9,10
 180 -158 180 -158 105 -144 c 1,11,-1
 105 0 l 1,12,-1
 184 0 l 1,13,-1
 184 -104 l 1,14,15
 267 -116 267 -116 319.5 -161.5 c 128,-1,16
 372 -207 372 -207 371 -269 c 1,17,18
 371 -360 371 -360 285 -396 c 0,19,20
 233 -418 233 -418 160 -419 c 0,21,22
 113 -419 113 -419 56 -409 c 1,0,-1
EndSplineSet
EndChar

StartChar: uni00B9
Encoding: 185 185 123
Width: 825
GlyphClass: 2
Flags: W
LayerCount: 2
UndoRedoHistory
Layer: 1
Undoes
EndUndoes
Redoes
EndRedoes
EndUndoRedoHistory
Fore
SplineSet
404 686 m 1,0,-1
 403 1628 l 1,1,2
 379 1594 379 1594 211 1553 c 1,3,-1
 211 1644 l 1,4,5
 359 1689 359 1689 425 1781 c 1,6,-1
 521 1781 l 1,7,-1
 522 686 l 1,8,-1
 404 686 l 1,0,-1
EndSplineSet
EndChar

StartChar: ordmasculine
Encoding: 186 186 124
Width: 842
GlyphClass: 2
Flags: W
LayerCount: 2
UndoRedoHistory
Layer: 1
Undoes
EndUndoes
Redoes
EndRedoes
EndUndoRedoHistory
Fore
SplineSet
421 694 m 0,0,1
 339 694 339 694 281.5 717 c 128,-1,2
 224 740 224 740 192 785.5 c 128,-1,3
 160 831 160 831 146.5 889 c 128,-1,4
 133 947 133 947 133 1025 c 2,5,-1
 133 1352 l 2,6,7
 133 1512 133 1512 198.5 1596.5 c 128,-1,8
 264 1681 264 1681 421 1681 c 0,9,10
 709 1681 709 1681 709 1352 c 2,11,-1
 709 1025 l 2,12,13
 709 949 709 949 694.5 891 c 128,-1,14
 680 833 680 833 648 787.5 c 128,-1,15
 616 742 616 742 559 718 c 128,-1,16
 502 694 502 694 421 694 c 0,0,1
419 798 m 128,-1,18
 469 798 469 798 502.5 815.5 c 128,-1,19
 536 833 536 833 553 867.5 c 128,-1,20
 570 902 570 902 576 941 c 128,-1,21
 582 980 582 980 582 1035 c 2,22,-1
 582 1342 l 2,23,24
 582 1397 582 1397 576 1436 c 128,-1,25
 570 1475 570 1475 553 1509 c 128,-1,26
 536 1543 536 1543 502.5 1560.5 c 128,-1,27
 469 1578 469 1578 419 1578 c 0,28,29
 370 1578 370 1578 336.5 1560.5 c 128,-1,30
 303 1543 303 1543 286 1509 c 128,-1,31
 269 1475 269 1475 262 1435.5 c 128,-1,32
 255 1396 255 1396 255 1342 c 2,33,-1
 255 1035 l 2,34,35
 255 980 255 980 261.5 941 c 128,-1,36
 268 902 268 902 285 867.5 c 128,-1,37
 302 833 302 833 335.5 815.5 c 128,-1,17
 369 798 369 798 419 798 c 128,-1,18
EndSplineSet
EndChar

StartChar: guillemotright
Encoding: 187 187 125
Width: 901
GlyphClass: 2
Flags: W
LayerCount: 2
UndoRedoHistory
Layer: 1
Undoes
EndUndoes
Redoes
EndRedoes
EndUndoRedoHistory
Fore
SplineSet
111 176 m 1,0,-1
 111 367 l 1,1,-1
 338 651 l 1,2,-1
 111 935 l 1,3,-1
 111 1126 l 1,4,-1
 463 684 l 1,5,-1
 463 617 l 1,6,-1
 111 176 l 1,0,-1
446 176 m 1,7,-1
 446 367 l 1,8,-1
 672 649 l 1,9,-1
 446 935 l 1,10,-1
 446 1126 l 1,11,-1
 797 684 l 1,12,-1
 797 617 l 1,13,-1
 446 176 l 1,7,-1
EndSplineSet
EndChar

StartChar: onequarter
Encoding: 188 188 126
Width: 1583
GlyphClass: 2
Flags: W
LayerCount: 2
UndoRedoHistory
Layer: 1
Undoes
EndUndoes
Redoes
EndRedoes
EndUndoRedoHistory
Fore
SplineSet
1247 -9 m 1,0,-1
 1247 270 l 1,1,-1
 936 270 l 1,2,-1
 936 356 l 1,3,-1
 1253 1005 l 1,4,-1
 1368 1006 l 1,5,-1
 1368 358 l 1,6,-1
 1494 358 l 1,7,-1
 1494 270 l 1,8,-1
 1368 270 l 1,9,-1
 1368 -9 l 1,10,-1
 1247 -9 l 1,0,-1
255 668 m 1,11,-1
 255 1476 l 1,12,-1
 114 1424 l 1,13,-1
 114 1516 l 1,14,15
 169 1543 169 1543 228.5 1584.5 c 128,-1,16
 288 1626 288 1626 315 1658 c 1,17,-1
 373 1658 l 1,18,-1
 373 668 l 1,19,-1
 255 668 l 1,11,-1
397 0 m 1,20,-1
 969 1658 l 1,21,-1
 1099 1658 l 1,22,-1
 528 0 l 1,23,-1
 397 0 l 1,20,-1
1038 358 m 1,24,-1
 1247 358 l 1,25,-1
 1247 827 l 1,26,-1
 1038 358 l 1,24,-1
EndSplineSet
EndChar

StartChar: onehalf
Encoding: 189 189 127
Width: 1583
GlyphClass: 2
Flags: W
LayerCount: 2
UndoRedoHistory
Layer: 1
Undoes
EndUndoes
Redoes
EndRedoes
EndUndoRedoHistory
Fore
SplineSet
1012 0 m 1,0,-1
 1012 88 l 1,1,-1
 1238 412 l 2,2,3
 1244 421 1244 421 1270.5 457 c 128,-1,4
 1297 493 1297 493 1305 507 c 128,-1,5
 1313 521 1313 521 1328.5 551.5 c 128,-1,6
 1344 582 1344 582 1349.5 610 c 128,-1,7
 1355 638 1355 638 1355 670 c 0,8,9
 1355 746 1355 746 1331 786 c 128,-1,10
 1307 826 1307 826 1247 826 c 0,11,12
 1180 826 1180 826 1155 783.5 c 128,-1,13
 1130 741 1130 741 1130 656 c 1,14,-1
 1013 656 l 1,15,-1
 1013 671 l 1,16,17
 1018 915 1018 915 1247 915 c 0,18,19
 1356 915 1356 915 1417 852 c 128,-1,20
 1478 789 1478 789 1478 673 c 0,21,22
 1478 591 1478 591 1439.5 517 c 128,-1,23
 1401 443 1401 443 1326 346 c 0,24,25
 1314 332 1314 332 1227.5 211.5 c 128,-1,26
 1141 91 1141 91 1139 89 c 1,27,-1
 1461 89 l 1,28,-1
 1461 0 l 1,29,-1
 1012 0 l 1,0,-1
264 668 m 1,30,-1
 264 1476 l 1,31,-1
 122 1424 l 1,32,-1
 122 1516 l 1,33,34
 178 1543 178 1543 237 1584.5 c 128,-1,35
 296 1626 296 1626 323 1658 c 1,36,-1
 382 1658 l 1,37,-1
 382 668 l 1,38,-1
 264 668 l 1,30,-1
402 0 m 1,39,-1
 974 1658 l 1,40,-1
 1104 1658 l 1,41,-1
 532 0 l 1,42,-1
 402 0 l 1,39,-1
EndSplineSet
EndChar

StartChar: threequarters
Encoding: 190 190 128
Width: 1583
GlyphClass: 2
Flags: W
LayerCount: 2
UndoRedoHistory
Layer: 1
Undoes
EndUndoes
Redoes
EndRedoes
EndUndoRedoHistory
Fore
SplineSet
301 748 m 0,0,1
 192 748 192 748 135.5 809 c 128,-1,2
 79 870 79 870 79 978 c 1,3,-1
 202 976 l 1,4,5
 202 910 202 910 224 873 c 128,-1,6
 246 836 246 836 304 836 c 0,7,8
 416 836 416 836 416 1003 c 0,9,10
 416 1172 416 1172 285 1172 c 1,11,-1
 285 1262 l 1,12,13
 352 1262 352 1262 382 1300.5 c 128,-1,14
 412 1339 412 1339 412 1431 c 0,15,16
 412 1580 412 1580 313 1580 c 0,17,18
 252 1580 252 1580 228 1544.5 c 128,-1,19
 204 1509 204 1509 204 1441 c 1,20,-1
 81 1439 l 1,21,22
 81 1547 81 1547 139 1608 c 128,-1,23
 197 1669 197 1669 312 1669 c 0,24,25
 421 1669 421 1669 477.5 1604 c 128,-1,26
 534 1539 534 1539 534 1431 c 0,27,28
 534 1332 534 1332 491 1278.5 c 128,-1,29
 448 1225 448 1225 379 1218 c 1,30,31
 538 1192 538 1192 538 1004 c 0,32,33
 538 886 538 886 476.5 817 c 128,-1,34
 415 748 415 748 301 748 c 0,0,1
1279 -9 m 1,35,-1
 1279 270 l 1,36,-1
 967 270 l 1,37,-1
 967 356 l 1,38,-1
 1284 1005 l 1,39,-1
 1398 1005 l 1,40,-1
 1398 358 l 1,41,-1
 1524 358 l 1,42,-1
 1524 270 l 1,43,-1
 1398 270 l 1,44,-1
 1398 -9 l 1,45,-1
 1279 -9 l 1,35,-1
437 0 m 1,46,-1
 1009 1658 l 1,47,-1
 1139 1658 l 1,48,-1
 568 0 l 1,49,-1
 437 0 l 1,46,-1
1070 358 m 1,50,-1
 1279 358 l 1,51,-1
 1279 827 l 1,52,-1
 1070 358 l 1,50,-1
EndSplineSet
EndChar

StartChar: questiondown
Encoding: 191 191 129
Width: 944
GlyphClass: 2
Flags: W
LayerCount: 2
UndoRedoHistory
Layer: 1
Undoes
EndUndoes
Redoes
EndRedoes
EndUndoRedoHistory
Fore
SplineSet
453 -426 m 0,0,1
 278 -426 278 -426 169.5 -314 c 128,-1,2
 61 -202 61 -202 61 7 c 0,3,4
 61 106 61 106 87 191 c 128,-1,5
 113 276 113 276 167.5 352 c 128,-1,6
 222 428 222 428 287 491 c 128,-1,7
 352 554 352 554 448 630 c 1,8,-1
 448 842 l 1,9,-1
 580 842 l 1,10,-1
 580 589 l 1,11,12
 391 452 391 452 299 312 c 128,-1,13
 207 172 207 172 207 4 c 0,14,15
 207 -139 207 -139 277.5 -217 c 128,-1,16
 348 -295 348 -295 454 -295 c 0,17,18
 571 -296 571 -296 631 -230 c 0,19,20
 674 -183 674 -183 674 -109 c 0,21,22
 674 -81 674 -81 668 -50 c 1,23,-1
 654 24 l 1,24,-1
 790 53 l 1,25,-1
 807 -20 l 1,26,27
 818 -72 818 -72 818 -118 c 0,28,29
 818 -158 818 -158 810 -194 c 0,30,31
 792 -270 792 -270 741.5 -321.5 c 128,-1,32
 691 -373 691 -373 617 -399.5 c 128,-1,33
 543 -426 543 -426 453 -426 c 0,0,1
437 1076 m 1,34,-1
 437 1253 l 1,35,-1
 586 1253 l 1,36,-1
 586 1076 l 1,37,-1
 437 1076 l 1,34,-1
EndSplineSet
EndChar

StartChar: AE
Encoding: 198 198 136
Width: 1338
GlyphClass: 2
Flags: W
LayerCount: 2
UndoRedoHistory
Layer: 1
Undoes
EndUndoes
Redoes
EndRedoes
EndUndoRedoHistory
Fore
SplineSet
-17 0 m 1,0,-1
 648 1658 l 1,1,-1
 1270 1658 l 1,2,-1
 1270 1535 l 1,3,-1
 826 1535 l 1,4,-1
 826 923 l 1,5,-1
 1143 923 l 1,6,-1
 1143 805 l 1,7,-1
 826 805 l 1,8,-1
 826 123 l 1,9,-1
 1270 123 l 1,10,-1
 1270 0 l 1,11,-1
 670 0 l 1,12,-1
 670 444 l 1,13,-1
 321 444 l 1,14,-1
 148 0 l 1,15,-1
 -17 0 l 1,0,-1
365 562 m 1,16,-1
 669 562 l 1,17,-1
 669 1396 l 1,18,-1
 365 562 l 1,16,-1
EndSplineSet
EndChar

StartChar: Eth
Encoding: 208 208 146
Width: 1078
GlyphClass: 2
Flags: W
LayerCount: 2
UndoRedoHistory
Layer: 1
Undoes
EndUndoes
Redoes
EndRedoes
EndUndoRedoHistory
Fore
SplineSet
312 117 m 1,0,-1
 521 117 l 2,1,2
 598 117 598 117 651.5 138.5 c 128,-1,3
 705 160 705 160 735.5 193.5 c 128,-1,4
 766 227 766 227 783 285 c 128,-1,5
 800 343 800 343 804.5 398.5 c 128,-1,6
 809 454 809 454 809 536 c 2,7,-1
 809 1155 l 2,8,9
 809 1235 809 1235 802.5 1291 c 128,-1,10
 796 1347 796 1347 777.5 1396.5 c 128,-1,11
 759 1446 759 1446 726.5 1475.5 c 128,-1,12
 694 1505 694 1505 641.5 1521.5 c 128,-1,13
 589 1538 589 1538 516 1538 c 2,14,-1
 312 1538 l 1,15,-1
 312 917 l 1,16,-1
 478 917 l 1,17,-1
 478 821 l 1,18,-1
 312 821 l 1,19,-1
 312 117 l 1,0,-1
155 0 m 1,20,-1
 155 821 l 1,21,-1
 34 821 l 1,22,-1
 34 917 l 1,23,-1
 155 917 l 1,24,-1
 155 1658 l 1,25,-1
 518 1658 l 2,26,27
 619 1658 619 1658 696.5 1635 c 128,-1,28
 774 1612 774 1612 825 1571 c 128,-1,29
 876 1530 876 1530 908 1468 c 128,-1,30
 940 1406 940 1406 953.5 1334 c 128,-1,31
 967 1262 967 1262 967 1171 c 2,32,-1
 967 512 l 2,33,34
 967 391 967 391 945 300 c 128,-1,35
 923 209 923 209 873 140 c 128,-1,36
 823 71 823 71 737.5 35.5 c 128,-1,37
 652 0 652 0 530 0 c 2,38,-1
 155 0 l 1,20,-1
EndSplineSet
EndChar

StartChar: multiply
Encoding: 215 215 153
Width: 724
GlyphClass: 2
Flags: W
LayerCount: 2
UndoRedoHistory
Layer: 1
Undoes
EndUndoes
Redoes
EndRedoes
EndUndoRedoHistory
Fore
SplineSet
161 524 m 1,0,-1
 83 601 l 1,1,-1
 284 803 l 1,2,-1
 83 1004 l 1,3,-1
 161 1081 l 1,4,-1
 362 880 l 1,5,-1
 563 1081 l 1,6,-1
 641 1004 l 1,7,-1
 439 803 l 1,8,-1
 641 601 l 1,9,-1
 563 524 l 1,10,-1
 362 725 l 1,11,-1
 161 524 l 1,0,-1
EndSplineSet
EndChar

StartChar: Oslash
Encoding: 216 216 154
Width: 1084
GlyphClass: 2
Flags: W
LayerCount: 2
UndoRedoHistory
Layer: 1
Undoes
EndUndoes
Redoes
EndRedoes
EndUndoRedoHistory
Fore
SplineSet
537 105 m 0,0,1
 617 105 617 105 671 129.5 c 128,-1,2
 725 154 725 154 753.5 203 c 128,-1,3
 782 252 782 252 793.5 312 c 128,-1,4
 805 372 805 372 805 456 c 2,5,-1
 805 1206 l 2,6,7
 805 1290 805 1290 793.5 1349.5 c 128,-1,8
 782 1409 782 1409 754 1457 c 0,9,10
 752 1460 752 1460 749 1464 c 1,11,-1
 378 143 l 1,12,13
 390 136 390 136 403 130 c 0,14,15
 457 106 457 106 537 105 c 0,0,1
288 -178 m 1,16,-1
 226 -159 l 1,17,-1
 283 42 l 1,18,19
 232 74 232 74 200 122 c 0,20,21
 152 192 152 192 131.5 282 c 128,-1,22
 111 372 111 372 111 490 c 2,23,-1
 111 1178 l 2,24,25
 111 1295 111 1295 132.5 1383 c 128,-1,26
 154 1471 154 1471 202.5 1538.5 c 128,-1,27
 251 1606 251 1606 335 1641 c 128,-1,28
 419 1676 419 1676 537 1676 c 0,29,30
 651 1676 651 1676 733 1644 c 1,31,-1
 783 1823 l 1,32,-1
 846 1807 l 1,33,-1
 792 1614 l 1,34,35
 840 1583 840 1583 872 1538 c 0,36,37
 920 1470 920 1470 941.5 1382 c 128,-1,38
 963 1294 963 1294 963 1178 c 2,39,-1
 963 488 l 2,40,41
 963 395 963 395 950.5 320 c 128,-1,42
 938 245 938 245 907.5 180 c 128,-1,43
 877 115 877 115 829 71.5 c 128,-1,44
 781 28 781 28 707 3.5 c 128,-1,45
 633 -21 633 -21 537 -21 c 0,46,47
 423 -21 423 -21 341 12 c 1,48,-1
 288 -178 l 1,16,-1
696 1515 m 1,49,50
 684 1522 684 1522 671 1528 c 0,51,52
 617 1552 617 1552 537 1552 c 128,-1,53
 457 1552 457 1552 403 1528.5 c 128,-1,54
 349 1505 349 1505 320.5 1457 c 128,-1,55
 292 1409 292 1409 280.5 1349.5 c 128,-1,56
 269 1290 269 1290 269 1206 c 2,57,-1
 269 456 l 2,58,59
 269 372 269 372 280.5 312 c 128,-1,60
 292 252 292 252 320 203 c 0,61,62
 322 199 322 199 325 195 c 1,63,-1
 696 1515 l 1,49,50
EndSplineSet
EndChar

StartChar: Thorn
Encoding: 222 222 160
Width: 1033
GlyphClass: 2
Flags: W
LayerCount: 2
UndoRedoHistory
Layer: 1
Undoes
EndUndoes
Redoes
EndRedoes
EndUndoRedoHistory
Fore
SplineSet
144 0 m 1,0,-1
 144 1658 l 1,1,-1
 301 1658 l 1,2,-1
 301 1444 l 1,3,-1
 585 1444 l 2,4,5
 690 1444 690 1444 767 1408.5 c 128,-1,6
 844 1373 844 1373 889 1309 c 128,-1,7
 934 1245 934 1245 955.5 1163.5 c 128,-1,8
 977 1082 977 1082 977 981 c 0,9,10
 977 902 977 902 964.5 833.5 c 128,-1,11
 952 765 952 765 922 702.5 c 128,-1,12
 892 640 892 640 846 596 c 128,-1,13
 800 552 800 552 728 526 c 128,-1,14
 656 500 656 500 564 500 c 2,15,-1
 301 500 l 1,16,-1
 301 0 l 1,17,-1
 144 0 l 1,0,-1
301 630 m 1,18,-1
 532 630 l 2,19,20
 682 630 682 630 751.5 711 c 128,-1,21
 821 792 821 792 821 979 c 0,22,23
 821 1156 821 1156 753 1234 c 128,-1,24
 685 1312 685 1312 548 1312 c 2,25,-1
 301 1312 l 1,26,-1
 301 630 l 1,18,-1
EndSplineSet
EndChar

StartChar: germandbls
Encoding: 223 223 161
Width: 978
GlyphClass: 2
Flags: W
LayerCount: 2
UndoRedoHistory
Layer: 1
Undoes
EndUndoes
Redoes
EndRedoes
EndUndoRedoHistory
Fore
SplineSet
379 -21 m 1,0,-1
 379 105 l 1,1,2
 471 105 471 105 539.5 126 c 128,-1,3
 608 147 608 147 648.5 181 c 128,-1,4
 689 215 689 215 713 266 c 128,-1,5
 737 317 737 317 745.5 367.5 c 128,-1,6
 754 418 754 418 754 482 c 0,7,8
 754 556 754 556 738.5 618 c 128,-1,9
 723 680 723 680 689.5 731 c 128,-1,10
 656 782 656 782 597 810.5 c 128,-1,11
 538 839 538 839 457 839 c 1,12,-1
 460 964 l 1,13,14
 521 964 521 964 565 989.5 c 128,-1,15
 609 1015 609 1015 633 1061 c 128,-1,16
 657 1107 657 1107 668 1161 c 128,-1,17
 679 1215 679 1215 679 1281 c 0,18,19
 679 1423 679 1423 630.5 1496.5 c 128,-1,20
 582 1570 582 1570 471 1570 c 0,21,22
 399 1570 399 1570 355.5 1542.5 c 128,-1,23
 312 1515 312 1515 289 1445 c 128,-1,24
 266 1375 266 1375 266 1254 c 2,25,-1
 266 0 l 1,26,-1
 116 0 l 1,27,-1
 116 1251 l 2,28,29
 116 1484 116 1484 201 1587.5 c 128,-1,30
 286 1691 286 1691 459 1691 c 0,31,32
 635 1691 635 1691 730 1586.5 c 128,-1,33
 825 1482 825 1482 825 1281 c 0,34,35
 825 991 825 991 625 912 c 1,36,37
 766 879 766 879 834 763.5 c 128,-1,38
 902 648 902 648 902 486 c 0,39,40
 902 -21 902 -21 379 -21 c 1,0,-1
EndSplineSet
EndChar

StartChar: ae
Encoding: 230 230 168
Width: 1274
GlyphClass: 2
Flags: W
LayerCount: 2
UndoRedoHistory
Layer: 1
Undoes
EndUndoes
Redoes
EndRedoes
EndUndoRedoHistory
Fore
SplineSet
318 -19 m 1,0,1
 213 -15 213 -15 147 60 c 128,-1,2
 81 135 81 135 81 247 c 0,3,4
 81 381 81 381 148.5 466.5 c 128,-1,5
 216 552 216 552 391 610 c 1,6,-1
 562 665 l 1,7,-1
 562 803 l 2,8,9
 562 959 562 959 528 1022.5 c 128,-1,10
 494 1086 494 1086 411 1086 c 0,11,12
 333 1086 333 1086 287.5 1034 c 128,-1,13
 242 982 242 982 242 869 c 1,14,-1
 96 871 l 1,15,16
 97 1031 97 1031 179.5 1116.5 c 128,-1,17
 262 1202 262 1202 412 1202 c 0,18,19
 501 1202 501 1202 561.5 1156.5 c 128,-1,20
 622 1111 622 1111 637 1026 c 1,21,22
 663 1115 663 1115 729 1158.5 c 128,-1,23
 795 1202 795 1202 883 1202 c 0,24,25
 1025 1202 1025 1202 1101 1119 c 128,-1,26
 1177 1036 1177 1036 1177 898 c 0,27,28
 1177 802 1177 802 1108 749 c 128,-1,29
 1039 696 1039 696 910 661 c 1,30,-1
 713 601 l 1,31,-1
 713 482 l 2,32,33
 713 289 713 289 749 195 c 128,-1,34
 785 101 785 101 881 101 c 0,35,36
 954 101 954 101 995.5 153 c 128,-1,37
 1037 205 1037 205 1037 335 c 2,38,-1
 1037 405 l 1,39,-1
 1186 405 l 1,40,-1
 1186 336 l 2,41,42
 1186 166 1186 166 1114.5 73.5 c 128,-1,43
 1043 -19 1043 -19 880 -19 c 0,44,45
 777 -19 777 -19 706 41 c 128,-1,46
 635 101 635 101 619 222 c 1,47,48
 582 100 582 100 500 38 c 0,49,50
 424 -19 424 -19 333 -19 c 0,51,52
 325 -19 325 -19 318 -19 c 1,0,1
368 99 m 0,53,54
 449 99 449 99 505.5 181.5 c 128,-1,55
 562 264 562 264 562 440 c 2,56,-1
 562 572 l 1,57,58
 554 570 554 570 495 547 c 128,-1,59
 436 524 436 524 433 523 c 0,60,61
 311 474 311 474 270 418 c 0,62,63
 230 364 230 364 230 275 c 0,64,65
 230 186 230 186 272 142 c 0,66,67
 312 99 312 99 368 99 c 0,53,54
713 691 m 1,68,-1
 886 746 l 1,69,70
 972 771 972 771 1005.5 806 c 128,-1,71
 1039 841 1039 841 1039 910 c 0,72,73
 1039 984 1039 984 1001.5 1032.5 c 128,-1,74
 964 1081 964 1081 883 1081 c 0,75,76
 793 1081 793 1081 753 1016 c 128,-1,77
 713 951 713 951 713 797 c 2,78,-1
 713 691 l 1,68,-1
EndSplineSet
EndChar

StartChar: eth
Encoding: 240 240 178
Width: 912
GlyphClass: 2
Flags: W
LayerCount: 2
UndoRedoHistory
Layer: 1
Undoes
EndUndoes
Redoes
EndRedoes
EndUndoRedoHistory
Fore
SplineSet
793 500 m 2,0,1
 793 238 793 238 716 108.5 c 128,-1,2
 639 -21 639 -21 450 -21 c 0,3,4
 353 -21 353 -21 285.5 11.5 c 128,-1,5
 218 44 218 44 180.5 109 c 128,-1,6
 143 174 143 174 127 258 c 128,-1,7
 111 342 111 342 111 458 c 2,8,-1
 111 611 l 2,9,10
 111 872 111 872 186 1006 c 128,-1,11
 261 1140 261 1140 426 1140 c 0,12,13
 529 1140 529 1140 627 1077 c 1,14,15
 604 1270 604 1270 555 1355 c 1,16,-1
 333 1291 l 1,17,-1
 333 1376 l 1,18,-1
 514 1425 l 1,19,20
 471 1501 471 1501 387 1540 c 128,-1,21
 303 1579 303 1579 163 1588 c 1,22,-1
 171 1688 l 1,23,24
 346 1683 346 1683 458 1631 c 128,-1,25
 570 1579 570 1579 633 1464 c 1,26,-1
 826 1518 l 1,27,-1
 826 1433 l 1,28,-1
 672 1392 l 1,29,30
 715 1297 715 1297 754 1108.5 c 128,-1,31
 793 920 793 920 793 715 c 2,32,-1
 793 500 l 2,0,1
259 548 m 0,33,34
 259 459 259 459 263.5 394.5 c 128,-1,35
 268 330 268 330 280.5 271.5 c 128,-1,36
 293 213 293 213 314.5 177 c 128,-1,37
 336 141 336 141 371 120.5 c 128,-1,38
 406 100 406 100 454 100 c 0,39,40
 504 100 504 100 538.5 117 c 128,-1,41
 573 134 573 134 594 164.5 c 128,-1,42
 615 195 615 195 626 251 c 128,-1,43
 637 307 637 307 641 370 c 128,-1,44
 645 433 645 433 645 531 c 0,45,46
 645 582 645 582 639 766 c 128,-1,47
 633 950 633 950 631 960 c 1,48,49
 628 962 628 962 605.5 974 c 128,-1,50
 583 986 583 986 573 990.5 c 128,-1,51
 563 995 563 995 542.5 1003 c 128,-1,52
 522 1011 522 1011 502.5 1014.5 c 128,-1,53
 483 1018 483 1018 462 1018 c 0,54,55
 356 1018 356 1018 307.5 909.5 c 128,-1,56
 259 801 259 801 259 548 c 0,33,34
EndSplineSet
EndChar

StartChar: divide
Encoding: 247 247 185
Width: 690
GlyphClass: 2
Flags: W
LayerCount: 2
UndoRedoHistory
Layer: 1
Undoes
EndUndoes
Redoes
EndRedoes
EndUndoRedoHistory
Fore
SplineSet
280 402 m 1,0,-1
 280 587 l 1,1,-1
 409 587 l 1,2,-1
 409 402 l 1,3,-1
 280 402 l 1,0,-1
53 794 m 1,4,-1
 53 908 l 1,5,-1
 637 908 l 1,6,-1
 637 794 l 1,7,-1
 53 794 l 1,4,-1
280 1091 m 1,8,-1
 280 1276 l 1,9,-1
 409 1276 l 1,10,-1
 409 1091 l 1,11,-1
 280 1091 l 1,8,-1
EndSplineSet
EndChar

StartChar: oslash
Encoding: 248 248 186
Width: 816
GlyphClass: 2
Flags: W
LayerCount: 2
UndoRedoHistory
Layer: 1
Undoes
EndUndoes
Redoes
EndRedoes
EndUndoRedoHistory
Fore
SplineSet
408 94 m 0,0,1
 453 94 453 94 484 110.5 c 128,-1,2
 515 127 515 127 532.5 152 c 128,-1,3
 550 177 550 177 559 223 c 128,-1,4
 568 269 568 269 570.5 311 c 128,-1,5
 573 353 573 353 573 420 c 2,6,-1
 573 764 l 2,7,8
 572 831 572 831 570 873 c 0,9,10
 569 892 569 892 567 911 c 1,11,-1
 287 149 l 1,12,13
 291 142 291 142 296 136 c 0,14,15
 314 114 314 114 342 104 c 128,-1,16
 370 94 370 94 408 94 c 0,0,1
408 -19 m 128,-1,18
 317 -19 317 -19 255 10 c 0,19,20
 247 14 247 14 239 18 c 1,21,-1
 174 -157 l 1,22,-1
 124 -139 l 1,23,-1
 194 52 l 1,24,25
 174 72 174 72 158 98 c 0,26,27
 122 157 122 157 107 236.5 c 128,-1,28
 92 316 92 316 92 428 c 2,29,-1
 92 756 l 2,30,31
 92 982 92 982 162 1092 c 128,-1,32
 232 1202 232 1202 408 1202 c 0,33,34
 524 1202 524 1202 594 1155 c 1,35,-1
 656 1324 l 1,36,-1
 712 1305 l 1,37,-1
 641 1112 l 1,38,39
 648 1102 648 1102 654 1092 c 0,40,41
 724 982 724 982 724 756 c 2,42,-1
 724 428 l 2,43,44
 724 316 724 316 709 236.5 c 128,-1,45
 694 157 694 157 658.5 98 c 128,-1,46
 623 39 623 39 561 10 c 128,-1,17
 499 -19 499 -19 408 -19 c 128,-1,18
543 1013 m 1,47,48
 538 1023 538 1023 532 1032 c 0,49,50
 514 1057 514 1057 483.5 1073.5 c 128,-1,51
 453 1090 453 1090 408 1090 c 0,52,53
 370 1090 370 1090 342 1080 c 128,-1,54
 314 1070 314 1070 296 1047.5 c 128,-1,55
 278 1025 278 1025 267 999.5 c 128,-1,56
 256 974 256 974 250.5 933 c 128,-1,57
 245 892 245 892 243.5 855.5 c 128,-1,58
 242 819 242 819 242 764 c 2,59,-1
 242 420 l 2,60,61
 242 365 242 365 243.5 328.5 c 0,62,63
 244 292 244 292 250 251 c 0,64,65
 252 236 252 236 255 222 c 1,66,-1
 543 1013 l 1,47,48
EndSplineSet
EndChar

StartChar: thorn
Encoding: 254 254 192
Width: 853
GlyphClass: 2
Flags: W
LayerCount: 2
UndoRedoHistory
Layer: 1
Undoes
EndUndoes
Redoes
EndRedoes
EndUndoRedoHistory
Fore
SplineSet
116 -390 m 1,0,-1
 116 1658 l 1,1,-1
 266 1658 l 1,2,-1
 266 1085 l 1,3,4
 361 1202 361 1202 493 1202 c 0,5,6
 559 1202 559 1202 608.5 1175 c 128,-1,7
 658 1148 658 1148 686.5 1105 c 128,-1,8
 715 1062 715 1062 732.5 998 c 128,-1,9
 750 934 750 934 755.5 871.5 c 128,-1,10
 761 809 761 809 761 730 c 2,11,-1
 761 480 l 2,12,13
 761 386 761 386 753 312 c 128,-1,14
 745 238 745 238 725 174.5 c 128,-1,15
 705 111 705 111 672.5 69.5 c 128,-1,16
 640 28 640 28 591 4.5 c 128,-1,17
 542 -19 542 -19 477 -19 c 0,18,19
 362 -19 362 -19 266 94 c 1,20,-1
 266 -390 l 1,21,-1
 116 -390 l 1,0,-1
453 100 m 0,22,23
 493 100 493 100 521 116.5 c 128,-1,24
 549 133 549 133 566.5 161.5 c 128,-1,25
 584 190 584 190 594 239 c 128,-1,26
 604 288 604 288 607.5 343.5 c 128,-1,27
 611 399 611 399 611 478 c 2,28,-1
 611 730 l 2,29,30
 611 920 611 920 579 1002 c 128,-1,31
 547 1084 547 1084 450 1084 c 0,32,33
 359 1084 359 1084 266 993 c 1,34,-1
 266 186 l 1,35,36
 348 100 348 100 453 100 c 0,22,23
EndSplineSet
EndChar

StartChar: Dcroat
Encoding: 272 272 202
Width: 1069
GlyphClass: 2
Flags: W
LayerCount: 2
UndoRedoHistory
Layer: 1
Undoes
EndUndoes
Redoes
EndRedoes
EndUndoRedoHistory
Fore
SplineSet
304 117 m 1,0,-1
 512 117 l 2,1,2
 589 117 589 117 642.5 138.5 c 128,-1,3
 696 160 696 160 726.5 193.5 c 128,-1,4
 757 227 757 227 774 285 c 128,-1,5
 791 343 791 343 795.5 398.5 c 128,-1,6
 800 454 800 454 800 536 c 2,7,-1
 800 1155 l 2,8,9
 800 1235 800 1235 793.5 1291 c 128,-1,10
 787 1347 787 1347 768.5 1396.5 c 128,-1,11
 750 1446 750 1446 717.5 1475.5 c 128,-1,12
 685 1505 685 1505 633 1521.5 c 128,-1,13
 581 1538 581 1538 507 1538 c 2,14,-1
 304 1538 l 1,15,-1
 304 917 l 1,16,-1
 470 917 l 1,17,-1
 470 821 l 1,18,-1
 304 821 l 1,19,-1
 304 117 l 1,0,-1
147 0 m 1,20,-1
 147 821 l 1,21,-1
 25 821 l 1,22,-1
 25 917 l 1,23,-1
 147 917 l 1,24,-1
 147 1658 l 1,25,-1
 510 1658 l 2,26,27
 636 1658 636 1658 724.5 1624 c 128,-1,28
 813 1590 813 1590 863.5 1523.5 c 128,-1,29
 914 1457 914 1457 936 1371 c 128,-1,30
 958 1285 958 1285 958 1171 c 2,31,-1
 958 512 l 2,32,33
 958 391 958 391 936 300 c 128,-1,34
 914 209 914 209 864.5 140 c 128,-1,35
 815 71 815 71 729 35.5 c 128,-1,36
 643 0 643 0 522 0 c 2,37,-1
 147 0 l 1,20,-1
EndSplineSet
EndChar

StartChar: Eng
Encoding: 330 330 207
Width: 1065
GlyphClass: 2
Flags: W
LayerCount: 2
UndoRedoHistory
Layer: 1
Undoes
EndUndoes
Redoes
EndRedoes
EndUndoRedoHistory
Fore
SplineSet
571 -321 m 1,0,-1
 571 -213 l 1,1,2
 578 -213 578 -213 584 -213 c 0,3,4
 647 -212 647 -212 686 -204 c 0,5,6
 729 -194 729 -194 752.5 -168.5 c 128,-1,7
 776 -143 776 -143 783.5 -107.5 c 128,-1,8
 791 -72 791 -72 791 -11 c 2,9,-1
 791 49 l 1,10,-1
 273 1302 l 1,11,-1
 273 0 l 1,12,-1
 144 0 l 1,13,-1
 144 1658 l 1,14,-1
 259 1658 l 1,15,-1
 794 371 l 1,16,-1
 794 1658 l 1,17,-1
 921 1658 l 1,18,-1
 921 0 l 2,19,20
 921 -83 921 -83 909 -139.5 c 128,-1,21
 897 -196 897 -196 866 -238.5 c 128,-1,22
 835 -281 835 -281 779 -301 c 128,-1,23
 723 -321 723 -321 639 -321 c 2,24,-1
 571 -321 l 1,0,-1
EndSplineSet
EndChar

StartChar: Euro
Encoding: 8364 8364 209
Width: 997
GlyphClass: 2
Flags: W
LayerCount: 2
UndoRedoHistory
Layer: 1
Undoes
EndUndoes
Redoes
EndRedoes
EndUndoRedoHistory
Fore
SplineSet
531 -21 m 0,0,1
 433 -21 433 -21 358.5 6 c 128,-1,2
 284 33 284 33 237.5 78 c 128,-1,3
 191 123 191 123 162 191 c 128,-1,4
 133 259 133 259 122 333 c 128,-1,5
 111 407 111 407 111 499 c 2,6,-1
 111 628 l 1,7,-1
 -20 628 l 1,8,-1
 -20 714 l 1,9,-1
 111 714 l 1,10,-1
 111 981 l 1,11,-1
 -20 981 l 1,12,-1
 -20 1068 l 1,13,-1
 111 1068 l 1,14,-1
 111 1158 l 2,15,16
 111 1254 111 1254 122.5 1329.5 c 128,-1,17
 134 1405 134 1405 163.5 1471.5 c 128,-1,18
 193 1538 193 1538 240 1582 c 128,-1,19
 287 1626 287 1626 360.5 1651 c 128,-1,20
 434 1676 434 1676 531 1676 c 0,21,22
 640 1676 640 1676 717 1643.5 c 128,-1,23
 794 1611 794 1611 839 1548 c 128,-1,24
 884 1485 884 1485 904 1401 c 128,-1,25
 924 1317 924 1317 924 1205 c 2,26,-1
 924 1128 l 1,27,-1
 776 1128 l 1,28,-1
 776 1200 l 2,29,30
 776 1288 776 1288 767 1347 c 128,-1,31
 758 1406 758 1406 732.5 1455.5 c 128,-1,32
 707 1505 707 1505 657.5 1528.5 c 128,-1,33
 608 1552 608 1552 532 1552 c 0,34,35
 450 1552 450 1552 396.5 1526 c 128,-1,36
 343 1500 343 1500 316 1447 c 128,-1,37
 289 1394 289 1394 279 1331.5 c 128,-1,38
 269 1269 269 1269 269 1178 c 2,39,-1
 269 1068 l 1,40,-1
 529 1068 l 1,41,-1
 529 981 l 1,42,-1
 269 981 l 1,43,-1
 269 714 l 1,44,-1
 529 714 l 1,45,-1
 529 628 l 1,46,-1
 269 628 l 1,47,-1
 269 474 l 2,48,49
 269 281 269 281 326.5 193 c 128,-1,50
 384 105 384 105 532 105 c 0,51,52
 593 105 593 105 637 122.5 c 128,-1,53
 681 140 681 140 707.5 169 c 128,-1,54
 734 198 734 198 749.5 245.5 c 128,-1,55
 765 293 765 293 770.5 343.5 c 128,-1,56
 776 394 776 394 776 464 c 2,57,-1
 776 547 l 1,58,-1
 924 547 l 1,59,-1
 924 475 l 2,60,61
 924 384 924 384 913 311.5 c 128,-1,62
 902 239 902 239 874.5 175 c 128,-1,63
 847 111 847 111 803 69 c 128,-1,64
 759 27 759 27 690.5 3 c 128,-1,65
 622 -21 622 -21 531 -21 c 0,0,1
EndSplineSet
EndChar

StartChar: Hbar
Encoding: 294 294 214
Width: 1124
GlyphClass: 2
Flags: W
LayerCount: 2
UndoRedoHistory
Layer: 1
Undoes
EndUndoes
Redoes
EndRedoes
EndUndoRedoHistory
Fore
SplineSet
144 0 m 1,0,-1
 144 1295 l 1,1,-1
 60 1295 l 1,2,-1
 60 1381 l 1,3,-1
 144 1381 l 1,4,-1
 144 1658 l 1,5,-1
 301 1658 l 1,6,-1
 301 1381 l 1,7,-1
 823 1381 l 1,8,-1
 823 1658 l 1,9,-1
 980 1658 l 1,10,-1
 980 1381 l 1,11,-1
 1065 1381 l 1,12,-1
 1065 1295 l 1,13,-1
 980 1295 l 1,14,-1
 980 0 l 1,15,-1
 823 0 l 1,16,-1
 823 808 l 1,17,-1
 301 808 l 1,18,-1
 301 0 l 1,19,-1
 144 0 l 1,0,-1
301 923 m 1,20,-1
 823 923 l 1,21,-1
 823 1295 l 1,22,-1
 301 1295 l 1,23,-1
 301 923 l 1,20,-1
EndSplineSet
EndChar

StartChar: Lslash
Encoding: 321 321 227
Width: 783
GlyphClass: 2
Flags: W
LayerCount: 2
UndoRedoHistory
Layer: 1
Undoes
EndUndoes
Redoes
EndRedoes
EndUndoRedoHistory
Fore
SplineSet
144 0 m 1,0,-1
 144 811 l 1,1,-1
 -1 735 l 1,2,-1
 -1 858 l 1,3,-1
 144 935 l 1,4,-1
 144 1658 l 1,5,-1
 301 1658 l 1,6,-1
 301 1021 l 1,7,-1
 538 1146 l 1,8,-1
 538 1023 l 1,9,-1
 301 897 l 1,10,-1
 301 117 l 1,11,-1
 773 117 l 1,12,-1
 773 0 l 1,13,-1
 144 0 l 1,0,-1
EndSplineSet
EndChar

StartChar: OE
Encoding: 338 338 231
Width: 1319
GlyphClass: 2
Flags: W
LayerCount: 2
UndoRedoHistory
Layer: 1
Undoes
EndUndoes
Redoes
EndRedoes
EndUndoRedoHistory
Fore
SplineSet
562 0 m 2,0,1
 435 0 435 0 346 33 c 128,-1,2
 257 66 257 66 206.5 131.5 c 128,-1,3
 156 197 156 197 133.5 282 c 128,-1,4
 111 367 111 367 111 482 c 2,5,-1
 111 1158 l 2,6,7
 111 1277 111 1277 134 1366.5 c 128,-1,8
 157 1456 157 1456 208 1523 c 128,-1,9
 259 1590 259 1590 345.5 1624 c 128,-1,10
 432 1658 432 1658 553 1658 c 2,11,-1
 1257 1658 l 1,12,-1
 1257 1536 l 1,13,-1
 853 1536 l 1,14,-1
 853 922 l 1,15,-1
 1187 922 l 1,16,-1
 1187 806 l 1,17,-1
 853 806 l 1,18,-1
 853 120 l 1,19,-1
 1259 120 l 1,20,-1
 1259 0 l 1,21,-1
 562 0 l 2,0,1
565 123 m 2,22,-1
 697 123 l 1,23,-1
 697 1539 l 1,24,-1
 562 1539 l 2,25,26
 487 1539 487 1539 434 1520.5 c 128,-1,27
 381 1502 381 1502 349 1471 c 128,-1,28
 317 1440 317 1440 299 1387 c 128,-1,29
 281 1334 281 1334 275 1277.5 c 128,-1,30
 269 1221 269 1221 269 1139 c 2,31,-1
 269 492 l 2,32,33
 269 397 269 397 281 333.5 c 128,-1,34
 293 270 293 270 324.5 219.5 c 128,-1,35
 356 169 356 169 415 146 c 128,-1,36
 474 123 474 123 565 123 c 2,22,-1
EndSplineSet
EndChar

StartChar: Pi
Encoding: 928 928 235
Width: 1146
GlyphClass: 2
Flags: W
LayerCount: 2
UndoRedoHistory
Layer: 1
Undoes
EndUndoes
Redoes
EndRedoes
EndUndoRedoHistory
Fore
SplineSet
144 0 m 1,0,-1
 144 1658 l 1,1,-1
 1003 1658 l 1,2,-1
 1003 0 l 1,3,-1
 852 0 l 1,4,-1
 852 1543 l 1,5,-1
 294 1543 l 1,6,-1
 294 0 l 1,7,-1
 144 0 l 1,0,-1
EndSplineSet
EndChar

StartChar: Tbar
Encoding: 358 358 244
Width: 795
GlyphClass: 2
Flags: W
LayerCount: 2
UndoRedoHistory
Layer: 1
Undoes
EndUndoes
Redoes
EndRedoes
EndUndoRedoHistory
Fore
SplineSet
86 835 m 1,0,-1
 86 930 l 1,1,-1
 323 930 l 1,2,-1
 323 1538 l 1,3,-1
 -10 1538 l 1,4,-1
 -10 1658 l 1,5,-1
 805 1658 l 1,6,-1
 805 1538 l 1,7,-1
 480 1538 l 1,8,-1
 480 930 l 1,9,-1
 705 930 l 1,10,-1
 705 835 l 1,11,-1
 480 835 l 1,12,-1
 480 0 l 1,13,-1
 323 0 l 1,14,-1
 323 835 l 1,15,-1
 86 835 l 1,0,-1
EndSplineSet
EndChar

StartChar: acutecomb
Encoding: 769 769 264
Width: 181
GlyphClass: 2
Flags: W
LayerCount: 2
UndoRedoHistory
Layer: 1
Undoes
EndUndoes
Redoes
EndRedoes
EndUndoRedoHistory
Fore
SplineSet
9 1258 m 1,0,-1
 137 1658 l 1,1,-1
 287 1658 l 1,2,-1
 86 1258 l 1,3,-1
 9 1258 l 1,0,-1
EndSplineSet
EndChar

StartChar: afii10018
Encoding: 1041 1041 266
Width: 981
GlyphClass: 2
Flags: W
LayerCount: 2
UndoRedoHistory
Layer: 1
Undoes
EndUndoes
Redoes
EndRedoes
EndUndoRedoHistory
Fore
SplineSet
144 0 m 1,0,-1
 144 1658 l 1,1,-1
 809 1658 l 1,2,-1
 809 1542 l 1,3,-1
 301 1542 l 1,4,-1
 301 963 l 1,5,-1
 434 963 l 2,6,7
 680 963 680 963 795.5 848 c 128,-1,8
 911 733 911 733 911 476 c 0,9,10
 911 243 911 243 798 121.5 c 128,-1,11
 685 0 685 0 441 0 c 2,12,-1
 144 0 l 1,0,-1
301 120 m 1,13,-1
 443 120 l 2,14,15
 613 120 613 120 685.5 202.5 c 128,-1,16
 758 285 758 285 758 478 c 0,17,18
 758 665 758 665 686 754 c 128,-1,19
 614 843 614 843 440 843 c 2,20,-1
 301 843 l 1,21,-1
 301 120 l 1,13,-1
EndSplineSet
EndChar

StartChar: afii10019
Encoding: 1042 1042 267
Width: 1027
GlyphClass: 2
Flags: W
LayerCount: 2
UndoRedoHistory
Layer: 1
Undoes
EndUndoes
Redoes
EndRedoes
EndUndoRedoHistory
Fore
SplineSet
144 0 m 1,0,-1
 144 1658 l 1,1,-1
 500 1658 l 2,2,3
 717 1658 717 1658 812 1551 c 128,-1,4
 907 1444 907 1444 907 1245 c 0,5,6
 907 1159 907 1159 889 1089.5 c 128,-1,7
 871 1020 871 1020 822 965 c 128,-1,8
 773 910 773 910 696 894 c 1,9,10
 766 875 766 875 816.5 833 c 128,-1,11
 867 791 867 791 894.5 733.5 c 128,-1,12
 922 676 922 676 934 614 c 128,-1,13
 946 552 946 552 946 480 c 0,14,15
 946 396 946 396 935.5 328 c 128,-1,16
 925 260 925 260 898 197.5 c 128,-1,17
 871 135 871 135 827.5 92.5 c 128,-1,18
 784 50 784 50 715 25 c 128,-1,19
 646 0 646 0 555 0 c 2,20,-1
 144 0 l 1,0,-1
301 117 m 1,21,-1
 526 117 l 2,22,23
 681 117 681 117 738 201 c 128,-1,24
 795 285 795 285 795 479 c 0,25,26
 795 823 795 823 528 823 c 2,27,-1
 301 823 l 1,28,-1
 301 117 l 1,21,-1
301 944 m 1,29,-1
 527 944 l 2,30,31
 660 944 660 944 713 1021 c 128,-1,32
 766 1098 766 1098 766 1245 c 0,33,34
 766 1402 766 1402 698.5 1470 c 128,-1,35
 631 1538 631 1538 450 1538 c 2,36,-1
 301 1538 l 1,37,-1
 301 944 l 1,29,-1
EndSplineSet
EndChar

StartChar: afii10020
Encoding: 1043 1043 268
Width: 769
GlyphClass: 2
Flags: W
LayerCount: 2
UndoRedoHistory
Layer: 1
Undoes
EndUndoes
Redoes
EndRedoes
EndUndoRedoHistory
Fore
SplineSet
144 0 m 1,0,-1
 144 1658 l 1,1,-1
 733 1658 l 1,2,-1
 733 1538 l 1,3,-1
 301 1538 l 1,4,-1
 301 0 l 1,5,-1
 144 0 l 1,0,-1
EndSplineSet
EndChar

StartChar: afii10021
Encoding: 1044 1044 269
Width: 1204
GlyphClass: 2
Flags: W
LayerCount: 2
UndoRedoHistory
Layer: 1
Undoes
EndUndoes
Redoes
EndRedoes
EndUndoRedoHistory
Fore
SplineSet
20 -285 m 1,0,-1
 20 117 l 1,1,-1
 85 117 l 1,2,3
 119 141 119 141 138.5 157.5 c 128,-1,4
 158 174 158 174 185 208.5 c 128,-1,5
 212 243 212 243 228 286 c 128,-1,6
 244 329 244 329 264.5 401.5 c 128,-1,7
 285 474 285 474 298.5 571 c 128,-1,8
 312 668 312 668 326.5 806 c 128,-1,9
 341 944 341 944 353 1122 c 2,10,-1
 389 1658 l 1,11,-1
 1014 1658 l 1,12,-1
 1014 117 l 1,13,-1
 1150 117 l 1,14,-1
 1150 -285 l 1,15,-1
 1027 -285 l 1,16,-1
 1012 0 l 1,17,-1
 157 0 l 1,18,-1
 143 -285 l 1,19,-1
 20 -285 l 1,0,-1
244 117 m 1,20,-1
 857 117 l 1,21,-1
 857 1540 l 1,22,-1
 527 1540 l 1,23,-1
 496 1088 l 1,24,25
 474 746 474 746 442 546 c 0,26,27
 402 291 402 291 330 197 c 0,28,29
 305 164 305 164 244 117 c 1,20,-1
EndSplineSet
EndChar

StartChar: afii10024
Encoding: 1046 1046 272
Width: 1306
GlyphClass: 2
Flags: W
LayerCount: 2
UndoRedoHistory
Layer: 1
Undoes
EndUndoes
Redoes
EndRedoes
EndUndoRedoHistory
Fore
SplineSet
30 0 m 1,0,-1
 442 859 l 1,1,-1
 69 1658 l 1,2,-1
 220 1658 l 1,3,-1
 570 868 l 1,4,-1
 584 868 l 1,5,-1
 584 1658 l 1,6,-1
 722 1658 l 1,7,-1
 722 868 l 1,8,-1
 736 868 l 1,9,-1
 1086 1658 l 1,10,-1
 1237 1658 l 1,11,-1
 864 859 l 1,12,-1
 1276 0 l 1,13,-1
 1122 0 l 1,14,-1
 741 839 l 1,15,-1
 722 839 l 1,16,-1
 722 0 l 1,17,-1
 584 0 l 1,18,-1
 584 839 l 1,19,-1
 565 839 l 1,20,-1
 184 0 l 1,21,-1
 30 0 l 1,0,-1
EndSplineSet
EndChar

StartChar: afii10025
Encoding: 1047 1047 273
Width: 958
GlyphClass: 2
Flags: W
LayerCount: 2
UndoRedoHistory
Layer: 1
Undoes
EndUndoes
Redoes
EndRedoes
EndUndoRedoHistory
Fore
SplineSet
489 -21 m 0,0,1
 302 -21 302 -21 210.5 85.5 c 128,-1,2
 119 192 119 192 119 383 c 2,3,-1
 119 423 l 1,4,-1
 265 423 l 1,5,6
 265 387 265 387 266 377 c 0,7,8
 268 243 268 243 320.5 173 c 128,-1,9
 373 103 373 103 489 103 c 0,10,11
 609 103 609 103 669.5 184.5 c 128,-1,12
 730 266 730 266 730 450 c 0,13,14
 730 793 730 793 447 805 c 0,15,16
 438 806 438 806 359 806 c 1,17,-1
 359 924 l 1,18,-1
 445 924 l 1,19,20
 600 929 600 929 665 1010.5 c 128,-1,21
 730 1092 730 1092 730 1261 c 0,22,23
 730 1554 730 1554 496 1554 c 0,24,25
 371 1554 371 1554 310 1486.5 c 128,-1,26
 249 1419 249 1419 245 1276 c 0,27,28
 244 1267 244 1267 244 1238 c 1,29,-1
 98 1238 l 1,30,-1
 98 1276 l 2,31,32
 98 1465 98 1465 194.5 1570.5 c 128,-1,33
 291 1676 291 1676 491 1676 c 0,34,35
 681 1676 681 1676 782 1562.5 c 128,-1,36
 883 1449 883 1449 883 1260 c 0,37,38
 883 1092 883 1092 817 992.5 c 128,-1,39
 751 893 751 893 643 868 c 1,40,41
 691 855 691 855 732 825 c 128,-1,42
 773 795 773 795 808 746.5 c 128,-1,43
 843 698 843 698 863 622.5 c 128,-1,44
 883 547 883 547 883 452 c 0,45,46
 883 344 883 344 861 259 c 128,-1,47
 839 174 839 174 792.5 110.5 c 128,-1,48
 746 47 746 47 669.5 13 c 128,-1,49
 593 -21 593 -21 489 -21 c 0,0,1
EndSplineSet
EndChar

StartChar: afii10026
Encoding: 1048 1048 274
Width: 1084
GlyphClass: 2
Flags: W
LayerCount: 2
UndoRedoHistory
Layer: 1
Undoes
EndUndoes
Redoes
EndRedoes
EndUndoRedoHistory
Fore
SplineSet
144 0 m 1,0,-1
 144 1658 l 1,1,-1
 283 1658 l 1,2,-1
 283 344 l 1,3,-1
 820 1658 l 1,4,-1
 940 1658 l 1,5,-1
 940 0 l 1,6,-1
 801 0 l 1,7,-1
 801 1321 l 1,8,-1
 267 0 l 1,9,-1
 144 0 l 1,0,-1
EndSplineSet
EndChar

StartChar: afii10028
Encoding: 1050 1050 276
Width: 990
GlyphClass: 2
Flags: W
LayerCount: 2
UndoRedoHistory
Layer: 1
Undoes
EndUndoes
Redoes
EndRedoes
EndUndoRedoHistory
Fore
SplineSet
144 0 m 1,0,-1
 144 1658 l 1,1,-1
 301 1658 l 1,2,-1
 301 897 l 1,3,-1
 419 897 l 1,4,-1
 757 1658 l 1,5,-1
 916 1658 l 1,6,-1
 556 860 l 1,7,-1
 971 0 l 1,8,-1
 813 0 l 1,9,-1
 420 813 l 1,10,-1
 301 813 l 1,11,-1
 301 0 l 1,12,-1
 144 0 l 1,0,-1
EndSplineSet
EndChar

StartChar: afii10029
Encoding: 1051 1051 277
Width: 1159
GlyphClass: 2
Flags: W
LayerCount: 2
UndoRedoHistory
Layer: 1
Undoes
EndUndoes
Redoes
EndRedoes
EndUndoRedoHistory
Fore
SplineSet
34 -4 m 1,0,-1
 34 117 l 1,1,2
 69 118 69 118 88 120 c 128,-1,3
 107 122 107 122 132 129 c 128,-1,4
 157 136 157 136 170 146.5 c 128,-1,5
 183 157 183 157 201 180 c 128,-1,6
 219 203 219 203 228 231.5 c 128,-1,7
 237 260 237 260 249.5 308 c 128,-1,8
 262 356 262 356 269.5 412 c 128,-1,9
 277 468 277 468 287 550 c 128,-1,10
 297 632 297 632 304.5 724.5 c 128,-1,11
 312 817 312 817 322 942 c 1,12,-1
 371 1658 l 1,13,-1
 1016 1658 l 1,14,-1
 1016 0 l 1,15,-1
 859 0 l 1,16,-1
 859 1540 l 1,17,-1
 511 1540 l 1,18,-1
 471 941 l 1,19,20
 458 771 458 771 449 673.5 c 128,-1,21
 440 576 440 576 425.5 464 c 128,-1,22
 411 352 411 352 397 295 c 128,-1,23
 383 238 383 238 359.5 174.5 c 128,-1,24
 336 111 336 111 309 84.5 c 128,-1,25
 282 58 282 58 240.5 33 c 128,-1,26
 199 8 199 8 150 2 c 0,27,28
 108 -4 108 -4 52 -4 c 0,29,30
 43 -4 43 -4 34 -4 c 1,0,-1
EndSplineSet
EndChar

StartChar: afii10030
Encoding: 1052 1052 278
Width: 1316
GlyphClass: 2
Flags: W
LayerCount: 2
UndoRedoHistory
Layer: 1
Undoes
EndUndoes
Redoes
EndRedoes
EndUndoRedoHistory
Fore
SplineSet
130 0 m 1,0,-1
 173 1658 l 1,1,-1
 316 1658 l 1,2,-1
 656 256 l 1,3,-1
 998 1658 l 1,4,-1
 1145 1658 l 1,5,-1
 1186 0 l 1,6,-1
 1058 0 l 1,7,-1
 1029 1273 l 1,8,-1
 707 0 l 1,9,-1
 607 0 l 1,10,-1
 288 1270 l 1,11,-1
 259 0 l 1,12,-1
 130 0 l 1,0,-1
EndSplineSet
EndChar

StartChar: afii10033
Encoding: 1055 1055 281
Width: 1137
GlyphClass: 2
Flags: W
LayerCount: 2
UndoRedoHistory
Layer: 1
Undoes
EndUndoes
Redoes
EndRedoes
EndUndoRedoHistory
Fore
SplineSet
144 0 m 1,0,-1
 144 1658 l 1,1,-1
 993 1658 l 1,2,-1
 993 0 l 1,3,-1
 836 0 l 1,4,-1
 836 1543 l 1,5,-1
 301 1543 l 1,6,-1
 301 0 l 1,7,-1
 144 0 l 1,0,-1
EndSplineSet
EndChar

StartChar: afii10034
Encoding: 1056 1056 282
Width: 979
GlyphClass: 2
Flags: W
LayerCount: 2
UndoRedoHistory
Layer: 1
Undoes
EndUndoes
Redoes
EndRedoes
EndUndoRedoHistory
Fore
SplineSet
144 0 m 1,0,-1
 144 1658 l 1,1,-1
 542 1658 l 2,2,3
 651 1658 651 1658 729 1627 c 128,-1,4
 807 1596 807 1596 852 1536.5 c 128,-1,5
 897 1477 897 1477 917 1399 c 128,-1,6
 937 1321 937 1321 937 1219 c 0,7,8
 937 1127 937 1127 915.5 1050.5 c 128,-1,9
 894 974 894 974 848.5 913.5 c 128,-1,10
 803 853 803 853 725.5 819 c 128,-1,11
 648 785 648 785 544 785 c 2,12,-1
 301 785 l 1,13,-1
 301 0 l 1,14,-1
 144 0 l 1,0,-1
301 901 m 1,15,-1
 500 901 l 2,16,17
 653 901 653 901 718.5 971.5 c 128,-1,18
 784 1042 784 1042 784 1218 c 0,19,20
 784 1409 784 1409 726 1475.5 c 128,-1,21
 668 1542 668 1542 502 1542 c 2,22,-1
 301 1542 l 1,23,-1
 301 901 l 1,15,-1
EndSplineSet
EndChar

StartChar: afii10037
Encoding: 1059 1059 285
Width: 926
GlyphClass: 2
Flags: W
LayerCount: 2
UndoRedoHistory
Layer: 1
Undoes
EndUndoes
Redoes
EndRedoes
EndUndoRedoHistory
Fore
SplineSet
119 -213 m 1,0,-1
 120 -91 l 1,1,2
 160 -93 160 -93 192 -93 c 0,3,4
 216 -93 216 -93 236 -92 c 0,5,6
 282 -89 282 -89 315.5 -73 c 128,-1,7
 349 -57 349 -57 366.5 -39.5 c 128,-1,8
 384 -22 384 -22 394 19.5 c 128,-1,9
 404 61 404 61 407 99 c 128,-1,10
 410 137 410 137 411 209 c 1,11,-1
 57 1658 l 1,12,-1
 208 1658 l 1,13,-1
 379 914 l 1,14,-1
 489 381 l 1,15,-1
 586 916 l 1,16,-1
 737 1658 l 1,17,-1
 890 1658 l 1,18,-1
 573 202 l 2,19,20
 569 183 569 183 562 146 c 0,21,22
 546 68 546 68 534 18.5 c 128,-1,23
 522 -31 522 -31 502.5 -76.5 c 128,-1,24
 483 -122 483 -122 456 -146.5 c 128,-1,25
 429 -171 429 -171 383.5 -189 c 128,-1,26
 338 -207 338 -207 275 -212 c 0,27,28
 240 -215 240 -215 196 -215 c 0,29,30
 160 -215 160 -215 119 -213 c 1,0,-1
EndSplineSet
EndChar

StartChar: afii10038
Encoding: 1060 1060 286
Width: 1268
GlyphClass: 2
Flags: W
LayerCount: 2
UndoRedoHistory
Layer: 1
Undoes
EndUndoes
Redoes
EndRedoes
EndUndoRedoHistory
Fore
SplineSet
553 -99 m 1,0,-1
 553 192 l 1,1,2
 515 188 515 188 464 188 c 1,3,4
 450 187 450 187 436 187 c 0,5,6
 282 186 282 186 200 282 c 0,7,8
 112 386 112 386 111 611 c 2,9,-1
 111 1069 l 2,10,11
 111 1296 111 1296 203 1404 c 0,12,13
 290 1506 290 1506 458 1506 c 0,14,15
 467 1506 467 1506 477 1506 c 1,16,17
 523 1506 523 1506 553 1504 c 1,18,-1
 553 1808 l 1,19,-1
 710 1808 l 1,20,-1
 710 1504 l 1,21,22
 736 1507 736 1507 798 1507 c 1,23,24
 807 1507 807 1507 817 1507 c 0,25,26
 982 1507 982 1507 1067 1405 c 0,27,28
 1157 1297 1157 1297 1157 1069 c 2,29,-1
 1157 611 l 2,30,31
 1156 387 1156 387 1068 283 c 0,32,33
 987 187 987 187 831 187 c 0,34,35
 817 187 817 187 803 188 c 1,36,37
 748 188 748 188 710 192 c 1,38,-1
 710 -99 l 1,39,-1
 553 -99 l 1,0,-1
489 288 m 1,40,41
 526 288 526 288 553 291 c 1,42,-1
 553 1404 l 1,43,44
 529 1407 529 1407 494 1407 c 1,45,46
 487 1407 487 1407 481 1407 c 0,47,48
 356 1407 356 1407 308 1332 c 0,49,50
 258 1253 258 1253 257 1069 c 2,51,-1
 257 611 l 2,52,53
 258 430 258 430 306 357 c 0,54,55
 352 288 352 288 475 288 c 0,56,57
 482 288 482 288 489 288 c 1,40,41
780 288 m 1,58,59
 787 288 787 288 794 288 c 0,60,61
 917 288 917 288 963 357 c 0,62,63
 1012 430 1012 430 1012 611 c 2,64,-1
 1012 1069 l 2,65,66
 1012 1253 1012 1253 962 1332 c 0,67,68
 914 1407 914 1407 787 1407 c 0,69,70
 781 1407 781 1407 774 1407 c 0,71,72
 758 1407 758 1407 710 1404 c 1,73,-1
 710 291 l 1,74,75
 737 288 737 288 780 288 c 1,58,59
EndSplineSet
EndChar

StartChar: afii10040
Encoding: 1062 1062 288
Width: 1188
GlyphClass: 2
Flags: W
LayerCount: 2
UndoRedoHistory
Layer: 1
Undoes
EndUndoes
Redoes
EndRedoes
EndUndoRedoHistory
Fore
SplineSet
1010 -285 m 1,0,-1
 995 0 l 1,1,-1
 144 0 l 1,2,-1
 144 1658 l 1,3,-1
 301 1658 l 1,4,-1
 301 115 l 1,5,-1
 846 115 l 1,6,-1
 846 1658 l 1,7,-1
 1003 1658 l 1,8,-1
 1003 115 l 1,9,-1
 1134 115 l 1,10,-1
 1134 -285 l 1,11,-1
 1010 -285 l 1,0,-1
EndSplineSet
EndChar

StartChar: afii10041
Encoding: 1063 1063 289
Width: 1059
GlyphClass: 2
Flags: W
LayerCount: 2
UndoRedoHistory
Layer: 1
Undoes
EndUndoes
Redoes
EndRedoes
EndUndoRedoHistory
Fore
SplineSet
758 0 m 1,0,-1
 758 768 l 1,1,2
 624 735 624 735 514 735 c 0,3,4
 108 735 108 735 108 1102 c 2,5,-1
 108 1658 l 1,6,-1
 253 1658 l 1,7,-1
 253 1103 l 2,8,9
 253 960 253 960 326.5 901.5 c 128,-1,10
 400 843 400 843 541 843 c 0,11,12
 652 843 652 843 758 875 c 1,13,-1
 758 1658 l 1,14,-1
 915 1658 l 1,15,-1
 915 0 l 1,16,-1
 758 0 l 1,0,-1
EndSplineSet
EndChar

StartChar: afii10042
Encoding: 1064 1064 290
Width: 1474
GlyphClass: 2
Flags: W
LayerCount: 2
UndoRedoHistory
Layer: 1
Undoes
EndUndoes
Redoes
EndRedoes
EndUndoRedoHistory
Fore
SplineSet
144 0 m 1,0,-1
 144 1658 l 1,1,-1
 301 1658 l 1,2,-1
 301 116 l 1,3,-1
 666 116 l 1,4,-1
 666 1658 l 1,5,-1
 823 1658 l 1,6,-1
 823 116 l 1,7,-1
 1173 116 l 1,8,-1
 1173 1658 l 1,9,-1
 1330 1658 l 1,10,-1
 1330 0 l 1,11,-1
 144 0 l 1,0,-1
EndSplineSet
EndChar

StartChar: afii10043
Encoding: 1065 1065 291
Width: 1518
GlyphClass: 2
Flags: W
LayerCount: 2
UndoRedoHistory
Layer: 1
Undoes
EndUndoes
Redoes
EndRedoes
EndUndoRedoHistory
Fore
SplineSet
1340 -285 m 1,0,-1
 1325 0 l 1,1,-1
 144 0 l 1,2,-1
 144 1658 l 1,3,-1
 301 1658 l 1,4,-1
 301 115 l 1,5,-1
 666 115 l 1,6,-1
 666 1658 l 1,7,-1
 823 1658 l 1,8,-1
 823 115 l 1,9,-1
 1174 115 l 1,10,-1
 1174 1658 l 1,11,-1
 1331 1658 l 1,12,-1
 1331 115 l 1,13,-1
 1464 115 l 1,14,-1
 1464 -285 l 1,15,-1
 1340 -285 l 1,0,-1
EndSplineSet
EndChar

StartChar: afii10044
Encoding: 1066 1066 292
Width: 1129
GlyphClass: 2
Flags: W
LayerCount: 2
UndoRedoHistory
Layer: 1
Undoes
EndUndoes
Redoes
EndRedoes
EndUndoRedoHistory
Fore
SplineSet
303 0 m 1,0,-1
 303 1537 l 1,1,-1
 12 1537 l 1,2,-1
 12 1658 l 1,3,-1
 460 1658 l 1,4,-1
 460 963 l 1,5,-1
 600 963 l 2,6,7
 847 963 847 963 962 848 c 128,-1,8
 1077 733 1077 733 1077 476 c 0,9,10
 1077 243 1077 243 964 121.5 c 128,-1,11
 851 0 851 0 607 0 c 2,12,-1
 303 0 l 1,0,-1
460 120 m 1,13,-1
 609 120 l 2,14,15
 780 120 780 120 852.5 202.5 c 128,-1,16
 925 285 925 285 925 478 c 0,17,18
 925 664 925 664 853 753.5 c 128,-1,19
 781 843 781 843 607 843 c 2,20,-1
 460 843 l 1,21,-1
 460 120 l 1,13,-1
EndSplineSet
EndChar

StartChar: afii10045
Encoding: 1067 1067 293
Width: 1416
GlyphClass: 2
Flags: W
LayerCount: 2
UndoRedoHistory
Layer: 1
Undoes
EndUndoes
Redoes
EndRedoes
EndUndoRedoHistory
Fore
SplineSet
144 0 m 1,0,-1
 144 1658 l 1,1,-1
 301 1658 l 1,2,-1
 301 963 l 1,3,-1
 441 963 l 2,4,5
 687 963 687 963 802.5 848 c 128,-1,6
 918 733 918 733 918 476 c 0,7,8
 918 243 918 243 805 121.5 c 128,-1,9
 692 0 692 0 448 0 c 2,10,-1
 144 0 l 1,0,-1
301 120 m 1,11,-1
 450 120 l 2,12,13
 620 120 620 120 692.5 202.5 c 128,-1,14
 765 285 765 285 765 478 c 0,15,16
 765 665 765 665 693 754 c 128,-1,17
 621 843 621 843 447 843 c 2,18,-1
 301 843 l 1,19,-1
 301 120 l 1,11,-1
1115 0 m 1,20,-1
 1115 1658 l 1,21,-1
 1272 1658 l 1,22,-1
 1272 0 l 1,23,-1
 1115 0 l 1,20,-1
EndSplineSet
EndChar

StartChar: afii10046
Encoding: 1068 1068 294
Width: 970
GlyphClass: 2
Flags: W
LayerCount: 2
UndoRedoHistory
Layer: 1
Undoes
EndUndoes
Redoes
EndRedoes
EndUndoRedoHistory
Fore
SplineSet
144 0 m 1,0,-1
 144 1658 l 1,1,-1
 301 1658 l 1,2,-1
 301 963 l 1,3,-1
 441 963 l 2,4,5
 688 963 688 963 803 848 c 128,-1,6
 918 733 918 733 918 476 c 0,7,8
 918 243 918 243 805 121.5 c 128,-1,9
 692 0 692 0 448 0 c 2,10,-1
 144 0 l 1,0,-1
301 120 m 1,11,-1
 450 120 l 2,12,13
 621 120 621 120 693.5 202.5 c 128,-1,14
 766 285 766 285 766 478 c 0,15,16
 766 664 766 664 694 753.5 c 128,-1,17
 622 843 622 843 448 843 c 2,18,-1
 301 843 l 1,19,-1
 301 120 l 1,11,-1
EndSplineSet
EndChar

StartChar: afii10047
Encoding: 1069 1069 295
Width: 1036
GlyphClass: 2
Flags: W
LayerCount: 2
UndoRedoHistory
Layer: 1
Undoes
EndUndoes
Redoes
EndRedoes
EndUndoRedoHistory
Fore
SplineSet
506 -8 m 0,0,1
 397 -8 397 -8 319.5 24.5 c 128,-1,2
 242 57 242 57 197 120 c 128,-1,3
 152 183 152 183 132 267 c 128,-1,4
 112 351 112 351 112 463 c 2,5,-1
 112 538 l 1,6,-1
 261 538 l 1,7,-1
 261 468 l 2,8,9
 261 398 261 398 266 348 c 128,-1,10
 271 298 271 298 286.5 252 c 128,-1,11
 302 206 302 206 328.5 178 c 128,-1,12
 355 150 355 150 399 133.5 c 128,-1,13
 443 117 443 117 505 117 c 0,14,15
 571 117 571 117 618.5 135 c 128,-1,16
 666 153 666 153 694.5 183.5 c 128,-1,17
 723 214 723 214 739.5 263 c 128,-1,18
 756 312 756 312 761.5 364.5 c 128,-1,19
 767 417 767 417 767 490 c 2,20,-1
 767 806 l 1,21,-1
 413 806 l 1,22,-1
 413 914 l 1,23,-1
 767 914 l 1,24,-1
 767 1195 l 2,25,26
 767 1387 767 1387 709.5 1475 c 128,-1,27
 652 1563 652 1563 505 1563 c 0,28,29
 429 1563 429 1563 379.5 1538.5 c 128,-1,30
 330 1514 330 1514 304.5 1463 c 128,-1,31
 279 1412 279 1412 270 1352.5 c 128,-1,32
 261 1293 261 1293 261 1204 c 2,33,-1
 261 1125 l 1,34,-1
 112 1125 l 1,35,-1
 112 1193 l 2,36,37
 112 1284 112 1284 123 1356.5 c 128,-1,38
 134 1429 134 1429 161.5 1493 c 128,-1,39
 189 1557 189 1557 233 1599 c 128,-1,40
 277 1641 277 1641 346 1665 c 128,-1,41
 415 1689 415 1689 506 1689 c 0,42,43
 604 1689 604 1689 678.5 1662.5 c 128,-1,44
 753 1636 753 1636 799.5 1590.5 c 128,-1,45
 846 1545 846 1545 874.5 1477.5 c 128,-1,46
 903 1410 903 1410 914 1336 c 128,-1,47
 925 1262 925 1262 925 1170 c 2,48,-1
 925 511 l 2,49,50
 925 415 925 415 913.5 339.5 c 128,-1,51
 902 264 902 264 873 197 c 128,-1,52
 844 130 844 130 797 86 c 128,-1,53
 750 42 750 42 676.5 17 c 128,-1,54
 603 -8 603 -8 506 -8 c 0,0,1
EndSplineSet
EndChar

StartChar: afii10048
Encoding: 1070 1070 296
Width: 1408
GlyphClass: 2
Flags: W
LayerCount: 2
UndoRedoHistory
Layer: 1
Undoes
EndUndoes
Redoes
EndRedoes
EndUndoRedoHistory
Fore
SplineSet
885 -21 m 0,0,1
 791 -21 791 -21 719.5 4 c 128,-1,2
 648 29 648 29 601.5 73 c 128,-1,3
 555 117 555 117 526 182.5 c 128,-1,4
 497 248 497 248 485 323.5 c 128,-1,5
 473 399 473 399 473 493 c 2,6,-1
 473 780 l 1,7,-1
 293 780 l 1,8,-1
 293 0 l 1,9,-1
 144 0 l 1,10,-1
 144 1658 l 1,11,-1
 293 1658 l 1,12,-1
 293 902 l 1,13,-1
 473 902 l 1,14,-1
 473 1174 l 2,15,16
 473 1292 473 1292 494 1380.5 c 128,-1,17
 515 1469 515 1469 561.5 1537.5 c 128,-1,18
 608 1606 608 1606 689 1641 c 128,-1,19
 770 1676 770 1676 885 1676 c 0,20,21
 999 1676 999 1676 1080.5 1640 c 128,-1,22
 1162 1604 1162 1604 1208.5 1535.5 c 128,-1,23
 1255 1467 1255 1467 1276 1378 c 128,-1,24
 1297 1289 1297 1289 1297 1173 c 2,25,-1
 1297 491 l 2,26,27
 1297 373 1297 373 1277 284 c 128,-1,28
 1257 195 1257 195 1211 124 c 128,-1,29
 1165 53 1165 53 1083 16 c 128,-1,30
 1001 -21 1001 -21 885 -21 c 0,0,1
887 105 m 0,31,32
 965 105 965 105 1018 129.5 c 128,-1,33
 1071 154 1071 154 1100 202.5 c 128,-1,34
 1129 251 1129 251 1141 311.5 c 128,-1,35
 1153 372 1153 372 1153 456 c 2,36,-1
 1153 1206 l 2,37,38
 1153 1289 1153 1289 1141 1349 c 128,-1,39
 1129 1409 1129 1409 1099.5 1456.5 c 128,-1,40
 1070 1504 1070 1504 1016.5 1528 c 128,-1,41
 963 1552 963 1552 885 1552 c 128,-1,42
 807 1552 807 1552 753.5 1528 c 128,-1,43
 700 1504 700 1504 670.5 1456.5 c 128,-1,44
 641 1409 641 1409 629 1349 c 128,-1,45
 617 1289 617 1289 617 1206 c 2,46,-1
 617 456 l 2,47,48
 617 372 617 372 629 311.5 c 128,-1,49
 641 251 641 251 670.5 202.5 c 128,-1,50
 700 154 700 154 754 129.5 c 128,-1,51
 808 105 808 105 887 105 c 0,31,32
EndSplineSet
EndChar

StartChar: afii10049
Encoding: 1071 1071 297
Width: 1093
GlyphClass: 2
Flags: W
LayerCount: 2
UndoRedoHistory
Layer: 1
Undoes
EndUndoes
Redoes
EndRedoes
EndUndoRedoHistory
Fore
SplineSet
40 0 m 1,0,-1
 376 752 l 1,1,2
 259 798 259 798 198.5 917.5 c 128,-1,3
 138 1037 138 1037 138 1210 c 0,4,5
 138 1307 138 1307 161 1385 c 128,-1,6
 184 1463 184 1463 235.5 1526 c 128,-1,7
 287 1589 287 1589 379 1623.5 c 128,-1,8
 471 1658 471 1658 598 1658 c 2,9,-1
 950 1658 l 1,10,-1
 950 0 l 1,11,-1
 793 0 l 1,12,-1
 793 710 l 1,13,-1
 584 710 l 2,14,15
 545 710 545 710 513 714 c 1,16,-1
 214 0 l 1,17,-1
 40 0 l 1,0,-1
609 826 m 2,18,-1
 793 826 l 1,19,-1
 793 1542 l 1,20,-1
 605 1542 l 2,21,22
 447 1542 447 1542 368 1463 c 128,-1,23
 289 1384 289 1384 289 1210 c 0,24,25
 289 1013 289 1013 363 919.5 c 128,-1,26
 437 826 437 826 609 826 c 2,18,-1
EndSplineSet
EndChar

StartChar: afii10051
Encoding: 1026 1026 298
Width: 1040
GlyphClass: 2
Flags: W
LayerCount: 2
UndoRedoHistory
Layer: 1
Undoes
EndUndoes
Redoes
EndRedoes
EndUndoRedoHistory
Fore
SplineSet
546 0 m 1,0,-1
 546 116 l 1,1,2
 687 116 687 116 742.5 188 c 128,-1,3
 798 260 798 260 798 401 c 2,4,-1
 798 654 l 2,5,6
 798 751 798 751 744 808 c 128,-1,7
 690 865 690 865 600 865 c 0,8,9
 502 865 502 865 407 802 c 1,10,-1
 407 0 l 1,11,-1
 253 0 l 1,12,-1
 253 1538 l 1,13,-1
 -26 1538 l 1,14,-1
 -26 1658 l 1,15,-1
 707 1658 l 1,16,-1
 707 1538 l 1,17,-1
 407 1538 l 1,18,-1
 407 897 l 1,19,20
 444 933 444 933 504 954 c 128,-1,21
 564 975 564 975 630 975 c 0,22,23
 690 975 690 975 745 956.5 c 128,-1,24
 800 938 800 938 846.5 901 c 128,-1,25
 893 864 893 864 920.5 800.5 c 128,-1,26
 948 737 948 737 948 654 c 2,27,-1
 948 400 l 2,28,29
 948 194 948 194 854 97 c 128,-1,30
 760 0 760 0 572 0 c 2,31,-1
 546 0 l 1,0,-1
EndSplineSet
EndChar

StartChar: afii10053
Encoding: 1028 1028 300
Width: 1005
GlyphClass: 2
Flags: W
LayerCount: 2
UndoRedoHistory
Layer: 1
Undoes
EndUndoes
Redoes
EndRedoes
EndUndoRedoHistory
Fore
SplineSet
531 -21 m 0,0,1
 433 -21 433 -21 358.5 6 c 128,-1,2
 284 33 284 33 237.5 78 c 128,-1,3
 191 123 191 123 162 191 c 128,-1,4
 133 259 133 259 122 333 c 128,-1,5
 111 407 111 407 111 499 c 2,6,-1
 111 1158 l 2,7,8
 111 1254 111 1254 122.5 1329.5 c 128,-1,9
 134 1405 134 1405 163.5 1471.5 c 128,-1,10
 193 1538 193 1538 240 1582 c 128,-1,11
 287 1626 287 1626 360.5 1651 c 128,-1,12
 434 1676 434 1676 531 1676 c 0,13,14
 640 1676 640 1676 717 1643.5 c 128,-1,15
 794 1611 794 1611 839 1548 c 128,-1,16
 884 1485 884 1485 904 1401 c 128,-1,17
 924 1317 924 1317 924 1205 c 2,18,-1
 924 1143 l 1,19,-1
 776 1143 l 1,20,-1
 776 1200 l 2,21,22
 776 1288 776 1288 767 1347 c 128,-1,23
 758 1406 758 1406 732.5 1455.5 c 128,-1,24
 707 1505 707 1505 657.5 1528.5 c 128,-1,25
 608 1552 608 1552 532 1552 c 0,26,27
 450 1552 450 1552 396.5 1526 c 128,-1,28
 343 1500 343 1500 316 1447 c 128,-1,29
 289 1394 289 1394 279 1331.5 c 128,-1,30
 269 1269 269 1269 269 1178 c 2,31,-1
 269 927 l 1,32,-1
 690 927 l 1,33,-1
 690 814 l 1,34,-1
 269 814 l 1,35,-1
 269 474 l 2,36,37
 269 281 269 281 326.5 193 c 128,-1,38
 384 105 384 105 532 105 c 0,39,40
 593 105 593 105 637 122.5 c 128,-1,41
 681 140 681 140 707.5 169 c 128,-1,42
 734 198 734 198 749.5 245.5 c 128,-1,43
 765 293 765 293 770.5 343.5 c 128,-1,44
 776 394 776 394 776 464 c 2,45,-1
 776 542 l 1,46,-1
 924 542 l 1,47,-1
 924 475 l 2,48,49
 924 384 924 384 913 311.5 c 128,-1,50
 902 239 902 239 874.5 175 c 128,-1,51
 847 111 847 111 803 69 c 128,-1,52
 759 27 759 27 690.5 3 c 128,-1,53
 622 -21 622 -21 531 -21 c 0,0,1
EndSplineSet
EndChar

StartChar: afii10055
Encoding: 1030 1030 302
Width: 454
GlyphClass: 2
Flags: W
LayerCount: 2
UndoRedoHistory
Layer: 1
Undoes
EndUndoes
Redoes
EndRedoes
EndUndoRedoHistory
Fore
SplineSet
151 0 m 1,0,-1
 151 1658 l 1,1,-1
 305 1658 l 1,2,-1
 305 0 l 1,3,-1
 151 0 l 1,0,-1
EndSplineSet
EndChar

StartChar: afii10057
Encoding: 1032 1032 304
Width: 571
GlyphClass: 2
Flags: W
LayerCount: 2
UndoRedoHistory
Layer: 1
Undoes
EndUndoes
Redoes
EndRedoes
EndUndoRedoHistory
Fore
SplineSet
16 -73 m 1,0,-1
 16 45 l 1,1,2
 75 45 75 45 113.5 49 c 128,-1,3
 152 53 152 53 182 66.5 c 128,-1,4
 212 80 212 80 228 98 c 128,-1,5
 244 116 244 116 254 151.5 c 128,-1,6
 264 187 264 187 266.5 227.5 c 128,-1,7
 269 268 269 268 269 334 c 2,8,-1
 269 1658 l 1,9,-1
 426 1658 l 1,10,-1
 426 324 l 2,11,12
 426 237 426 237 418 178 c 128,-1,13
 410 119 410 119 389.5 68 c 128,-1,14
 369 17 369 17 332 -12 c 128,-1,15
 295 -41 295 -41 236 -57 c 128,-1,16
 177 -73 177 -73 93 -73 c 2,17,-1
 16 -73 l 1,0,-1
EndSplineSet
EndChar

StartChar: afii10058
Encoding: 1033 1033 305
Width: 1679
GlyphClass: 2
Flags: W
LayerCount: 2
UndoRedoHistory
Layer: 1
Undoes
EndUndoes
Redoes
EndRedoes
EndUndoRedoHistory
Fore
SplineSet
38 -4 m 1,0,-1
 38 117 l 1,1,2
 47 117 47 117 56 117 c 0,3,4
 96 117 96 117 126 124 c 0,5,6
 162 133 162 133 190 162 c 128,-1,7
 218 191 218 191 235.5 230.5 c 128,-1,8
 253 270 253 270 267 345 c 128,-1,9
 281 420 281 420 290 503.5 c 128,-1,10
 299 587 299 587 309 720 c 2,11,-1
 374 1658 l 1,12,-1
 1019 1658 l 1,13,-1
 1019 963 l 1,14,-1
 1141 963 l 2,15,16
 1388 963 1388 963 1503 848 c 128,-1,17
 1618 733 1618 733 1618 476 c 0,18,19
 1618 243 1618 243 1505 121.5 c 128,-1,20
 1392 0 1392 0 1148 0 c 2,21,-1
 862 0 l 1,22,-1
 862 1540 l 1,23,-1
 515 1540 l 1,24,-1
 455 720 l 2,25,26
 446 600 446 600 437 515 c 128,-1,27
 428 430 428 430 413.5 348 c 128,-1,28
 399 266 399 266 379.5 213 c 128,-1,29
 360 160 360 160 332.5 114.5 c 128,-1,30
 305 69 305 69 268 44.5 c 0,31,32
 230 20 230 20 182 7 c 0,33,34
 137 -5 137 -5 80 -5 c 0,35,36
 76 -5 76 -5 71 -5 c 2,37,-1
 38 -4 l 1,0,-1
1019 120 m 1,38,-1
 1150 120 l 2,39,40
 1321 120 1321 120 1393.5 202.5 c 128,-1,41
 1466 285 1466 285 1466 478 c 0,42,43
 1466 664 1466 664 1394 753.5 c 128,-1,44
 1322 843 1322 843 1148 843 c 2,45,-1
 1019 843 l 1,46,-1
 1019 120 l 1,38,-1
EndSplineSet
EndChar

StartChar: afii10059
Encoding: 1034 1034 306
Width: 1559
GlyphClass: 2
Flags: W
LayerCount: 2
UndoRedoHistory
Layer: 1
Undoes
EndUndoes
Redoes
EndRedoes
EndUndoRedoHistory
Fore
SplineSet
1036 0 m 2,0,-1
 750 1 l 1,1,-1
 750 843 l 1,2,-1
 301 843 l 1,3,-1
 301 1 l 1,4,-1
 144 1 l 1,5,-1
 144 1660 l 1,6,-1
 301 1660 l 1,7,-1
 301 959 l 1,8,-1
 750 959 l 1,9,-1
 750 1660 l 1,10,-1
 907 1660 l 1,11,-1
 907 963 l 1,12,-1
 1029 963 l 2,13,14
 1276 963 1276 963 1391 848 c 128,-1,15
 1506 733 1506 733 1506 476 c 0,16,17
 1506 243 1506 243 1393 121.5 c 128,-1,18
 1280 0 1280 0 1036 0 c 2,0,-1
907 120 m 1,19,-1
 1038 120 l 2,20,21
 1209 120 1209 120 1281.5 202.5 c 128,-1,22
 1354 285 1354 285 1354 478 c 0,23,24
 1354 664 1354 664 1282 753.5 c 128,-1,25
 1210 843 1210 843 1036 843 c 2,26,-1
 907 843 l 1,27,-1
 907 120 l 1,19,-1
EndSplineSet
EndChar

StartChar: afii10060
Encoding: 1035 1035 307
Width: 945
GlyphClass: 2
Flags: W
LayerCount: 2
UndoRedoHistory
Layer: 1
Undoes
EndUndoes
Redoes
EndRedoes
EndUndoRedoHistory
Fore
SplineSet
223 0 m 1,0,-1
 223 1538 l 1,1,-1
 -76 1538 l 1,2,-1
 -76 1658 l 1,3,-1
 688 1658 l 1,4,-1
 688 1538 l 1,5,-1
 377 1538 l 1,6,-1
 377 896 l 1,7,8
 408 924 408 924 469 949 c 128,-1,9
 530 974 530 974 608 974 c 0,10,11
 706 974 706 974 772.5 923 c 128,-1,12
 839 872 839 872 839 769 c 2,13,-1
 839 0 l 1,14,-1
 688 0 l 1,15,-1
 688 744 l 2,16,17
 688 879 688 879 566 879 c 0,18,19
 463 879 463 879 377 800 c 1,20,-1
 377 0 l 1,21,-1
 223 0 l 1,0,-1
EndSplineSet
EndChar

StartChar: afii10066
Encoding: 1073 1073 311
Width: 899
GlyphClass: 2
Flags: W
LayerCount: 2
UndoRedoHistory
Layer: 1
Undoes
EndUndoes
Redoes
EndRedoes
EndUndoRedoHistory
Fore
SplineSet
454 -19 m 0,0,1
 451 -19 451 -19 448 -19 c 0,2,3
 306 -18 306 -18 214 80 c 0,4,5
 120 180 120 180 119 375 c 2,6,-1
 119 1073 l 2,7,8
 119 1194 119 1194 128.5 1281 c 128,-1,9
 138 1368 138 1368 154.5 1424.5 c 128,-1,10
 171 1481 171 1481 201 1518 c 128,-1,11
 231 1555 231 1555 263.5 1574 c 128,-1,12
 296 1593 296 1593 346.5 1607.5 c 128,-1,13
 397 1622 397 1622 444.5 1631 c 128,-1,14
 492 1640 492 1640 563 1659 c 128,-1,15
 634 1678 634 1678 698 1704 c 1,16,-1
 728 1576 l 1,17,18
 667 1551 667 1551 602 1534.5 c 128,-1,19
 537 1518 537 1518 495.5 1512 c 128,-1,20
 454 1506 454 1506 412.5 1495 c 128,-1,21
 371 1484 371 1484 347.5 1466 c 128,-1,22
 324 1448 324 1448 304.5 1411 c 128,-1,23
 285 1374 285 1374 277 1312 c 128,-1,24
 269 1250 269 1250 269 1155 c 2,25,-1
 269 1008 l 1,26,27
 310 1044 310 1044 384.5 1072.5 c 128,-1,28
 459 1101 459 1101 525 1102 c 1,29,30
 662 1102 662 1102 733 997.5 c 128,-1,31
 804 893 804 893 804 650 c 2,32,-1
 804 442 l 2,33,34
 804 308 804 308 780 216.5 c 128,-1,35
 756 125 756 125 708 75 c 128,-1,36
 660 25 660 25 599.5 4 c 128,-1,37
 539 -17 539 -17 454 -19 c 0,0,1
465 94 m 0,38,39
 564 96 564 96 608.5 163 c 128,-1,40
 653 230 653 230 653 403 c 2,41,-1
 653 687 l 2,42,43
 653 860 653 860 617.5 928 c 128,-1,44
 582 996 582 996 494 996 c 0,45,46
 443 996 443 996 376.5 967.5 c 128,-1,47
 310 939 310 939 269 904 c 1,48,-1
 269 371 l 2,49,50
 270 228 270 228 322 160 c 0,51,52
 373 94 373 94 460 94 c 0,53,54
 462 94 462 94 465 94 c 0,38,39
EndSplineSet
EndChar

StartChar: afii10067
Encoding: 1074 1074 312
Width: 799
GlyphClass: 2
Flags: W
LayerCount: 2
UndoRedoHistory
Layer: 1
Undoes
EndUndoes
Redoes
EndRedoes
EndUndoRedoHistory
Fore
SplineSet
114 0 m 1,0,-1
 114 1184 l 1,1,-1
 402 1184 l 2,2,3
 485 1184 485 1184 545.5 1160.5 c 128,-1,4
 606 1137 606 1137 639.5 1096 c 128,-1,5
 673 1055 673 1055 688 1006.5 c 128,-1,6
 703 958 703 958 704 899 c 0,7,8
 704 896 704 896 704 894 c 0,9,10
 704 697 704 697 554 642 c 1,11,12
 731 595 731 595 731 344 c 0,13,14
 731 262 731 262 717 203 c 128,-1,15
 703 144 703 144 669.5 96 c 128,-1,16
 636 48 636 48 573 24 c 128,-1,17
 510 0 510 0 418 0 c 2,18,-1
 114 0 l 1,0,-1
261 115 m 1,19,-1
 392 115 l 2,20,21
 492 115 492 115 537.5 172.5 c 128,-1,22
 583 230 583 230 583 348 c 0,23,24
 583 478 583 478 537 526 c 128,-1,25
 491 574 491 574 402 574 c 2,26,-1
 261 574 l 1,27,-1
 261 115 l 1,19,-1
261 685 m 1,28,-1
 411 685 l 2,29,30
 483 685 483 685 526 736.5 c 128,-1,31
 569 788 569 788 569 884 c 0,32,33
 569 975 569 975 522.5 1022 c 128,-1,34
 476 1069 476 1069 386 1069 c 2,35,-1
 261 1069 l 1,36,-1
 261 685 l 1,28,-1
EndSplineSet
EndChar

StartChar: afii10068
Encoding: 1075 1075 313
Width: 580
GlyphClass: 2
Flags: W
LayerCount: 2
UndoRedoHistory
Layer: 1
Undoes
EndUndoes
Redoes
EndRedoes
EndUndoRedoHistory
Fore
SplineSet
114 0 m 1,0,-1
 114 1184 l 1,1,-1
 551 1184 l 1,2,-1
 551 1072 l 1,3,-1
 264 1072 l 1,4,-1
 264 0 l 1,5,-1
 114 0 l 1,0,-1
EndSplineSet
EndChar

StartChar: afii10069
Encoding: 1076 1076 314
Width: 964
GlyphClass: 2
Flags: W
LayerCount: 2
UndoRedoHistory
Layer: 1
Undoes
EndUndoes
Redoes
EndRedoes
EndUndoRedoHistory
Fore
SplineSet
20 -285 m 1,0,-1
 20 103 l 1,1,2
 96 151 96 151 143 231 c 128,-1,3
 190 311 190 311 223.5 477 c 128,-1,4
 257 643 257 643 268 907 c 1,5,-1
 287 1184 l 1,6,-1
 781 1184 l 1,7,-1
 781 108 l 1,8,-1
 900 108 l 1,9,-1
 900 -285 l 1,10,-1
 786 -285 l 1,11,-1
 773 0 l 1,12,-1
 146 0 l 1,13,-1
 133 -285 l 1,14,-1
 20 -285 l 1,0,-1
176 108 m 1,15,-1
 635 108 l 1,16,-1
 635 1073 l 1,17,-1
 407 1073 l 1,18,-1
 389 877 l 1,19,20
 379 620 379 620 352 464 c 128,-1,21
 325 308 325 308 284.5 230.5 c 128,-1,22
 244 153 244 153 176 108 c 1,15,-1
EndSplineSet
EndChar

StartChar: afii10072
Encoding: 1078 1078 317
Width: 1093
GlyphClass: 2
Flags: W
LayerCount: 2
UndoRedoHistory
Layer: 1
Undoes
EndUndoes
Redoes
EndRedoes
EndUndoRedoHistory
Fore
SplineSet
8 0 m 1,0,-1
 343 606 l 1,1,-1
 26 1184 l 1,2,-1
 169 1184 l 1,3,-1
 467 616 l 1,4,-1
 485 616 l 1,5,-1
 485 1184 l 1,6,-1
 610 1184 l 1,7,-1
 610 616 l 1,8,-1
 628 616 l 1,9,-1
 924 1184 l 1,10,-1
 1067 1184 l 1,11,-1
 751 606 l 1,12,-1
 1085 0 l 1,13,-1
 944 0 l 1,14,-1
 629 587 l 1,15,-1
 610 587 l 1,16,-1
 610 0 l 1,17,-1
 485 0 l 1,18,-1
 485 587 l 1,19,-1
 465 587 l 1,20,-1
 149 0 l 1,21,-1
 8 0 l 1,0,-1
EndSplineSet
EndChar

StartChar: afii10073
Encoding: 1079 1079 318
Width: 746
GlyphClass: 2
Flags: W
LayerCount: 2
UndoRedoHistory
Layer: 1
Undoes
EndUndoes
Redoes
EndRedoes
EndUndoRedoHistory
Fore
SplineSet
376 -20 m 0,0,1
 80 -19 80 -19 80 333 c 1,2,-1
 213 333 l 1,3,4
 213 90 213 90 378 89 c 0,5,6
 379 89 379 89 381 89 c 0,7,8
 467 89 467 89 504 152 c 0,9,10
 540 213 540 213 540 325 c 0,11,12
 540 331 540 331 540 337 c 0,13,14
 538 453 538 453 482 506 c 128,-1,15
 426 559 426 559 292 559 c 1,16,-1
 292 670 l 1,17,18
 428 670 428 670 481.5 719 c 128,-1,19
 535 768 535 768 538 872 c 1,20,21
 538 880 538 880 538 888 c 0,22,23
 538 974 538 974 498 1030 c 0,24,25
 454 1090 454 1090 376 1090 c 0,26,27
 204 1090 204 1090 204 874 c 1,28,-1
 72 874 l 1,29,30
 72 1202 72 1202 380 1202 c 0,31,32
 455 1202 455 1202 513 1175.5 c 128,-1,33
 571 1149 571 1149 605.5 1103.5 c 128,-1,34
 640 1058 640 1058 657 1002 c 0,35,36
 673 949 673 949 673 887 c 0,37,38
 673 883 673 883 673 880 c 0,39,40
 671 759 671 759 614 694.5 c 128,-1,41
 557 630 557 630 472 617 c 1,42,43
 516 605 516 605 548 587.5 c 128,-1,44
 580 570 580 570 611 537.5 c 128,-1,45
 642 505 642 505 658.5 450.5 c 128,-1,46
 675 396 675 396 676 320 c 0,47,48
 676 316 676 316 676 312 c 0,49,50
 676 155 676 155 600 68 c 0,51,52
 523 -20 523 -20 379 -20 c 0,53,54
 378 -20 378 -20 376 -20 c 0,0,1
EndSplineSet
EndChar

StartChar: afii10074
Encoding: 1080 1080 319
Width: 872
GlyphClass: 2
Flags: W
LayerCount: 2
UndoRedoHistory
Layer: 1
Undoes
EndUndoes
Redoes
EndRedoes
EndUndoRedoHistory
Fore
SplineSet
114 0 m 1,0,-1
 114 1184 l 1,1,-1
 242 1184 l 1,2,-1
 242 272 l 1,3,-1
 637 1184 l 1,4,-1
 758 1184 l 1,5,-1
 758 0 l 1,6,-1
 632 0 l 1,7,-1
 632 909 l 1,8,-1
 238 0 l 1,9,-1
 114 0 l 1,0,-1
EndSplineSet
EndChar

StartChar: afii10076
Encoding: 1082 1082 321
Width: 795
GlyphClass: 2
Flags: W
LayerCount: 2
UndoRedoHistory
Layer: 1
Undoes
EndUndoes
Redoes
EndRedoes
EndUndoRedoHistory
Fore
SplineSet
114 0 m 1,0,-1
 114 1184 l 1,1,-1
 264 1184 l 1,2,-1
 264 663 l 1,3,-1
 350 663 l 1,4,-1
 618 1184 l 1,5,-1
 774 1184 l 1,6,-1
 486 613 l 1,7,-1
 783 0 l 1,8,-1
 626 0 l 1,9,-1
 349 569 l 1,10,-1
 264 569 l 1,11,-1
 264 0 l 1,12,-1
 114 0 l 1,0,-1
EndSplineSet
EndChar

StartChar: afii10077
Encoding: 1083 1083 322
Width: 939
GlyphClass: 2
Flags: W
LayerCount: 2
UndoRedoHistory
Layer: 1
Undoes
EndUndoes
Redoes
EndRedoes
EndUndoRedoHistory
Fore
SplineSet
23 -10 m 1,0,-1
 23 104 l 1,1,2
 72 105 72 105 104 120 c 128,-1,3
 136 135 136 135 160.5 167.5 c 128,-1,4
 185 200 185 200 200.5 267 c 128,-1,5
 216 334 216 334 227 422.5 c 128,-1,6
 238 511 238 511 248 654 c 2,7,-1
 285 1184 l 1,8,-1
 825 1184 l 1,9,-1
 825 0 l 1,10,-1
 675 0 l 1,11,-1
 675 1068 l 1,12,-1
 416 1068 l 1,13,-1
 386 654 l 2,14,15
 377 516 377 516 365.5 420.5 c 128,-1,16
 354 325 354 325 336 247 c 128,-1,17
 318 169 318 169 294 122.5 c 128,-1,18
 270 76 270 76 233.5 45 c 128,-1,19
 197 14 197 14 152 2 c 128,-1,20
 107 -10 107 -10 44 -10 c 2,21,-1
 23 -10 l 1,0,-1
EndSplineSet
EndChar

StartChar: afii10078
Encoding: 1084 1084 323
Width: 1015
GlyphClass: 2
Flags: W
LayerCount: 2
UndoRedoHistory
Layer: 1
Undoes
EndUndoes
Redoes
EndRedoes
EndUndoRedoHistory
Fore
SplineSet
106 0 m 1,0,-1
 117 1184 l 1,1,-1
 230 1184 l 1,2,-1
 507 370 l 1,3,-1
 783 1184 l 1,4,-1
 899 1184 l 1,5,-1
 909 0 l 1,6,-1
 781 0 l 1,7,-1
 778 832 l 1,8,-1
 530 122 l 1,9,-1
 483 122 l 1,10,-1
 237 829 l 1,11,-1
 234 0 l 1,12,-1
 106 0 l 1,0,-1
EndSplineSet
EndChar

StartChar: afii10079
Encoding: 1085 1085 324
Width: 898
GlyphClass: 2
Flags: W
LayerCount: 2
UndoRedoHistory
Layer: 1
Undoes
EndUndoes
Redoes
EndRedoes
EndUndoRedoHistory
Fore
SplineSet
114 0 m 1,0,-1
 114 1184 l 1,1,-1
 264 1184 l 1,2,-1
 264 669 l 1,3,-1
 634 669 l 1,4,-1
 634 1184 l 1,5,-1
 784 1184 l 1,6,-1
 784 0 l 1,7,-1
 634 0 l 1,8,-1
 634 556 l 1,9,-1
 264 556 l 1,10,-1
 264 0 l 1,11,-1
 114 0 l 1,0,-1
EndSplineSet
EndChar

StartChar: afii10081
Encoding: 1087 1087 326
Width: 861
GlyphClass: 2
Flags: W
LayerCount: 2
UndoRedoHistory
Layer: 1
Undoes
EndUndoes
Redoes
EndRedoes
EndUndoRedoHistory
Fore
SplineSet
114 0 m 1,0,-1
 114 1184 l 1,1,-1
 747 1184 l 1,2,-1
 747 0 l 1,3,-1
 597 0 l 1,4,-1
 597 1067 l 1,5,-1
 264 1067 l 1,6,-1
 264 0 l 1,7,-1
 114 0 l 1,0,-1
EndSplineSet
EndChar

StartChar: afii10084
Encoding: 1090 1090 329
Width: 686
GlyphClass: 2
Flags: W
LayerCount: 2
UndoRedoHistory
Layer: 1
Undoes
EndUndoes
Redoes
EndRedoes
EndUndoRedoHistory
Fore
SplineSet
270 0 m 1,0,-1
 270 1070 l 1,1,-1
 14 1070 l 1,2,-1
 14 1184 l 1,3,-1
 672 1184 l 1,4,-1
 672 1070 l 1,5,-1
 420 1070 l 1,6,-1
 420 0 l 1,7,-1
 270 0 l 1,0,-1
EndSplineSet
EndChar

StartChar: afii10085
Encoding: 1091 1091 330
Width: 782
GlyphClass: 2
Flags: W
LayerCount: 2
UndoRedoHistory
Layer: 1
Undoes
EndUndoes
Redoes
EndRedoes
EndUndoRedoHistory
Fore
SplineSet
87 -300 m 1,0,-1
 87 -175 l 1,1,2
 196 -174 196 -174 252 -142 c 128,-1,3
 308 -110 308 -110 316 -51 c 0,4,5
 318 -34 318 -34 318 -14 c 0,6,7
 318 33 318 33 305 92 c 2,8,-1
 50 1184 l 1,9,-1
 193 1184 l 1,10,-1
 322 562 l 1,11,-1
 403 153 l 1,12,-1
 475 557 l 1,13,-1
 593 1184 l 1,14,-1
 739 1184 l 1,15,-1
 467 -37 l 2,16,17
 449 -117 449 -117 418 -168.5 c 128,-1,18
 387 -220 387 -220 336 -247.5 c 128,-1,19
 285 -275 285 -275 229.5 -285.5 c 128,-1,20
 174 -296 174 -296 87 -300 c 1,0,-1
EndSplineSet
EndChar

StartChar: afii10086
Encoding: 1092 1092 331
Width: 1148
GlyphClass: 2
Flags: W
LayerCount: 2
UndoRedoHistory
Layer: 1
Undoes
EndUndoes
Redoes
EndRedoes
EndUndoRedoHistory
Fore
SplineSet
504 -390 m 1,0,-1
 504 81 l 1,1,-1
 460 81 l 2,2,3
 418 81 418 81 383 85 c 128,-1,4
 348 89 348 89 309.5 101 c 128,-1,5
 271 113 271 113 240.5 132.5 c 128,-1,6
 210 152 210 152 181 185 c 128,-1,7
 152 218 152 218 133.5 262.5 c 128,-1,8
 115 307 115 307 103.5 371 c 128,-1,9
 92 435 92 435 92 513 c 2,10,-1
 92 726 l 2,11,12
 92 846 92 846 118 930.5 c 128,-1,13
 144 1015 144 1015 193.5 1062 c 128,-1,14
 243 1109 243 1109 304.5 1129.5 c 128,-1,15
 366 1150 366 1150 446 1150 c 2,16,-1
 504 1150 l 1,17,-1
 504 1658 l 1,18,-1
 642 1658 l 1,19,-1
 642 1150 l 1,20,-1
 706 1150 l 2,21,22
 785 1150 785 1150 846 1129.5 c 128,-1,23
 907 1109 907 1109 955.5 1062 c 128,-1,24
 1004 1015 1004 1015 1030 930.5 c 128,-1,25
 1056 846 1056 846 1056 726 c 2,26,-1
 1056 513 l 2,27,28
 1056 404 1056 404 1034.5 324 c 128,-1,29
 1013 244 1013 244 979.5 198 c 128,-1,30
 946 152 946 152 896 125 c 128,-1,31
 846 98 846 98 798.5 89.5 c 128,-1,32
 751 81 751 81 691 81 c 2,33,-1
 642 81 l 1,34,-1
 642 -390 l 1,35,-1
 504 -390 l 1,0,-1
464 188 m 2,36,-1
 504 188 l 1,37,-1
 504 1049 l 1,38,-1
 450 1049 l 2,39,40
 405 1049 405 1049 373.5 1042.5 c 128,-1,41
 342 1036 342 1036 312.5 1017.5 c 128,-1,42
 283 999 283 999 265.5 965.5 c 128,-1,43
 248 932 248 932 237.5 877 c 128,-1,44
 227 822 227 822 227 744 c 2,45,-1
 227 512 l 2,46,47
 227 429 227 429 238.5 370 c 128,-1,48
 250 311 250 311 269 276 c 128,-1,49
 288 241 288 241 319.5 221 c 128,-1,50
 351 201 351 201 384 194.5 c 128,-1,51
 417 188 417 188 464 188 c 2,36,-1
683 188 m 2,52,53
 730 188 730 188 763 194.5 c 128,-1,54
 796 201 796 201 828 221 c 128,-1,55
 860 241 860 241 879.5 276 c 128,-1,56
 899 311 899 311 910.5 370 c 128,-1,57
 922 429 922 429 922 512 c 2,58,-1
 922 744 l 2,59,60
 922 840 922 840 907 902.5 c 128,-1,61
 892 965 892 965 860 996 c 128,-1,62
 828 1027 828 1027 791 1038 c 128,-1,63
 754 1049 754 1049 697 1049 c 2,64,-1
 642 1049 l 1,65,-1
 642 188 l 1,66,-1
 683 188 l 2,52,53
EndSplineSet
EndChar

StartChar: afii10088
Encoding: 1094 1094 333
Width: 898
GlyphClass: 2
Flags: W
LayerCount: 2
UndoRedoHistory
Layer: 1
Undoes
EndUndoes
Redoes
EndRedoes
EndUndoRedoHistory
Fore
SplineSet
762 -285 m 1,0,-1
 749 0 l 1,1,-1
 114 0 l 1,2,-1
 114 1184 l 1,3,-1
 264 1184 l 1,4,-1
 264 106 l 1,5,-1
 605 106 l 1,6,-1
 605 1184 l 1,7,-1
 755 1184 l 1,8,-1
 755 106 l 1,9,-1
 873 106 l 1,10,-1
 873 -285 l 1,11,-1
 762 -285 l 1,0,-1
EndSplineSet
EndChar

StartChar: afii10089
Encoding: 1095 1095 334
Width: 814
GlyphClass: 2
Flags: W
LayerCount: 2
UndoRedoHistory
Layer: 1
Undoes
EndUndoes
Redoes
EndRedoes
EndUndoRedoHistory
Fore
SplineSet
548 0 m 1,0,-1
 548 494 l 1,1,2
 435 473 435 473 374 473 c 0,3,4
 239 473 239 473 160 537.5 c 128,-1,5
 81 602 81 602 81 746 c 2,6,-1
 81 1184 l 1,7,-1
 231 1184 l 1,8,-1
 231 743 l 2,9,10
 231 662 231 662 273.5 622 c 128,-1,11
 316 582 316 582 406 582 c 0,12,13
 471 582 471 582 548 600 c 1,14,-1
 548 1184 l 1,15,-1
 698 1184 l 1,16,-1
 698 0 l 1,17,-1
 548 0 l 1,0,-1
EndSplineSet
EndChar

StartChar: afii10090
Encoding: 1096 1096 335
Width: 1185
GlyphClass: 2
Flags: W
LayerCount: 2
UndoRedoHistory
Layer: 1
Undoes
EndUndoes
Redoes
EndRedoes
EndUndoRedoHistory
Fore
SplineSet
114 0 m 1,0,-1
 114 1184 l 1,1,-1
 260 1184 l 1,2,-1
 260 106 l 1,3,-1
 520 106 l 1,4,-1
 520 1184 l 1,5,-1
 666 1184 l 1,6,-1
 666 106 l 1,7,-1
 925 106 l 1,8,-1
 925 1184 l 1,9,-1
 1071 1184 l 1,10,-1
 1071 0 l 1,11,-1
 114 0 l 1,0,-1
EndSplineSet
EndChar

StartChar: afii10091
Encoding: 1097 1097 336
Width: 1250
GlyphClass: 2
Flags: W
LayerCount: 2
UndoRedoHistory
Layer: 1
Undoes
EndUndoes
Redoes
EndRedoes
EndUndoRedoHistory
Fore
SplineSet
1086 -285 m 1,0,-1
 1071 0 l 1,1,-1
 114 0 l 1,2,-1
 114 1184 l 1,3,-1
 259 1184 l 1,4,-1
 259 106 l 1,5,-1
 524 106 l 1,6,-1
 524 1184 l 1,7,-1
 669 1184 l 1,8,-1
 669 106 l 1,9,-1
 932 106 l 1,10,-1
 932 1184 l 1,11,-1
 1077 1184 l 1,12,-1
 1077 106 l 1,13,-1
 1196 106 l 1,14,-1
 1196 -285 l 1,15,-1
 1086 -285 l 1,0,-1
EndSplineSet
EndChar

StartChar: afii10092
Encoding: 1098 1098 337
Width: 934
GlyphClass: 2
Flags: W
LayerCount: 2
UndoRedoHistory
Layer: 1
Undoes
EndUndoes
Redoes
EndRedoes
EndUndoRedoHistory
Fore
SplineSet
248 0 m 1,0,-1
 248 1072 l 1,1,-1
 -5 1072 l 1,2,-1
 -5 1184 l 1,3,-1
 398 1184 l 1,4,-1
 398 703 l 1,5,-1
 471 703 l 2,6,7
 565 703 565 703 635.5 686 c 128,-1,8
 706 669 706 669 751 639.5 c 128,-1,9
 796 610 796 610 823.5 564.5 c 128,-1,10
 851 519 851 519 862 467 c 128,-1,11
 873 415 873 415 873 348 c 0,12,13
 873 267 873 267 854.5 207 c 128,-1,14
 836 147 836 147 791 98.5 c 128,-1,15
 746 50 746 50 663 25 c 128,-1,16
 580 0 580 0 459 0 c 2,17,-1
 248 0 l 1,0,-1
398 95 m 1,18,-1
 459 95 l 2,19,20
 542 95 542 95 597 112 c 128,-1,21
 652 129 652 129 682 163.5 c 128,-1,22
 712 198 712 198 723.5 242 c 128,-1,23
 735 286 735 286 735 349 c 0,24,25
 735 397 735 397 729 433 c 128,-1,26
 723 469 723 469 705.5 503 c 128,-1,27
 688 537 688 537 658.5 559 c 128,-1,28
 629 581 629 581 580 594.5 c 128,-1,29
 531 608 531 608 464 608 c 2,30,-1
 398 608 l 1,31,-1
 398 95 l 1,18,-1
EndSplineSet
EndChar

StartChar: afii10093
Encoding: 1099 1099 338
Width: 1153
GlyphClass: 2
Flags: W
LayerCount: 2
UndoRedoHistory
Layer: 1
Undoes
EndUndoes
Redoes
EndRedoes
EndUndoRedoHistory
Fore
SplineSet
114 0 m 1,0,-1
 114 1184 l 1,1,-1
 264 1184 l 1,2,-1
 264 703 l 1,3,-1
 337 703 l 1,4,5
 454 702 454 702 534.5 677.5 c 128,-1,6
 615 653 615 653 658.5 604 c 128,-1,7
 702 555 702 555 720.5 494 c 128,-1,8
 739 433 739 433 739 348 c 0,9,10
 739 267 739 267 720.5 207 c 128,-1,11
 702 147 702 147 657 98.5 c 128,-1,12
 612 50 612 50 529 25 c 128,-1,13
 446 0 446 0 325 0 c 2,14,-1
 114 0 l 1,0,-1
264 95 m 1,15,-1
 325 95 l 2,16,17
 408 95 408 95 463 112 c 128,-1,18
 518 129 518 129 548 163.5 c 128,-1,19
 578 198 578 198 589.5 242 c 128,-1,20
 601 286 601 286 601 349 c 0,21,22
 601 397 601 397 595 433 c 128,-1,23
 589 469 589 469 571.5 503 c 128,-1,24
 554 537 554 537 524.5 559 c 128,-1,25
 495 581 495 581 446 594.5 c 128,-1,26
 397 608 397 608 330 608 c 2,27,-1
 264 608 l 1,28,-1
 264 95 l 1,15,-1
889 0 m 1,29,-1
 889 1184 l 1,30,-1
 1039 1184 l 1,31,-1
 1039 0 l 1,32,-1
 889 0 l 1,29,-1
EndSplineSet
EndChar

StartChar: afii10094
Encoding: 1100 1100 339
Width: 796
GlyphClass: 2
Flags: W
LayerCount: 2
UndoRedoHistory
Layer: 1
Undoes
EndUndoes
Redoes
EndRedoes
EndUndoRedoHistory
Fore
SplineSet
114 0 m 1,0,-1
 114 1184 l 1,1,-1
 264 1184 l 1,2,-1
 264 703 l 1,3,-1
 337 703 l 1,4,5
 454 702 454 702 534.5 677.5 c 128,-1,6
 615 653 615 653 658.5 604 c 128,-1,7
 702 555 702 555 720.5 494 c 128,-1,8
 739 433 739 433 739 348 c 0,9,10
 739 267 739 267 720.5 207 c 128,-1,11
 702 147 702 147 657 98.5 c 128,-1,12
 612 50 612 50 529 25 c 128,-1,13
 446 0 446 0 325 0 c 2,14,-1
 114 0 l 1,0,-1
264 95 m 1,15,-1
 325 95 l 2,16,17
 408 95 408 95 463 112 c 128,-1,18
 518 129 518 129 548 163.5 c 128,-1,19
 578 198 578 198 589.5 242 c 128,-1,20
 601 286 601 286 601 349 c 0,21,22
 601 397 601 397 595 433 c 128,-1,23
 589 469 589 469 571.5 503 c 128,-1,24
 554 537 554 537 524.5 559 c 128,-1,25
 495 581 495 581 446 594.5 c 128,-1,26
 397 608 397 608 330 608 c 2,27,-1
 264 608 l 1,28,-1
 264 95 l 1,15,-1
EndSplineSet
EndChar

StartChar: afii10095
Encoding: 1101 1101 340
Width: 811
GlyphClass: 2
Flags: W
LayerCount: 2
UndoRedoHistory
Layer: 1
Undoes
EndUndoes
Redoes
EndRedoes
EndUndoRedoHistory
Fore
SplineSet
404 -19 m 0,0,1
 330 -19 330 -19 276 -2 c 128,-1,2
 222 15 222 15 188.5 44.5 c 128,-1,3
 155 74 155 74 135.5 121 c 128,-1,4
 116 168 116 168 108.5 220 c 128,-1,5
 101 272 101 272 101 341 c 2,6,-1
 101 367 l 1,7,-1
 239 367 l 1,8,-1
 239 341 l 2,9,10
 239 202 239 202 277.5 148 c 128,-1,11
 316 94 316 94 406 94 c 0,12,13
 508 94 508 94 538.5 166 c 128,-1,14
 569 238 569 238 569 434 c 2,15,-1
 569 550 l 1,16,-1
 257 550 l 1,17,-1
 257 641 l 1,18,-1
 569 641 l 1,19,-1
 569 756 l 2,20,21
 569 946 569 946 536.5 1013 c 128,-1,22
 504 1080 504 1080 405 1080 c 128,-1,23
 306 1080 306 1080 272.5 1019 c 128,-1,24
 239 958 239 958 239 824 c 2,25,-1
 239 784 l 1,26,-1
 101 784 l 1,27,-1
 101 817 l 2,28,29
 101 886 101 886 108 938 c 128,-1,30
 115 990 115 990 135 1040 c 128,-1,31
 155 1090 155 1090 188 1122 c 128,-1,32
 221 1154 221 1154 276.5 1173 c 128,-1,33
 332 1192 332 1192 407 1192 c 0,34,35
 465 1192 465 1192 511 1180 c 128,-1,36
 557 1168 557 1168 589.5 1148 c 128,-1,37
 622 1128 622 1128 645.5 1095 c 128,-1,38
 669 1062 669 1062 683 1025.5 c 128,-1,39
 697 989 697 989 705.5 938 c 128,-1,40
 714 887 714 887 716.5 838.5 c 128,-1,41
 719 790 719 790 719 725 c 2,42,-1
 719 459 l 2,43,44
 719 329 719 329 705 243.5 c 128,-1,45
 691 158 691 158 656 96.5 c 128,-1,46
 621 35 621 35 559.5 8 c 128,-1,47
 498 -19 498 -19 404 -19 c 0,0,1
EndSplineSet
EndChar

StartChar: afii10096
Encoding: 1102 1102 341
Width: 1097
GlyphClass: 2
Flags: W
LayerCount: 2
UndoRedoHistory
Layer: 1
Undoes
EndUndoes
Redoes
EndRedoes
EndUndoRedoHistory
Fore
SplineSet
709 -19 m 0,0,1
 542 -19 542 -19 478 90.5 c 128,-1,2
 414 200 414 200 414 428 c 2,3,-1
 414 537 l 1,4,-1
 250 537 l 1,5,-1
 250 0 l 1,6,-1
 114 0 l 1,7,-1
 114 1184 l 1,8,-1
 250 1184 l 1,9,-1
 250 638 l 1,10,-1
 414 638 l 1,11,-1
 414 756 l 2,12,13
 414 868 414 868 427.5 946.5 c 128,-1,14
 441 1025 441 1025 474 1084.5 c 128,-1,15
 507 1144 507 1144 565 1173 c 128,-1,16
 623 1202 623 1202 709 1202 c 0,17,18
 875 1202 875 1202 939 1093 c 128,-1,19
 1003 984 1003 984 1003 756 c 2,20,-1
 1003 428 l 2,21,22
 1003 200 1003 200 939 90.5 c 128,-1,23
 875 -19 875 -19 709 -19 c 0,0,1
709 94 m 0,24,25
 752 94 752 94 782 110.5 c 128,-1,26
 812 127 812 127 829 152.5 c 128,-1,27
 846 178 846 178 854.5 223.5 c 128,-1,28
 863 269 863 269 865.5 311 c 128,-1,29
 868 353 868 353 868 420 c 2,30,-1
 868 764 l 2,31,32
 868 831 868 831 865.5 873 c 128,-1,33
 863 915 863 915 854.5 960.5 c 128,-1,34
 846 1006 846 1006 829 1031.5 c 128,-1,35
 812 1057 812 1057 782 1073.5 c 128,-1,36
 752 1090 752 1090 709 1090 c 0,37,38
 665 1090 665 1090 635 1073.5 c 128,-1,39
 605 1057 605 1057 588 1031.5 c 128,-1,40
 571 1006 571 1006 562.5 960.5 c 128,-1,41
 554 915 554 915 551.5 873 c 128,-1,42
 549 831 549 831 549 764 c 2,43,-1
 549 420 l 2,44,45
 549 353 549 353 551.5 311 c 128,-1,46
 554 269 554 269 562.5 223.5 c 128,-1,47
 571 178 571 178 588 152.5 c 128,-1,48
 605 127 605 127 635 110.5 c 128,-1,49
 665 94 665 94 709 94 c 0,24,25
EndSplineSet
EndChar

StartChar: afii10097
Encoding: 1103 1103 342
Width: 825
GlyphClass: 2
Flags: W
LayerCount: 2
UndoRedoHistory
Layer: 1
Undoes
EndUndoes
Redoes
EndRedoes
EndUndoRedoHistory
Fore
SplineSet
32 0 m 1,0,-1
 266 513 l 1,1,2
 177 548 177 548 137 635.5 c 128,-1,3
 97 723 97 723 97 837 c 0,4,5
 97 917 97 917 114.5 976 c 128,-1,6
 132 1035 132 1035 175 1084 c 128,-1,7
 218 1133 218 1133 299.5 1158.5 c 128,-1,8
 381 1184 381 1184 501 1184 c 2,9,-1
 711 1184 l 1,10,-1
 711 0 l 1,11,-1
 561 0 l 1,12,-1
 561 479 l 1,13,14
 456 479 456 479 406 485 c 1,15,-1
 194 0 l 1,16,-1
 32 0 l 1,0,-1
508 572 m 1,17,-1
 561 572 l 1,18,-1
 561 1091 l 1,19,-1
 495 1091 l 2,20,21
 415 1091 415 1091 362 1073.5 c 128,-1,22
 309 1056 309 1056 282 1020 c 128,-1,23
 255 984 255 984 245 941.5 c 128,-1,24
 235 899 235 899 235 836 c 0,25,26
 235 699 235 699 297 636 c 128,-1,27
 359 573 359 573 508 572 c 1,17,-1
EndSplineSet
EndChar

StartChar: afii10098
Encoding: 1169 1169 343
Width: 597
GlyphClass: 2
Flags: W
LayerCount: 2
UndoRedoHistory
Layer: 1
Undoes
EndUndoes
Redoes
EndRedoes
EndUndoRedoHistory
Fore
SplineSet
123 0 m 1,0,-1
 123 1184 l 1,1,-1
 472 1184 l 1,2,-1
 472 1350 l 1,3,-1
 560 1350 l 1,4,-1
 560 1072 l 1,5,-1
 273 1072 l 1,6,-1
 273 0 l 1,7,-1
 123 0 l 1,0,-1
EndSplineSet
EndChar

StartChar: afii10099
Encoding: 1106 1106 344
Width: 871
GlyphClass: 2
Flags: W
LayerCount: 2
UndoRedoHistory
Layer: 1
Undoes
EndUndoes
Redoes
EndRedoes
EndUndoRedoHistory
Fore
SplineSet
385 -268 m 1,0,-1
 385 -163 l 1,1,-1
 417 -163 l 2,2,3
 462 -163 462 -163 492.5 -157.5 c 128,-1,4
 523 -152 523 -152 546 -135 c 128,-1,5
 569 -118 569 -118 581.5 -95.5 c 128,-1,6
 594 -73 594 -73 602 -30.5 c 128,-1,7
 610 12 610 12 612 59.5 c 128,-1,8
 614 107 614 107 614 182 c 2,9,-1
 614 763 l 2,10,11
 614 836 614 836 584 868.5 c 128,-1,12
 554 901 554 901 495 901 c 128,-1,13
 436 901 436 901 376 877.5 c 128,-1,14
 316 854 316 854 285 824 c 1,15,-1
 285 0 l 1,16,-1
 135 0 l 1,17,-1
 135 1275 l 1,18,-1
 -13 1275 l 1,19,-1
 -13 1368 l 1,20,-1
 135 1368 l 1,21,-1
 135 1658 l 1,22,-1
 285 1658 l 1,23,-1
 285 1368 l 1,24,-1
 553 1368 l 1,25,-1
 553 1275 l 1,26,-1
 285 1275 l 1,27,-1
 285 912 l 1,28,29
 321 943 321 943 391 971.5 c 128,-1,30
 461 1000 461 1000 545 1000 c 0,31,32
 647 1000 647 1000 705.5 945 c 128,-1,33
 764 890 764 890 764 790 c 2,34,-1
 764 207 l 2,35,36
 764 127 764 127 761.5 73.5 c 128,-1,37
 759 20 759 20 751.5 -35 c 128,-1,38
 744 -90 744 -90 730 -123 c 128,-1,39
 716 -156 716 -156 692.5 -187 c 128,-1,40
 669 -218 669 -218 634.5 -234 c 128,-1,41
 600 -250 600 -250 552.5 -259 c 128,-1,42
 505 -268 505 -268 441 -268 c 2,43,-1
 385 -268 l 1,0,-1
EndSplineSet
EndChar

StartChar: afii10101
Encoding: 1108 1108 346
Width: 787
GlyphClass: 2
Flags: W
LayerCount: 2
UndoRedoHistory
Layer: 1
Undoes
EndUndoes
Redoes
EndRedoes
EndUndoRedoHistory
Fore
SplineSet
410 -19 m 0,0,1
 329 -19 329 -19 271 5 c 128,-1,2
 213 29 213 29 179 67.5 c 128,-1,3
 145 106 145 106 125.5 169 c 128,-1,4
 106 232 106 232 99.5 296.5 c 128,-1,5
 93 361 93 361 93 449 c 2,6,-1
 93 725 l 2,7,8
 93 854 93 854 107 939.5 c 128,-1,9
 121 1025 121 1025 156.5 1086 c 128,-1,10
 192 1147 192 1147 253.5 1174.5 c 128,-1,11
 315 1202 315 1202 409 1202 c 0,12,13
 501 1202 501 1202 562 1176.5 c 128,-1,14
 623 1151 623 1151 655 1099.5 c 128,-1,15
 687 1048 687 1048 699.5 984.5 c 128,-1,16
 712 921 712 921 712 829 c 2,17,-1
 712 798 l 1,18,-1
 573 798 l 1,19,-1
 573 829 l 2,20,21
 573 981 573 981 537 1035.5 c 128,-1,22
 501 1090 501 1090 411 1090 c 0,23,24
 309 1090 309 1090 276 1017.5 c 128,-1,25
 243 945 243 945 243 750 c 2,26,-1
 243 653 l 1,27,-1
 547 653 l 1,28,-1
 547 550 l 1,29,-1
 243 550 l 1,30,-1
 243 418 l 2,31,32
 243 236 243 236 278.5 165 c 128,-1,33
 314 94 314 94 412 94 c 0,34,35
 512 94 512 94 542.5 156.5 c 128,-1,36
 573 219 573 219 573 375 c 2,37,-1
 573 413 l 1,38,-1
 712 413 l 1,39,-1
 712 382 l 2,40,41
 712 304 712 304 705.5 247.5 c 128,-1,42
 699 191 699 191 679.5 138 c 128,-1,43
 660 85 660 85 627.5 52.5 c 128,-1,44
 595 20 595 20 540 0.5 c 128,-1,45
 485 -19 485 -19 410 -19 c 0,0,1
EndSplineSet
EndChar

StartChar: afii10103
Encoding: 1110 1110 348
Width: 474
GlyphClass: 2
Flags: W
LayerCount: 2
UndoRedoHistory
Layer: 1
Undoes
EndUndoes
Redoes
EndRedoes
EndUndoRedoHistory
Fore
SplineSet
164 0 m 1,0,-1
 164 1184 l 1,1,-1
 314 1184 l 1,2,-1
 314 0 l 1,3,-1
 164 0 l 1,0,-1
158 1334 m 1,4,-1
 158 1533 l 1,5,-1
 324 1533 l 1,6,-1
 324 1334 l 1,7,-1
 158 1334 l 1,4,-1
EndSplineSet
EndChar

StartChar: afii10105
Encoding: 1112 1112 350
Width: 430
GlyphClass: 2
Flags: W
LayerCount: 2
UndoRedoHistory
Layer: 1
Undoes
EndUndoes
Redoes
EndRedoes
EndUndoRedoHistory
Fore
SplineSet
-34 -303 m 1,0,-1
 -34 -189 l 1,1,2
 -24 -192 -24 -192 17 -192 c 0,3,4
 53 -192 53 -192 79.5 -183 c 128,-1,5
 106 -174 106 -174 120.5 -159.5 c 128,-1,6
 135 -145 135 -145 143.5 -122.5 c 128,-1,7
 152 -100 152 -100 154.5 -78.5 c 128,-1,8
 157 -57 157 -57 157 -28 c 2,9,-1
 157 1184 l 1,10,-1
 307 1184 l 1,11,-1
 307 -41 l 2,12,13
 307 -178 307 -178 239 -244 c 128,-1,14
 171 -310 171 -310 46 -310 c 0,15,16
 -17 -310 -17 -310 -34 -303 c 1,0,-1
157 1347 m 1,17,-1
 157 1551 l 1,18,-1
 308 1551 l 1,19,-1
 308 1347 l 1,20,-1
 157 1347 l 1,17,-1
EndSplineSet
EndChar

StartChar: afii10106
Encoding: 1113 1113 351
Width: 1282
GlyphClass: 2
Flags: W
LayerCount: 2
UndoRedoHistory
Layer: 1
Undoes
EndUndoes
Redoes
EndRedoes
EndUndoRedoHistory
Fore
SplineSet
9 -10 m 1,0,-1
 9 104 l 1,1,2
 57 104 57 104 89.5 119 c 128,-1,3
 122 134 122 134 146 166 c 128,-1,4
 170 198 170 198 186 259.5 c 128,-1,5
 202 321 202 321 212 401 c 128,-1,6
 222 481 222 481 231 606 c 2,7,-1
 272 1184 l 1,8,-1
 812 1184 l 1,9,-1
 812 660 l 1,10,-1
 868 660 l 2,11,12
 958 660 958 660 1023 645 c 128,-1,13
 1088 630 1088 630 1129 603.5 c 128,-1,14
 1170 577 1170 577 1193.5 534 c 128,-1,15
 1217 491 1217 491 1226 442.5 c 128,-1,16
 1235 394 1235 394 1235 328 c 0,17,18
 1235 265 1235 265 1226 218 c 128,-1,19
 1217 171 1217 171 1192 128.5 c 128,-1,20
 1167 86 1167 86 1125 59.5 c 128,-1,21
 1083 33 1083 33 1015.5 17 c 128,-1,22
 948 1 948 1 855 0 c 1,23,-1
 662 0 l 1,24,-1
 662 1068 l 1,25,-1
 403 1068 l 1,26,-1
 367 586 l 2,27,28
 359 471 359 471 346.5 383 c 128,-1,29
 334 295 334 295 319 231.5 c 128,-1,30
 304 168 304 168 281 124.5 c 128,-1,31
 258 81 258 81 234.5 54.5 c 128,-1,32
 211 28 211 28 176 13.5 c 128,-1,33
 141 -1 141 -1 107 -5.5 c 128,-1,34
 73 -10 73 -10 25 -10 c 2,35,-1
 9 -10 l 1,0,-1
812 95 m 1,36,-1
 857 95 l 2,37,38
 934 95 934 95 982.5 109.5 c 128,-1,39
 1031 124 1031 124 1055.5 156.5 c 128,-1,40
 1080 189 1080 189 1088.5 228 c 128,-1,41
 1097 267 1097 267 1097 329 c 0,42,43
 1097 377 1097 377 1093 409 c 128,-1,44
 1089 441 1089 441 1075 473 c 128,-1,45
 1061 505 1061 505 1035 523.5 c 128,-1,46
 1009 542 1009 542 964.5 553.5 c 128,-1,47
 920 565 920 565 857 565 c 2,48,-1
 812 565 l 1,49,-1
 812 95 l 1,36,-1
EndSplineSet
EndChar

StartChar: afii10107
Encoding: 1114 1114 352
Width: 1226
GlyphClass: 2
Flags: W
LayerCount: 2
UndoRedoHistory
Layer: 1
Undoes
EndUndoes
Redoes
EndRedoes
EndUndoRedoHistory
Fore
SplineSet
114 0 m 1,0,-1
 114 1184 l 1,1,-1
 264 1184 l 1,2,-1
 264 666 l 1,3,-1
 588 666 l 1,4,-1
 588 1184 l 1,5,-1
 738 1184 l 1,6,-1
 738 660 l 1,7,-1
 805 660 l 1,8,9
 919 659 919 659 994 637 c 128,-1,10
 1069 615 1069 615 1109 570 c 128,-1,11
 1149 525 1149 525 1164 468.5 c 128,-1,12
 1179 412 1179 412 1179 328 c 0,13,14
 1179 264 1179 264 1170 217 c 128,-1,15
 1161 170 1161 170 1136 127.5 c 128,-1,16
 1111 85 1111 85 1068.5 58.5 c 128,-1,17
 1026 32 1026 32 957.5 16.5 c 128,-1,18
 889 1 889 1 795 0 c 1,19,-1
 588 0 l 1,20,-1
 588 560 l 1,21,-1
 264 560 l 1,22,-1
 264 0 l 1,23,-1
 114 0 l 1,0,-1
738 95 m 1,24,-1
 800 95 l 1,25,26
 877 96 877 96 926 110.5 c 128,-1,27
 975 125 975 125 999.5 157 c 128,-1,28
 1024 189 1024 189 1032.5 228 c 128,-1,29
 1041 267 1041 267 1041 329 c 0,30,31
 1041 389 1041 389 1033.5 426.5 c 128,-1,32
 1026 464 1026 464 1002 498 c 128,-1,33
 978 532 978 532 928.5 548 c 128,-1,34
 879 564 879 564 801 565 c 1,35,-1
 738 565 l 1,36,-1
 738 95 l 1,24,-1
EndSplineSet
EndChar

StartChar: afii10108
Encoding: 1115 1115 353
Width: 871
GlyphClass: 2
Flags: W
LayerCount: 2
UndoRedoHistory
Layer: 1
Undoes
EndUndoes
Redoes
EndRedoes
EndUndoRedoHistory
Fore
SplineSet
135 0 m 1,0,-1
 135 1275 l 1,1,-1
 -13 1275 l 1,2,-1
 -13 1368 l 1,3,-1
 135 1368 l 1,4,-1
 135 1658 l 1,5,-1
 285 1658 l 1,6,-1
 285 1368 l 1,7,-1
 553 1368 l 1,8,-1
 553 1275 l 1,9,-1
 285 1275 l 1,10,-1
 285 912 l 1,11,12
 321 943 321 943 391 971.5 c 128,-1,13
 461 1000 461 1000 545 1000 c 0,14,15
 647 1000 647 1000 705.5 945 c 128,-1,16
 764 890 764 890 764 790 c 2,17,-1
 764 0 l 1,18,-1
 614 0 l 1,19,-1
 614 763 l 2,20,21
 614 836 614 836 584 868.5 c 128,-1,22
 554 901 554 901 495 901 c 0,23,24
 442 901 442 901 378.5 877 c 128,-1,25
 315 853 315 853 285 824 c 1,26,-1
 285 0 l 1,27,-1
 135 0 l 1,0,-1
EndSplineSet
EndChar

StartChar: afii10145
Encoding: 1039 1039 356
Width: 1074
GlyphClass: 2
Flags: W
LayerCount: 2
UndoRedoHistory
Layer: 1
Undoes
EndUndoes
Redoes
EndRedoes
EndUndoRedoHistory
Fore
SplineSet
490 -285 m 1,0,-1
 477 0 l 1,1,-1
 144 0 l 1,2,-1
 144 1658 l 1,3,-1
 301 1658 l 1,4,-1
 301 115 l 1,5,-1
 773 115 l 1,6,-1
 773 1658 l 1,7,-1
 930 1658 l 1,8,-1
 930 0 l 1,9,-1
 621 0 l 1,10,-1
 609 -285 l 1,11,-1
 490 -285 l 1,0,-1
EndSplineSet
EndChar

StartChar: afii10193
Encoding: 1119 1119 357
Width: 859
GlyphClass: 2
Flags: W
LayerCount: 2
UndoRedoHistory
Layer: 1
Undoes
EndUndoes
Redoes
EndRedoes
EndUndoRedoHistory
Fore
SplineSet
384 -285 m 1,0,-1
 369 0 l 1,1,-1
 114 0 l 1,2,-1
 114 1184 l 1,3,-1
 264 1184 l 1,4,-1
 264 110 l 1,5,-1
 595 110 l 1,6,-1
 595 1184 l 1,7,-1
 745 1184 l 1,8,-1
 745 0 l 1,9,-1
 496 0 l 1,10,-1
 486 -285 l 1,11,-1
 384 -285 l 1,0,-1
EndSplineSet
EndChar

StartChar: afii61289
Encoding: 8467 8467 358
Width: 1024
GlyphClass: 2
Flags: W
LayerCount: 2
UndoRedoHistory
Layer: 1
Undoes
EndUndoes
Redoes
EndRedoes
EndUndoRedoHistory
Fore
SplineSet
550 940 m 1,0,-1
 578 982 l 1,1,2
 825 1347 825 1347 858 1581 c 0,3,4
 863 1615 863 1615 863 1644 c 0,5,6
 863 1732 863 1732 819 1769 c 0,7,8
 797 1788 797 1788 772 1788 c 0,9,10
 751 1788 751 1788 729 1775 c 0,11,12
 672 1741 672 1741 659 1654 c 2,13,-1
 550 940 l 1,0,-1
396 568 m 1,14,-1
 212 302 l 1,15,-1
 153 355 l 1,16,-1
 424 754 l 1,17,-1
 557 1653 l 2,18,19
 564 1703 564 1703 585 1746 c 0,20,21
 630 1841 630 1841 719 1875 c 0,22,23
 754 1888 754 1888 787 1888 c 0,24,25
 834 1888 834 1888 876 1860 c 1,26,27
 959 1801 959 1801 959 1659 c 0,28,29
 959 1651 959 1651 959 1643 c 0,30,31
 950 1367 950 1367 646 929 c 2,32,-1
 520 747 l 1,33,-1
 456 330 l 1,34,35
 448 273 448 273 448 229 c 0,36,37
 448 194 448 194 453 168 c 0,38,39
 464 106 464 106 496 83 c 0,40,41
 519 66 519 66 548 66 c 0,42,43
 558 66 558 66 569 68 c 0,44,45
 611 76 611 76 658.5 113 c 128,-1,46
 706 150 706 150 750 209 c 1,47,-1
 806 148 l 1,48,49
 758 86 758 86 701 43.5 c 128,-1,50
 644 1 644 1 590 -14 c 0,51,52
 558 -23 558 -23 527 -23 c 0,53,54
 506 -23 506 -23 486 -19 c 0,55,56
 436 -9 436 -9 404 34 c 0,57,58
 372 78 372 78 358 152 c 0,59,60
 352 185 352 185 353 225 c 0,61,62
 353 276 353 276 362 339 c 2,63,-1
 396 568 l 1,14,-1
EndSplineSet
EndChar

StartChar: approxequal
Encoding: 8776 8776 362
Width: 846
GlyphClass: 2
Flags: W
LayerCount: 2
UndoRedoHistory
Layer: 1
Undoes
EndUndoes
Redoes
EndRedoes
EndUndoRedoHistory
Fore
SplineSet
563 551 m 0,0,1
 526 551 526 551 471 579.5 c 128,-1,2
 416 608 416 608 363 636.5 c 128,-1,3
 310 665 310 665 280 665 c 0,4,5
 229 665 229 665 140 582 c 1,6,-1
 85 653 l 1,7,8
 135 707 135 707 191 744.5 c 128,-1,9
 247 782 247 782 290 782 c 0,10,11
 335 782 335 782 435.5 726 c 128,-1,12
 536 670 536 670 570 670 c 0,13,14
 589 670 589 670 611 680.5 c 128,-1,15
 633 691 633 691 651 704 c 128,-1,16
 669 717 669 717 706 746 c 1,17,-1
 761 677 l 1,18,19
 641 551 641 551 563 551 c 0,0,1
563 860 m 0,20,21
 526 860 526 860 471 888.5 c 128,-1,22
 416 917 416 917 363 945.5 c 128,-1,23
 310 974 310 974 280 974 c 0,24,25
 230 974 230 974 140 892 c 1,26,-1
 85 962 l 1,27,28
 135 1017 135 1017 191 1054 c 128,-1,29
 247 1091 247 1091 290 1091 c 0,30,31
 335 1091 335 1091 435.5 1035 c 128,-1,32
 536 979 536 979 570 979 c 0,33,34
 589 979 589 979 611 989.5 c 128,-1,35
 633 1000 633 1000 651 1013 c 128,-1,36
 669 1026 669 1026 706 1055 c 1,37,-1
 761 986 l 1,38,39
 639 860 639 860 563 860 c 0,20,21
EndSplineSet
EndChar

StartChar: breve
Encoding: 728 728 363
Width: 727
GlyphClass: 2
Flags: W
LayerCount: 2
UndoRedoHistory
Layer: 1
Undoes
EndUndoes
Redoes
EndRedoes
EndUndoRedoHistory
Fore
SplineSet
364 1402 m 0,0,1
 125 1402 125 1402 119 1658 c 1,2,-1
 214 1658 l 1,3,4
 216 1570 216 1570 254 1531 c 128,-1,5
 292 1492 292 1492 364 1492 c 128,-1,6
 436 1492 436 1492 474.5 1531 c 128,-1,7
 513 1570 513 1570 517 1658 c 1,8,-1
 613 1658 l 1,9,10
 607 1402 607 1402 364 1402 c 0,0,1
EndSplineSet
EndChar

StartChar: bullet
Encoding: 8226 8226 364
Width: 619
GlyphClass: 2
Flags: W
LayerCount: 2
UndoRedoHistory
Layer: 1
Undoes
EndUndoes
Redoes
EndRedoes
EndUndoRedoHistory
Fore
SplineSet
309 608 m 128,-1,1
 222 608 222 608 173.5 661 c 128,-1,2
 125 714 125 714 125 798 c 128,-1,3
 125 882 125 882 173.5 934.5 c 128,-1,4
 222 987 222 987 309 987 c 128,-1,5
 396 987 396 987 445 934.5 c 128,-1,6
 494 882 494 882 494 798 c 128,-1,7
 494 714 494 714 445 661 c 128,-1,0
 396 608 396 608 309 608 c 128,-1,1
EndSplineSet
EndChar

StartChar: caron
Encoding: 711 711 366
Width: 613
GlyphClass: 2
Flags: W
LayerCount: 2
UndoRedoHistory
Layer: 1
Undoes
EndUndoes
Redoes
EndRedoes
EndUndoRedoHistory
Fore
SplineSet
242 1319 m 1,0,-1
 68 1658 l 1,1,-1
 188 1658 l 1,2,-1
 309 1413 l 1,3,-1
 430 1658 l 1,4,-1
 550 1658 l 1,5,-1
 374 1319 l 1,6,-1
 242 1319 l 1,0,-1
EndSplineSet
EndChar

StartChar: circumflex
Encoding: 710 710 370
Width: 673
GlyphClass: 2
Flags: W
LayerCount: 2
UndoRedoHistory
Layer: 1
Undoes
EndUndoes
Redoes
EndRedoes
EndUndoRedoHistory
Fore
SplineSet
75 1280 m 1,0,-1
 252 1658 l 1,1,-1
 420 1658 l 1,2,-1
 594 1280 l 1,3,-1
 485 1280 l 1,4,-1
 335 1584 l 1,5,-1
 186 1280 l 1,6,-1
 75 1280 l 1,0,-1
EndSplineSet
EndChar

StartChar: dagger
Encoding: 8224 8224 371
Width: 716
GlyphClass: 2
Flags: W
LayerCount: 2
UndoRedoHistory
Layer: 1
Undoes
EndUndoes
Redoes
EndRedoes
EndUndoRedoHistory
Fore
SplineSet
287 0 m 1,0,-1
 287 1126 l 1,1,-1
 54 1126 l 1,2,-1
 54 1244 l 1,3,-1
 287 1244 l 1,4,-1
 287 1623 l 1,5,-1
 432 1623 l 1,6,-1
 432 1244 l 1,7,-1
 664 1244 l 1,8,-1
 664 1126 l 1,9,-1
 432 1126 l 1,10,-1
 432 0 l 1,11,-1
 287 0 l 1,0,-1
EndSplineSet
EndChar

StartChar: daggerdbl
Encoding: 8225 8225 372
Width: 758
GlyphClass: 2
Flags: W
LayerCount: 2
UndoRedoHistory
Layer: 1
Undoes
EndUndoes
Redoes
EndRedoes
EndUndoRedoHistory
Fore
SplineSet
309 0 m 1,0,-1
 309 528 l 1,1,-1
 65 528 l 1,2,-1
 65 633 l 1,3,-1
 309 633 l 1,4,-1
 309 1079 l 1,5,-1
 65 1079 l 1,6,-1
 65 1184 l 1,7,-1
 309 1184 l 1,8,-1
 309 1624 l 1,9,-1
 452 1624 l 1,10,-1
 452 1184 l 1,11,-1
 695 1184 l 1,12,-1
 695 1079 l 1,13,-1
 452 1079 l 1,14,-1
 452 633 l 1,15,-1
 695 633 l 1,16,-1
 695 528 l 1,17,-1
 452 528 l 1,18,-1
 452 0 l 1,19,-1
 309 0 l 1,0,-1
EndSplineSet
EndChar

StartChar: dcroat
Encoding: 273 273 374
Width: 873
GlyphClass: 2
Flags: W
LayerCount: 2
UndoRedoHistory
Layer: 1
Undoes
EndUndoes
Redoes
EndRedoes
EndUndoRedoHistory
Fore
SplineSet
378 -19 m 1,0,1
 225 -19 225 -19 158.5 96 c 128,-1,2
 92 211 92 211 92 478 c 2,3,-1
 92 697 l 2,4,5
 92 795 92 795 99 869 c 128,-1,6
 106 943 106 943 125 1008 c 128,-1,7
 144 1073 144 1073 175 1114 c 128,-1,8
 206 1155 206 1155 255 1178.5 c 128,-1,9
 304 1202 304 1202 371 1202 c 0,10,11
 488 1201 488 1201 580 1099 c 1,12,-1
 580 1406 l 1,13,-1
 385 1406 l 1,14,-1
 385 1494 l 1,15,-1
 580 1494 l 1,16,-1
 580 1658 l 1,17,-1
 730 1658 l 1,18,-1
 730 1494 l 1,19,-1
 847 1494 l 1,20,-1
 847 1406 l 1,21,-1
 730 1406 l 1,22,-1
 730 0 l 1,23,-1
 580 0 l 1,24,-1
 580 84 l 1,25,26
 490 -18 490 -18 378 -19 c 1,0,1
408 100 m 0,27,28
 495 100 495 100 580 178 c 1,29,-1
 580 1000 l 1,30,31
 490 1084 490 1084 404 1084 c 0,32,33
 309 1084 309 1084 275.5 1004.5 c 128,-1,34
 242 925 242 925 242 745 c 2,35,-1
 242 466 l 2,36,37
 242 272 242 272 276 186 c 128,-1,38
 310 100 310 100 408 100 c 0,27,28
EndSplineSet
EndChar

StartChar: dotlessi
Encoding: 305 305 376
Width: 405
GlyphClass: 2
Flags: W
LayerCount: 2
UndoRedoHistory
Layer: 1
Undoes
EndUndoes
Redoes
EndRedoes
EndUndoRedoHistory
Fore
SplineSet
130 0 m 1,0,-1
 130 1184 l 1,1,-1
 280 1184 l 1,2,-1
 280 0 l 1,3,-1
 130 0 l 1,0,-1
EndSplineSet
EndChar

StartChar: ellipsis
Encoding: 8230 8230 380
Width: 1088
GlyphClass: 2
Flags: W
LayerCount: 2
UndoRedoHistory
Layer: 1
Undoes
EndUndoes
Redoes
EndRedoes
EndUndoRedoHistory
Fore
SplineSet
110 0 m 1,0,-1
 110 225 l 1,1,-1
 269 225 l 1,2,-1
 269 0 l 1,3,-1
 110 0 l 1,0,-1
474 0 m 1,4,-1
 474 225 l 1,5,-1
 633 225 l 1,6,-1
 633 0 l 1,7,-1
 474 0 l 1,4,-1
838 0 m 1,8,-1
 838 225 l 1,9,-1
 997 225 l 1,10,-1
 997 0 l 1,11,-1
 838 0 l 1,8,-1
EndSplineSet
EndChar

StartChar: emdash
Encoding: 8212 8212 382
Width: 1697
GlyphClass: 2
Flags: W
LayerCount: 2
UndoRedoHistory
Layer: 1
Undoes
EndUndoes
Redoes
EndRedoes
EndUndoRedoHistory
Fore
SplineSet
83 504 m 1,0,-1
 83 624 l 1,1,-1
 1626 624 l 1,2,-1
 1626 504 l 1,3,-1
 83 504 l 1,0,-1
EndSplineSet
EndChar

StartChar: endash
Encoding: 8211 8211 383
Width: 964
GlyphClass: 2
Flags: W
LayerCount: 2
UndoRedoHistory
Layer: 1
Undoes
EndUndoes
Redoes
EndRedoes
EndUndoRedoHistory
Fore
SplineSet
83 430 m 1,0,-1
 83 554 l 1,1,-1
 893 554 l 1,2,-1
 893 430 l 1,3,-1
 83 430 l 1,0,-1
EndSplineSet
EndChar

StartChar: eng
Encoding: 331 331 384
Width: 794
GlyphClass: 2
Flags: W
LayerCount: 2
UndoRedoHistory
Layer: 1
Undoes
EndUndoes
Redoes
EndRedoes
EndUndoRedoHistory
Fore
SplineSet
328 -341 m 1,0,-1
 328 -224 l 1,1,2
 403 -224 403 -224 451.5 -210.5 c 128,-1,3
 500 -197 500 -197 525.5 -167.5 c 128,-1,4
 551 -138 551 -138 560.5 -101.5 c 128,-1,5
 570 -65 570 -65 570 -10 c 2,6,-1
 570 918 l 2,7,8
 570 1008 570 1008 542.5 1046 c 128,-1,9
 515 1084 515 1084 457 1084 c 0,10,11
 360 1084 360 1084 253 975 c 1,12,-1
 253 0 l 1,13,-1
 103 0 l 1,14,-1
 103 1184 l 1,15,-1
 253 1184 l 1,16,-1
 253 1061 l 1,17,18
 384 1202 384 1202 538 1202 c 0,19,20
 626 1202 626 1202 673 1136.5 c 128,-1,21
 720 1071 720 1071 720 950 c 2,22,-1
 720 -12 l 2,23,24
 720 -100 720 -100 693 -165.5 c 128,-1,25
 666 -231 666 -231 617 -268.5 c 128,-1,26
 568 -306 568 -306 506.5 -323.5 c 128,-1,27
 445 -341 445 -341 369 -341 c 2,28,-1
 328 -341 l 1,0,-1
EndSplineSet
EndChar

StartChar: estimated
Encoding: 8494 8494 386
Width: 824
GlyphClass: 2
Flags: W
LayerCount: 2
UndoRedoHistory
Layer: 1
Undoes
EndUndoes
Redoes
EndRedoes
EndUndoRedoHistory
Fore
SplineSet
437 -19 m 128,-1,1
 350 -19 350 -19 290 2 c 128,-1,2
 230 23 230 23 186 73.5 c 128,-1,3
 142 124 142 124 121.5 210.5 c 128,-1,4
 101 297 101 297 101 425 c 2,5,-1
 101 748 l 2,6,7
 101 878 101 878 120.5 964 c 128,-1,8
 140 1050 140 1050 182.5 1098.5 c 128,-1,9
 225 1147 225 1147 283 1166.5 c 128,-1,10
 341 1186 341 1186 427 1186 c 0,11,12
 521 1186 521 1186 580 1161 c 128,-1,13
 639 1136 639 1136 672.5 1076 c 128,-1,14
 706 1016 706 1016 718 933 c 128,-1,15
 730 850 730 850 730 718 c 1,16,-1
 729 601 l 1,17,-1
 263 601 l 1,18,-1
 263 360 l 2,19,20
 263 258 263 258 269.5 201 c 128,-1,21
 276 144 276 144 297.5 106.5 c 128,-1,22
 319 69 319 69 354 56.5 c 128,-1,23
 389 44 389 44 451 44 c 0,24,25
 500 44 500 44 533 54.5 c 128,-1,26
 566 65 566 65 592.5 92.5 c 128,-1,27
 619 120 619 120 631.5 172.5 c 128,-1,28
 644 225 644 225 644 306 c 2,29,-1
 644 405 l 1,30,-1
 729 405 l 1,31,-1
 729 312 l 2,32,33
 729 226 729 226 716.5 168 c 128,-1,34
 704 110 704 110 672 66 c 128,-1,35
 640 22 640 22 582 1.5 c 128,-1,0
 524 -19 524 -19 437 -19 c 128,-1,1
263 661 m 1,36,-1
 582 661 l 1,37,-1
 582 820 l 2,38,39
 582 862 582 862 581.5 886.5 c 128,-1,40
 581 911 581 911 579 944 c 128,-1,41
 577 977 577 977 572.5 996 c 128,-1,42
 568 1015 568 1015 561 1038 c 128,-1,43
 554 1061 554 1061 542.5 1073.5 c 128,-1,44
 531 1086 531 1086 514.5 1098 c 128,-1,45
 498 1110 498 1110 476 1114.5 c 128,-1,46
 454 1119 454 1119 426 1119 c 0,47,48
 328 1119 328 1119 295.5 1055.5 c 128,-1,49
 263 992 263 992 263 802 c 2,50,-1
 263 661 l 1,36,-1
EndSplineSet
EndChar

StartChar: florin
Encoding: 402 402 387
Width: 766
GlyphClass: 2
Flags: W
LayerCount: 2
UndoRedoHistory
Layer: 1
Undoes
EndUndoes
Redoes
EndRedoes
EndUndoRedoHistory
Fore
SplineSet
106 -270 m 0,0,1
 53 -270 53 -270 -14 -257 c 1,2,-1
 -1 -144 l 1,3,4
 54 -155 54 -155 82 -155 c 0,5,6
 146 -155 146 -155 171 -116.5 c 128,-1,7
 196 -78 196 -78 209 16 c 2,8,-1
 350 1075 l 1,9,-1
 201 1075 l 1,10,-1
 201 1184 l 1,11,-1
 363 1184 l 1,12,-1
 382 1314 l 1,13,14
 390 1387 390 1387 403 1434.5 c 128,-1,15
 416 1482 416 1482 442.5 1524.5 c 128,-1,16
 469 1567 469 1567 517 1587.5 c 128,-1,17
 565 1608 565 1608 635 1608 c 0,18,19
 689 1608 689 1608 754 1595 c 1,20,-1
 741 1482 l 1,21,22
 672 1493 672 1493 659 1493 c 0,23,24
 595 1493 595 1493 570 1454.5 c 128,-1,25
 545 1416 545 1416 532 1323 c 2,26,-1
 513 1184 l 1,27,-1
 688 1184 l 1,28,-1
 688 1075 l 1,29,-1
 500 1075 l 1,30,-1
 359 25 l 2,31,32
 352 -34 352 -34 343.5 -74 c 128,-1,33
 335 -114 335 -114 317 -154 c 128,-1,34
 299 -194 299 -194 273 -217.5 c 128,-1,35
 247 -241 247 -241 205 -255.5 c 128,-1,36
 163 -270 163 -270 106 -270 c 0,0,1
EndSplineSet
EndChar

StartChar: foundryicon
Encoding: 65539 -1 388
Width: 1454
GlyphClass: 2
Flags: W
LayerCount: 2
UndoRedoHistory
Layer: 1
Undoes
EndUndoes
Redoes
EndRedoes
EndUndoRedoHistory
Fore
SplineSet
280 267 m 1,0,-1
 442 788 l 1,1,-1
 0 1124 l 1,2,-1
 551 1124 l 1,3,-1
 722 1646 l 1,4,-1
 903 1124 l 1,5,-1
 1454 1124 l 1,6,-1
 1010 788 l 1,7,-1
 1174 267 l 1,8,-1
 722 581 l 1,9,-1
 280 267 l 1,0,-1
EndSplineSet
EndChar

StartChar: fraction
Encoding: 8260 8260 389
Width: 447
GlyphClass: 2
Flags: W
LayerCount: 2
UndoRedoHistory
Layer: 1
Undoes
EndUndoes
Redoes
EndRedoes
EndUndoRedoHistory
Fore
SplineSet
0 0 m 1,0,-1
 319 1658 l 1,1,-1
 447 1658 l 1,2,-1
 130 0 l 1,3,-1
 0 0 l 1,0,-1
EndSplineSet
EndChar

